<svg width="26" height="26" viewBox="0 0 26 26" fill="none" xmlns="http://www.w3.org/2000/svg">
<g clip-path="url(#clip0_2_27)">
<path d="M13.0912 0.604309C9.76732 0.604309 9.34934 0.61962 8.04336 0.677799C6.73737 0.739041 5.84783 0.944202 5.06853 1.24735C4.2511 1.55481 3.51068 2.0371 2.89904 2.66051C2.27602 3.27246 1.79378 4.01279 1.48588 4.83C1.18273 5.60777 0.976039 6.49884 0.916329 7.80023C0.858149 9.10928 0.842838 9.52573 0.842838 12.8542C0.842838 16.1797 0.858149 16.5961 0.916329 17.9021C0.977571 19.2065 1.18273 20.0961 1.48588 20.8754C1.79974 21.6807 2.21772 22.3636 2.89904 23.0449C3.57882 23.7262 4.26167 24.1457 5.067 24.458C5.84783 24.7612 6.73584 24.9679 8.0403 25.0276C9.34781 25.0858 9.76426 25.1011 13.0912 25.1011C16.4182 25.1011 16.8331 25.0858 18.1406 25.0276C19.4435 24.9663 20.3361 24.7612 21.1154 24.458C21.9324 24.1504 22.6722 23.6681 23.2834 23.0449C23.9647 22.3636 24.3827 21.6807 24.6966 20.8754C24.9982 20.0961 25.2049 19.2065 25.2661 17.9021C25.3243 16.5961 25.3396 16.1797 25.3396 12.8527C25.3396 9.52573 25.3243 9.10928 25.2661 7.80177C25.2049 6.49884 24.9982 5.60777 24.6966 4.83C24.3887 4.01277 23.9065 3.27243 23.2834 2.66051C22.672 2.03687 21.9315 1.55455 21.1139 1.24735C20.3331 0.944202 19.442 0.73751 18.1391 0.677799C16.8316 0.61962 16.4167 0.604309 13.0882 0.604309H13.0928H13.0912ZM11.9935 2.81208H13.0928C16.3631 2.81208 16.7504 2.8228 18.0411 2.88251C19.2353 2.9361 19.8845 3.13666 20.3162 3.30355C20.8873 3.52555 21.2961 3.79195 21.7248 4.22064C22.1535 4.64934 22.4184 5.0566 22.6404 5.62921C22.8088 6.05943 23.0078 6.7086 23.0614 7.90282C23.1211 9.19349 23.1334 9.58084 23.1334 12.8496C23.1334 16.1184 23.1211 16.5073 23.0614 17.798C23.0078 18.9922 22.8073 19.6398 22.6404 20.0716C22.444 20.6034 22.1306 21.0843 21.7233 21.4786C21.2946 21.9073 20.8873 22.1722 20.3147 22.3942C19.886 22.5626 19.2368 22.7616 18.0411 22.8168C16.7504 22.8749 16.3631 22.8887 13.0928 22.8887C9.82244 22.8887 9.43355 22.8749 8.14288 22.8168C6.94866 22.7616 6.30102 22.5626 5.86927 22.3942C5.33723 22.1981 4.85591 21.8852 4.4607 21.4786C4.05306 21.0837 3.73916 20.6023 3.54208 20.0701C3.37519 19.6398 3.17462 18.9907 3.12104 17.7964C3.06286 16.5058 3.05061 16.1184 3.05061 12.8466C3.05061 9.57625 3.06286 9.19043 3.12104 7.89975C3.17616 6.70554 3.37519 6.05637 3.54361 5.62462C3.76561 5.05353 4.03201 4.64474 4.4607 4.21605C4.8894 3.78736 5.29666 3.52249 5.86927 3.30048C6.30102 3.13207 6.94866 2.93303 8.14288 2.87792C9.27279 2.82586 9.71067 2.81055 11.9935 2.80902V2.81208V2.81208ZM19.6303 4.84531C19.4373 4.84531 19.2462 4.88333 19.0679 4.95719C18.8895 5.03106 18.7275 5.13932 18.591 5.27581C18.4545 5.41229 18.3463 5.57432 18.2724 5.75265C18.1985 5.93097 18.1605 6.1221 18.1605 6.31512C18.1605 6.50814 18.1985 6.69926 18.2724 6.87759C18.3463 7.05591 18.4545 7.21794 18.591 7.35443C18.7275 7.49091 18.8895 7.59918 19.0679 7.67304C19.2462 7.74691 19.4373 7.78492 19.6303 7.78492C20.0201 7.78492 20.394 7.63007 20.6696 7.35443C20.9453 7.07879 21.1001 6.70494 21.1001 6.31512C21.1001 5.9253 20.9453 5.55145 20.6696 5.27581C20.394 5.00017 20.0201 4.84531 19.6303 4.84531V4.84531ZM13.0928 6.56315C12.2584 6.55013 11.4299 6.70322 10.6553 7.01349C9.88071 7.32377 9.17559 7.78503 8.58099 8.37043C7.98638 8.95583 7.51417 9.65367 7.19185 10.4233C6.86953 11.193 6.70354 12.019 6.70354 12.8535C6.70354 13.6879 6.86953 14.514 7.19185 15.2836C7.51417 16.0532 7.98638 16.7511 8.58099 17.3365C9.17559 17.9219 9.88071 18.3831 10.6553 18.6934C11.4299 19.0037 12.2584 19.1568 13.0928 19.1438C14.7441 19.118 16.319 18.4439 17.4776 17.2671C18.6363 16.0902 19.2857 14.505 19.2857 12.8535C19.2857 11.202 18.6363 9.61669 17.4776 8.43983C16.319 7.26297 14.7441 6.58891 13.0928 6.56315V6.56315ZM13.0928 8.76939C14.1757 8.76939 15.2143 9.19959 15.9801 9.96536C16.7459 10.7311 17.1761 11.7697 17.1761 12.8527C17.1761 13.9357 16.7459 14.9743 15.9801 15.74C15.2143 16.5058 14.1757 16.936 13.0928 16.936C12.0098 16.936 10.9712 16.5058 10.2054 15.74C9.43965 14.9743 9.00945 13.9357 9.00945 12.8527C9.00945 11.7697 9.43965 10.7311 10.2054 9.96536C10.9712 9.19959 12.0098 8.76939 13.0928 8.76939V8.76939Z" fill="black"/>
</g>
<defs>
<clipPath id="clip0_2_27">
<rect width="24.4968" height="24.4968" fill="white" transform="translate(0.842838 0.604309)"/>
</clipPath>
</defs>
</svg>
