<svg width="20" height="20" viewBox="0 0 20 20" fill="none" xmlns="http://www.w3.org/2000/svg">
<g clip-path="url(#clip0_2_16)">
<path d="M6.39167 18.3457C13.7175 18.3457 17.725 12.2756 17.725 7.02087C17.725 6.85101 17.725 6.67872 17.7178 6.50886C18.498 5.94406 19.1714 5.24479 19.7063 4.44384C18.9775 4.76518 18.2052 4.97696 17.4144 5.07232C18.2474 4.57443 18.8713 3.79105 19.1701 2.86777C18.3875 3.3314 17.5309 3.65686 16.6379 3.82991C16.0376 3.19053 15.2431 2.76697 14.3777 2.62482C13.5122 2.48267 12.624 2.62987 11.8507 3.04362C11.0774 3.45737 10.462 4.11458 10.1 4.91345C9.73804 5.71232 9.64958 6.60827 9.84834 7.46251C8.26468 7.3831 6.7154 6.97169 5.30097 6.25497C3.88655 5.53825 2.63857 4.53222 1.63799 3.30213C1.13003 4.17944 0.975014 5.21719 1.20441 6.20465C1.43381 7.1921 2.03043 8.05524 2.87312 8.61878C2.24165 8.59732 1.62406 8.42776 1.07017 8.12375V8.17835C1.07126 9.0974 1.38964 9.98788 1.97149 10.6993C2.55335 11.4107 3.36299 11.8994 4.26355 12.0827C3.92173 12.1769 3.56862 12.2238 3.21406 12.2223C2.9641 12.223 2.71464 12.1999 2.46909 12.1531C2.72363 12.9442 3.21924 13.6359 3.88652 14.1313C4.5538 14.6267 5.35932 14.901 6.19026 14.9158C4.77866 16.0245 3.03498 16.6258 1.24003 16.6229C0.923749 16.6242 0.607689 16.606 0.293661 16.5683C2.11544 17.7297 4.23116 18.3464 6.39167 18.3457V18.3457Z" fill="black"/>
</g>
<defs>
<clipPath id="clip0_2_16">
<rect width="19.4127" height="19.4127" fill="white" transform="translate(0.293661 0.146347)"/>
</clipPath>
</defs>
</svg>
