<svg width="30" height="30" viewBox="0 0 30 30" fill="none" xmlns="http://www.w3.org/2000/svg">
<path d="M15.2484 3C11.9245 3 11.5065 3.01531 10.2005 3.07349C8.89453 3.13473 8.00499 3.33989 7.22569 3.64304C6.40826 3.9505 5.66784 4.43279 5.0562 5.0562C4.43318 5.66815 3.95094 6.40848 3.64304 7.22569C3.33989 8.00346 3.1332 8.89453 3.07349 10.1959C3.01531 11.505 3 11.9214 3 15.2499C3 18.5754 3.01531 18.9918 3.07349 20.2978C3.13473 21.6022 3.33989 22.4918 3.64304 23.2711C3.9569 24.0764 4.37488 24.7593 5.0562 25.4406C5.73598 26.1219 6.41883 26.5414 7.22416 26.8537C8.00499 27.1569 8.893 27.3636 10.1975 27.4233C11.505 27.4815 11.9214 27.4968 15.2484 27.4968C18.5754 27.4968 18.9903 27.4815 20.2978 27.4233C21.6007 27.362 22.4933 27.1569 23.2726 26.8537C24.0896 26.5461 24.8294 26.0638 25.4406 25.4406C26.1219 24.7593 26.5399 24.0764 26.8538 23.2711C27.1554 22.4918 27.3621 21.6022 27.4233 20.2978C27.4815 18.9918 27.4968 18.5754 27.4968 15.2484C27.4968 11.9214 27.4815 11.505 27.4233 10.1975C27.3621 8.89453 27.1554 8.00346 26.8538 7.22569C26.5459 6.40846 26.0637 5.66812 25.4406 5.0562C24.8292 4.43256 24.0887 3.95024 23.2711 3.64304C22.4903 3.33989 21.5992 3.1332 20.2963 3.07349C18.9888 3.01531 18.5739 3 15.2454 3H15.25H15.2484ZM14.1507 5.20777H15.25C18.5203 5.20777 18.9076 5.21849 20.1983 5.2782C21.3925 5.33179 22.0417 5.53235 22.4734 5.69924C23.0445 5.92124 23.4533 6.18764 23.882 6.61633C24.3107 7.04503 24.5756 7.45229 24.7976 8.0249C24.966 8.45512 25.165 9.10429 25.2186 10.2985C25.2783 11.5892 25.2906 11.9765 25.2906 15.2453C25.2906 18.5141 25.2783 18.903 25.2186 20.1937C25.165 21.3879 24.9645 22.0355 24.7976 22.4673C24.6012 22.9991 24.2878 23.48 23.8805 23.8743C23.4518 24.303 23.0445 24.5679 22.4719 24.7899C22.0432 24.9583 21.394 25.1573 20.1983 25.2125C18.9076 25.2706 18.5203 25.2844 15.25 25.2844C11.9796 25.2844 11.5907 25.2706 10.3 25.2125C9.10582 25.1573 8.45818 24.9583 8.02643 24.7899C7.49439 24.5938 7.01307 24.2809 6.61786 23.8743C6.21022 23.4794 5.89632 22.998 5.69924 22.4658C5.53235 22.0355 5.33178 21.3864 5.2782 20.1921C5.22002 18.9015 5.20777 18.5141 5.20777 15.2423C5.20777 11.9719 5.22002 11.5861 5.2782 10.2954C5.33332 9.10123 5.53235 8.45206 5.70077 8.02031C5.92277 7.44922 6.18917 7.04043 6.61786 6.61174C7.04656 6.18305 7.45382 5.91818 8.02643 5.69617C8.45818 5.52776 9.10582 5.32872 10.3 5.27361C11.43 5.22155 11.8678 5.20624 14.1507 5.20471V5.20777ZM21.7875 7.241C21.5945 7.241 21.4034 7.27902 21.2251 7.35288C21.0467 7.42675 20.8847 7.53501 20.7482 7.6715C20.6117 7.80798 20.5035 7.97001 20.4296 8.14834C20.3557 8.32666 20.3177 8.51779 20.3177 8.71081C20.3177 8.90383 20.3557 9.09495 20.4296 9.27328C20.5035 9.4516 20.6117 9.61363 20.7482 9.75012C20.8847 9.8866 21.0467 9.99487 21.2251 10.0687C21.4034 10.1426 21.5945 10.1806 21.7875 10.1806C22.1773 10.1806 22.5512 10.0258 22.8268 9.75012C23.1025 9.47448 23.2573 9.10063 23.2573 8.71081C23.2573 8.32099 23.1025 7.94714 22.8268 7.6715C22.5512 7.39586 22.1773 7.241 21.7875 7.241ZM15.25 8.95884C14.4156 8.94582 13.5871 9.09891 12.8125 9.40918C12.0379 9.71946 11.3328 10.1807 10.7382 10.7661C10.1435 11.3515 9.67133 12.0494 9.34901 12.819C9.02669 13.5887 8.8607 14.4147 8.8607 15.2492C8.8607 16.0836 9.02669 16.9097 9.34901 17.6793C9.67133 18.4489 10.1435 19.1468 10.7382 19.7322C11.3328 20.3176 12.0379 20.7788 12.8125 21.0891C13.5871 21.3994 14.4156 21.5525 15.25 21.5395C16.9013 21.5137 18.4762 20.8396 19.6348 19.6628C20.7935 18.4859 21.4429 16.9007 21.4429 15.2492C21.4429 13.5977 20.7935 12.0124 19.6348 10.8355C18.4762 9.65866 16.9013 8.9846 15.25 8.95884ZM15.25 11.1651C16.3329 11.1651 17.3715 11.5953 18.1373 12.3611C18.9031 13.1268 19.3333 14.1654 19.3333 15.2484C19.3333 16.3314 18.9031 17.37 18.1373 18.1357C17.3715 18.9015 16.3329 19.3317 15.25 19.3317C14.167 19.3317 13.1284 18.9015 12.3626 18.1357C11.5968 17.37 11.1666 16.3314 11.1666 15.2484C11.1666 14.1654 11.5968 13.1268 12.3626 12.3611C13.1284 11.5953 14.167 11.1651 15.25 11.1651Z" fill="black"/>
</svg>
