<svg width="30" height="30" viewBox="0 0 30 30" fill="none" xmlns="http://www.w3.org/2000/svg">
<path d="M10.539 25C19.596 25 24.5505 17.3035 24.5505 10.6408C24.5505 10.4254 24.5505 10.207 24.5416 9.99158C25.5062 9.27545 26.3387 8.38881 27 7.37326C26.099 7.7807 25.1442 8.04922 24.1665 8.17013C25.1963 7.53884 25.9677 6.54556 26.3371 5.37489C25.3696 5.96275 24.3105 6.37541 23.2065 6.59483C22.4644 5.78413 21.4821 5.24708 20.4122 5.06684C19.3422 4.88661 18.2441 5.07325 17.2881 5.59786C16.332 6.12247 15.5712 6.95577 15.1237 7.96869C14.6762 8.98161 14.5668 10.1176 14.8125 11.2008C12.8546 11.1001 10.9392 10.5784 9.19058 9.66966C7.44192 8.7609 5.89903 7.48532 4.662 5.92563C4.03401 7.03801 3.84236 8.35382 4.12597 9.60586C4.40958 10.8579 5.14718 11.9523 6.18901 12.6668C5.40831 12.6396 4.64478 12.4246 3.96 12.0392V12.1084C3.96135 13.2737 4.35497 14.4028 5.07431 15.3048C5.79367 16.2068 6.79464 16.8265 7.908 17.0589C7.48541 17.1783 7.04886 17.2378 6.61051 17.2359C6.30148 17.2368 5.99308 17.2075 5.6895 17.1481C6.00419 18.1512 6.61692 19.0282 7.44188 19.6564C8.26684 20.2845 9.26271 20.6323 10.29 20.6511C8.54484 22.0569 6.38911 22.8193 4.17 22.8156C3.77898 22.8172 3.38824 22.7942 3 22.7464C5.25228 24.2189 7.86796 25.0009 10.539 25Z" fill="black"/>
</svg>
