<svg width="25" height="25" viewBox="0 0 25 25" fill="none" xmlns="http://www.w3.org/2000/svg">
<path d="M20.9871 17.5221L16.9221 13.8261C16.73 13.6514 16.4775 13.5583 16.2179 13.5663C15.9584 13.5743 15.7121 13.6829 15.5311 13.8691L13.1381 16.3301C12.5621 16.2201 11.4041 15.8591 10.2121 14.6701C9.02012 13.4771 8.65912 12.3161 8.55212 11.7441L11.0111 9.35008C11.1975 9.1692 11.3063 8.9229 11.3143 8.66328C11.3223 8.40367 11.229 8.15112 11.0541 7.95907L7.35912 3.89507C7.18416 3.70243 6.941 3.58558 6.68127 3.56933C6.42155 3.55309 6.16572 3.63873 5.96812 3.80808L3.79812 5.66908C3.62523 5.84259 3.52204 6.07353 3.50812 6.31807C3.49312 6.56807 3.20712 12.4901 7.79912 17.0841C11.8051 21.0891 16.8231 21.3821 18.2051 21.3821C18.4071 21.3821 18.5311 21.3761 18.5641 21.3741C18.8086 21.3604 19.0394 21.2567 19.2121 21.0831L21.0721 18.9121C21.2421 18.7151 21.3284 18.4595 21.3125 18.1998C21.2966 17.9401 21.1799 17.6969 20.9871 17.5221V17.5221Z" fill="black"/>
</svg>
