<svg width="250" height="52" viewBox="0 0 250 52" fill="none" xmlns="http://www.w3.org/2000/svg">
<rect width="250" height="52" rx="26" fill="url(#paint0_linear_35_66)"/>
<path d="M133.487 31.14L129.422 27.444C129.23 27.2693 128.977 27.1762 128.718 27.1842C128.458 27.1922 128.212 27.3008 128.031 27.487L125.638 29.948C125.062 29.838 123.904 29.477 122.712 28.288C121.52 27.095 121.159 25.934 121.052 25.362L123.511 22.968C123.697 22.7871 123.806 22.5408 123.814 22.2812C123.822 22.0216 123.729 21.769 123.554 21.577L119.859 17.513C119.684 17.3204 119.441 17.2035 119.181 17.1873C118.921 17.171 118.666 17.2567 118.468 17.426L116.298 19.287C116.125 19.4605 116.022 19.6914 116.008 19.936C115.993 20.186 115.707 26.108 120.299 30.702C124.305 34.707 129.323 35 130.705 35C130.907 35 131.031 34.994 131.064 34.992C131.309 34.9783 131.539 34.8747 131.712 34.701L133.572 32.53C133.742 32.333 133.828 32.0774 133.812 31.8177C133.797 31.558 133.68 31.3148 133.487 31.14V31.14Z" fill="white"/>
<defs>
<linearGradient id="paint0_linear_35_66" x1="108.769" y1="12.2988" x2="304.524" y2="102.973" gradientUnits="userSpaceOnUse">
<stop stop-color="#AE6F59"/>
<stop offset="1" stop-color="#B49387"/>
</linearGradient>
</defs>
</svg>
