<svg width="240" height="95" viewBox="0 0 240 95" fill="none" xmlns="http://www.w3.org/2000/svg">
<g clip-path="url(#clip0_101_34)">
<path d="M36.419 82V85.5547H36.1333C35.9185 84.6269 35.5181 83.916 34.9322 83.4218C34.3462 82.9277 33.6822 82.6807 32.94 82.6807C32.3199 82.6807 31.751 82.8647 31.2334 83.2327C30.7159 83.6009 30.3374 84.0824 30.0982 84.6774C29.7906 85.4387 29.6368 86.2857 29.6368 87.2185C29.6368 88.1362 29.7491 88.9731 29.9737 89.7294C30.1983 90.4807 30.5499 91.0504 31.0284 91.4387C31.5069 91.8219 32.127 92.0135 32.8887 92.0135C33.5137 92.0135 34.085 91.8723 34.6026 91.5899C35.125 91.3076 35.6744 90.8211 36.2505 90.1302V91.0152C35.6939 91.6151 35.1128 92.0513 34.5074 92.3235C33.9068 92.5908 33.2037 92.7244 32.398 92.7244C31.3384 92.7244 30.396 92.505 29.5708 92.0664C28.7505 91.6277 28.1158 90.9975 27.6665 90.1757C27.2222 89.3538 27 88.479 27 87.5513C27 86.5731 27.2466 85.6454 27.7398 84.7681C28.2378 83.8907 28.9068 83.2101 29.7466 82.726C30.5914 82.242 31.4874 82 32.4346 82C33.1329 82 33.8702 82.1563 34.6465 82.4689C35.0957 82.6504 35.3814 82.7412 35.5035 82.7412C35.6597 82.7412 35.794 82.6832 35.9063 82.5672C36.0235 82.4462 36.0992 82.2571 36.1333 82H36.419ZM41.3335 82.8243V86.9992H41.5313C42.1612 86.9992 42.6177 86.7949 42.9009 86.3865C43.1841 85.9781 43.3648 85.3756 43.4429 84.5789H43.7212V89.9487H43.4429C43.3843 89.3638 43.2598 88.8849 43.0694 88.5117C42.8838 88.1387 42.6665 87.8891 42.4175 87.763C42.1685 87.632 41.8072 87.5664 41.3335 87.5664V90.4555C41.3335 91.0202 41.3555 91.3656 41.3995 91.4916C41.4483 91.6177 41.5362 91.7211 41.6631 91.8017C41.7901 91.8824 41.9952 91.9228 42.2784 91.9228H42.8716C43.7994 91.9228 44.5415 91.7008 45.0982 91.2571C45.6597 90.8134 46.0625 90.1378 46.3067 89.2302H46.5777L46.1309 92.49H37.5469V92.2101H37.8765C38.1646 92.2101 38.3965 92.1572 38.5723 92.0513C38.6993 91.9807 38.7969 91.8597 38.8653 91.6882C38.919 91.5672 38.9458 91.2496 38.9458 90.7354V83.9891C38.9458 83.5252 38.9336 83.2404 38.9092 83.1344C38.8604 82.958 38.7701 82.8219 38.6382 82.726C38.4527 82.5849 38.1988 82.5142 37.8765 82.5142H37.5469V82.2344H45.8599V85.2673H45.5816C45.44 84.5261 45.2398 83.9941 44.981 83.6714C44.7271 83.3487 44.3658 83.1117 43.897 82.9605C43.6236 82.8698 43.1109 82.8243 42.3589 82.8243H41.3335ZM53.045 82.0908C54.627 82.0303 55.9112 82.5067 56.8975 83.5202C57.8887 84.5336 58.3843 85.8017 58.3843 87.3243C58.3843 88.6252 58.0157 89.7698 57.2784 90.758C56.3018 92.069 54.9224 92.7244 53.1402 92.7244C51.3531 92.7244 49.9712 92.0992 48.9947 90.8487C48.2232 89.8605 47.8374 88.6882 47.8374 87.332C47.8374 85.8093 48.3379 84.5412 49.3389 83.5278C50.3448 82.5093 51.5801 82.0303 53.045 82.0908ZM53.1329 82.5748C52.2247 82.5748 51.5337 83.0538 51.0601 84.0117C50.6744 84.7983 50.4815 85.9277 50.4815 87.4C50.4815 89.1496 50.7793 90.4429 51.375 91.2798C51.7901 91.8647 52.3711 92.1572 53.1182 92.1572C53.6211 92.1572 54.0411 92.0311 54.378 91.779C54.8077 91.4563 55.1421 90.9421 55.3814 90.2362C55.6207 89.5252 55.7403 88.6 55.7403 87.4605C55.7403 86.1042 55.6182 85.0908 55.3741 84.4201C55.1299 83.7445 54.8174 83.268 54.4366 82.9908C54.0606 82.7134 53.626 82.5748 53.1329 82.5748ZM59.6734 95.2051V94.8723C60.2398 94.6202 60.6499 94.2925 60.9039 93.8891C61.1626 93.4908 61.292 93.0824 61.292 92.6639C61.292 92.5782 61.2749 92.5127 61.2408 92.4672C61.2066 92.4269 61.1724 92.4067 61.1382 92.4067C61.1089 92.4067 61.065 92.4244 61.0064 92.4597C60.8648 92.5454 60.689 92.5883 60.4791 92.5883C60.191 92.5883 59.9395 92.4723 59.7247 92.2404C59.5147 92.0085 59.4097 91.7362 59.4097 91.4236C59.4097 91.0908 59.5318 90.7983 59.7759 90.5463C60.0201 90.2941 60.3155 90.168 60.6622 90.168C61.0821 90.168 61.441 90.337 61.7388 90.6748C62.0367 91.0076 62.1856 91.4664 62.1856 92.0513C62.1856 92.7723 61.9732 93.4126 61.5484 93.9723C61.1285 94.5319 60.5035 94.9429 59.6734 95.2051ZM70.1617 82.2344L75.0616 88.595V84.1857C75.0616 83.5706 74.9761 83.1547 74.8052 82.9378C74.5708 82.6454 74.1778 82.5042 73.626 82.5142V82.2344H76.9073V82.5142C76.4874 82.5697 76.2041 82.6428 76.0577 82.7336C75.9161 82.8193 75.8038 82.963 75.7207 83.1647C75.6426 83.3613 75.6036 83.7016 75.6036 84.1857V92.7244H75.3545L68.6382 84.1857V90.7051C68.6382 91.295 68.7676 91.6933 69.0264 91.9C69.2901 92.1068 69.5904 92.2101 69.9273 92.2101H70.1617V92.49H66.6387V92.2101C67.1856 92.2051 67.5665 92.0891 67.7813 91.8622C67.9961 91.6353 68.1036 91.2496 68.1036 90.7051V83.4672L67.8912 83.1949C67.6812 82.9226 67.4957 82.7437 67.3345 82.658C67.1734 82.5723 66.9415 82.5244 66.6387 82.5142V82.2344H70.1617ZM81.3531 82.8243V86.9992H81.5508C82.1807 86.9992 82.6373 86.7949 82.9205 86.3865C83.2037 85.9781 83.3843 85.3756 83.4624 84.5789H83.7408V89.9487H83.4624C83.4039 89.3638 83.2793 88.8849 83.0889 88.5117C82.9034 88.1387 82.6861 87.8891 82.4371 87.763C82.188 87.632 81.8267 87.5664 81.3531 87.5664V90.4555C81.3531 91.0202 81.375 91.3656 81.419 91.4916C81.4678 91.6177 81.5557 91.7211 81.6827 91.8017C81.8096 91.8824 82.0147 91.9228 82.2979 91.9228H82.8912C83.8189 91.9228 84.5611 91.7008 85.1177 91.2571C85.6792 90.8134 86.0821 90.1378 86.3262 89.2302H86.5972L86.1504 92.49H77.5665V92.2101H77.896C78.1841 92.2101 78.4161 92.1572 78.5918 92.0513C78.7188 91.9807 78.8165 91.8597 78.8848 91.6882C78.9385 91.5672 78.9654 91.2496 78.9654 90.7354V83.9891C78.9654 83.5252 78.9532 83.2404 78.9288 83.1344C78.8799 82.958 78.7896 82.8219 78.6578 82.726C78.4722 82.5849 78.2183 82.5142 77.896 82.5142H77.5665V82.2344H85.8794V85.2673H85.6011C85.4595 84.5261 85.2593 83.9941 85.0005 83.6714C84.7466 83.3487 84.3853 83.1117 83.9165 82.9605C83.6431 82.8698 83.1304 82.8243 82.3785 82.8243H81.3531ZM96.7339 82.2344V85.0101H96.4703C96.314 84.3697 96.1407 83.9109 95.9502 83.6336C95.7598 83.3513 95.4986 83.1269 95.1665 82.9605C94.981 82.8698 94.6563 82.8243 94.1924 82.8243H93.4527V90.7354C93.4527 91.2597 93.4795 91.5875 93.5332 91.7185C93.5918 91.8496 93.7017 91.9656 93.8628 92.0664C94.0289 92.1622 94.2535 92.2101 94.5367 92.2101H94.8663V92.49H89.6661V92.2101H89.9957C90.2837 92.2101 90.5157 92.1572 90.6915 92.0513C90.8184 91.9807 90.9185 91.8597 90.9917 91.6882C91.0455 91.5672 91.0723 91.2496 91.0723 90.7354V82.8243H90.3545C89.6856 82.8243 89.1998 82.9706 88.897 83.263C88.4722 83.6714 88.2037 84.2538 88.0914 85.0101H87.813V82.2344H96.7339ZM106.739 82.2344V85.0101H106.475C106.319 84.3697 106.145 83.9109 105.955 83.6336C105.764 83.3513 105.504 83.1269 105.171 82.9605C104.986 82.8698 104.661 82.8243 104.197 82.8243H103.458V90.7354C103.458 91.2597 103.484 91.5875 103.538 91.7185C103.597 91.8496 103.707 91.9656 103.868 92.0664C104.034 92.1622 104.258 92.2101 104.541 92.2101H104.871V92.49H99.6709V92.2101H100C100.289 92.2101 100.521 92.1572 100.696 92.0513C100.823 91.9807 100.923 91.8597 100.997 91.6882C101.05 91.5672 101.077 91.2496 101.077 90.7354V82.8243H100.359C99.6905 82.8243 99.2046 82.9706 98.9019 83.263C98.4771 83.6714 98.2085 84.2538 98.0962 85.0101H97.8179V82.2344H106.739ZM111.367 82.8243V86.9992H111.565C112.195 86.9992 112.652 86.7949 112.935 86.3865C113.218 85.9781 113.399 85.3756 113.477 84.5789H113.755V89.9487H113.477C113.418 89.3638 113.294 88.8849 113.103 88.5117C112.918 88.1387 112.7 87.8891 112.451 87.763C112.202 87.632 111.841 87.5664 111.367 87.5664V90.4555C111.367 91.0202 111.389 91.3656 111.433 91.4916C111.482 91.6177 111.57 91.7211 111.697 91.8017C111.824 91.8824 112.029 91.9228 112.312 91.9228H112.906C113.833 91.9228 114.575 91.7008 115.132 91.2571C115.694 90.8134 116.096 90.1378 116.341 89.2302H116.612L116.165 92.49H107.581V92.2101H107.91C108.198 92.2101 108.43 92.1572 108.606 92.0513C108.733 91.9807 108.831 91.8597 108.899 91.6882C108.953 91.5672 108.98 91.2496 108.98 90.7354V83.9891C108.98 83.5252 108.968 83.2404 108.943 83.1344C108.894 82.958 108.804 82.8219 108.672 82.726C108.487 82.5849 108.233 82.5142 107.91 82.5142H107.581V82.2344H115.894V85.2673H115.615C115.474 84.5261 115.274 83.9941 115.015 83.6714C114.761 83.3487 114.4 83.1117 113.931 82.9605C113.657 82.8698 113.145 82.8243 112.393 82.8243H111.367ZM126.748 82.2344V85.0101H126.485C126.328 84.3697 126.155 83.9109 125.965 83.6336C125.774 83.3513 125.513 83.1269 125.181 82.9605C124.995 82.8698 124.671 82.8243 124.207 82.8243H123.467V90.7354C123.467 91.2597 123.494 91.5875 123.548 91.7185C123.606 91.8496 123.716 91.9656 123.877 92.0664C124.043 92.1622 124.268 92.2101 124.551 92.2101H124.881V92.49H119.68V92.2101H120.01C120.298 92.2101 120.53 92.1572 120.706 92.0513C120.833 91.9807 120.933 91.8597 121.006 91.6882C121.06 91.5672 121.087 91.2496 121.087 90.7354V82.8243H120.369C119.7 82.8243 119.214 82.9706 118.911 83.263C118.487 83.6714 118.218 84.2538 118.106 85.0101H117.827V82.2344H126.748ZM132.417 89.5706H128.909L128.491 90.5689C128.355 90.9017 128.286 91.1765 128.286 91.3933C128.286 91.6807 128.399 91.8925 128.623 92.0286C128.755 92.1092 129.08 92.1698 129.597 92.2101V92.49H126.294V92.2101C126.651 92.1547 126.944 92.0034 127.173 91.7563C127.403 91.5042 127.686 90.9874 128.023 90.2059L131.575 82.0227H131.714L135.296 90.4328C135.637 91.2295 135.918 91.7311 136.138 91.9378C136.304 92.0942 136.538 92.1849 136.841 92.2101V92.49H132.036V92.2101H132.234C132.62 92.2101 132.891 92.1547 133.047 92.0438C133.155 91.963 133.208 91.8471 133.208 91.6958C133.208 91.605 133.194 91.5118 133.164 91.416C133.155 91.3706 133.081 91.1815 132.945 90.8487L132.417 89.5706ZM132.168 89.0109L130.689 85.479L129.165 89.0109H132.168ZM146.487 88.89L146.114 92.49H137.295V92.2101H137.625C137.913 92.2101 138.145 92.1572 138.321 92.0513C138.448 91.9807 138.545 91.8597 138.614 91.6882C138.667 91.5672 138.694 91.2496 138.694 90.7354V83.9891C138.694 83.4647 138.667 83.137 138.614 83.0059C138.56 82.8748 138.45 82.7613 138.284 82.6655C138.123 82.5647 137.903 82.5142 137.625 82.5142H137.295V82.2344H142.591V82.5142H142.158C141.87 82.5142 141.638 82.5672 141.463 82.6731C141.336 82.7437 141.236 82.8647 141.162 83.0361C141.109 83.1571 141.082 83.4748 141.082 83.9891V90.5236C141.082 91.0479 141.111 91.3832 141.17 91.5294C141.228 91.6706 141.343 91.7765 141.514 91.8471C141.636 91.8925 141.931 91.9151 142.4 91.9151H143.228C143.755 91.9151 144.195 91.8194 144.546 91.6277C144.898 91.4362 145.2 91.1336 145.454 90.7202C145.713 90.3067 145.957 89.6967 146.187 88.89H146.487ZM159.407 88.89L159.033 92.49H150.215V92.2101H150.545C150.833 92.2101 151.065 92.1572 151.24 92.0513C151.367 91.9807 151.465 91.8597 151.533 91.6882C151.587 91.5672 151.614 91.2496 151.614 90.7354V83.9891C151.614 83.4647 151.587 83.137 151.533 83.0059C151.48 82.8748 151.37 82.7613 151.204 82.6655C151.043 82.5647 150.823 82.5142 150.545 82.5142H150.215V82.2344H155.51V82.5142H155.078C154.79 82.5142 154.558 82.5672 154.383 82.6731C154.256 82.7437 154.156 82.8647 154.082 83.0361C154.029 83.1571 154.002 83.4748 154.002 83.9891V90.5236C154.002 91.0479 154.031 91.3832 154.09 91.5294C154.148 91.6706 154.263 91.7765 154.434 91.8471C154.556 91.8925 154.851 91.9151 155.32 91.9151H156.148C156.675 91.9151 157.114 91.8194 157.466 91.6277C157.818 91.4362 158.12 91.1336 158.374 90.7202C158.633 90.3067 158.877 89.6967 159.107 88.89H159.407ZM160.293 82.2344H165.42V82.5142H165.164C164.778 82.5142 164.512 82.5571 164.365 82.6428C164.224 82.7236 164.121 82.8369 164.058 82.9831C163.999 83.1294 163.97 83.4949 163.97 84.0798V89.1017C163.97 90.0193 164.036 90.6269 164.168 90.9244C164.304 91.2219 164.527 91.4689 164.834 91.6655C165.142 91.8622 165.53 91.9605 165.999 91.9605C166.536 91.9605 166.992 91.837 167.368 91.5899C167.749 91.3379 168.032 90.9925 168.218 90.5538C168.408 90.1152 168.504 89.3513 168.504 88.2622V84.0798C168.504 83.621 168.457 83.2932 168.364 83.0966C168.272 82.9 168.155 82.7638 168.013 82.6882C167.793 82.5723 167.483 82.5142 167.083 82.5142V82.2344H170.518V82.5142H170.313C170.034 82.5142 169.802 82.5723 169.617 82.6882C169.431 82.8042 169.297 82.9782 169.214 83.2101C169.151 83.3714 169.119 83.6614 169.119 84.0798V87.9748C169.119 89.1798 169.041 90.0496 168.885 90.5841C168.733 91.1186 168.36 91.6101 167.764 92.0589C167.168 92.5076 166.355 92.732 165.325 92.732C164.466 92.732 163.802 92.6135 163.333 92.3765C162.693 92.0538 162.241 91.6403 161.978 91.1361C161.714 90.632 161.582 89.9538 161.582 89.1017V84.0798C161.582 83.49 161.551 83.1244 161.487 82.9831C161.424 82.8369 161.314 82.721 161.157 82.6353C161.001 82.5496 160.713 82.5093 160.293 82.5142V82.2344ZM177.117 86.4773L179.856 90.6748C180.31 91.3706 180.633 91.7942 180.823 91.9454C181.018 92.0916 181.248 92.1799 181.511 92.2101V92.49H176.67V92.2101C177.056 92.1799 177.305 92.1194 177.417 92.0286C177.53 91.9378 177.586 91.8269 177.586 91.6958C177.586 91.605 177.569 91.5244 177.534 91.4538C177.466 91.3026 177.295 91.0201 177.022 90.6067L175.572 88.3908L174.055 90.3042C173.601 90.8841 173.374 91.2774 173.374 91.4841C173.374 91.6303 173.433 91.7664 173.55 91.8925C173.667 92.0185 173.841 92.1092 174.07 92.1647C174.173 92.195 174.383 92.2101 174.7 92.2101V92.49H170.884V92.2101C171.319 92.1446 171.66 92.0235 171.909 91.8471C172.237 91.6151 172.693 91.1312 173.279 90.395L175.249 87.9143L172.722 84.0798C172.307 83.4496 172.071 83.0991 172.012 83.0286C171.88 82.8621 171.751 82.7437 171.624 82.6731C171.497 82.6025 171.321 82.5496 171.096 82.5142V82.2344H176.026V82.5142H175.777C175.493 82.5142 175.296 82.5622 175.183 82.658C175.071 82.7488 175.015 82.8647 175.015 83.0059C175.015 83.1168 175.032 83.2126 175.066 83.2932L175.572 84.0798L176.802 86.0159L177.849 84.6924C178.386 84.0117 178.655 83.5353 178.655 83.263C178.655 83.1269 178.616 83.0008 178.538 82.8848C178.465 82.7689 178.357 82.6781 178.216 82.6127C178.074 82.5471 177.854 82.5142 177.556 82.5142V82.2344H181.211V82.5142C180.923 82.5193 180.691 82.5571 180.515 82.6277C180.34 82.6933 180.152 82.8193 179.951 83.0059C179.824 83.1269 179.507 83.5026 178.999 84.1328L177.117 86.4773ZM181.973 82.2344H187.1V82.5142H186.843C186.458 82.5142 186.192 82.5571 186.045 82.6428C185.904 82.7236 185.801 82.8369 185.738 82.9831C185.679 83.1294 185.65 83.4949 185.65 84.0798V89.1017C185.65 90.0193 185.716 90.6269 185.847 90.9244C185.984 91.2219 186.206 91.4689 186.514 91.6655C186.822 91.8622 187.21 91.9605 187.678 91.9605C188.216 91.9605 188.672 91.837 189.048 91.5899C189.429 91.3379 189.712 90.9925 189.898 90.5538C190.088 90.1152 190.183 89.3513 190.183 88.2622V84.0798C190.183 83.621 190.137 83.2932 190.044 83.0966C189.951 82.9 189.834 82.7638 189.693 82.6882C189.473 82.5723 189.163 82.5142 188.762 82.5142V82.2344H192.198V82.5142H191.992C191.714 82.5142 191.482 82.5723 191.297 82.6882C191.111 82.8042 190.977 82.9782 190.894 83.2101C190.83 83.3714 190.799 83.6614 190.799 84.0798V87.9748C190.799 89.1798 190.72 90.0496 190.564 90.5841C190.413 91.1186 190.039 91.6101 189.444 92.0589C188.848 92.5076 188.035 92.732 187.005 92.732C186.145 92.732 185.481 92.6135 185.012 92.3765C184.373 92.0538 183.921 91.6403 183.657 91.1361C183.394 90.632 183.262 89.9538 183.262 89.1017V84.0798C183.262 83.49 183.23 83.1244 183.167 82.9831C183.103 82.8369 182.993 82.721 182.837 82.6353C182.681 82.5496 182.393 82.5093 181.973 82.5142V82.2344ZM196.446 87.816V90.6899C196.446 91.2445 196.477 91.595 196.541 91.7412C196.609 91.8824 196.726 91.9959 196.892 92.0816C197.058 92.1673 197.368 92.2101 197.822 92.2101V92.49H192.739V92.2101C193.198 92.2101 193.509 92.1673 193.67 92.0816C193.836 91.9908 193.95 91.8748 194.014 91.7337C194.082 91.5924 194.116 91.2445 194.116 90.6899V84.0345C194.116 83.4798 194.082 83.1319 194.014 82.9908C193.95 82.8446 193.836 82.7286 193.67 82.6428C193.504 82.5571 193.194 82.5142 192.739 82.5142V82.2344H197.354C198.555 82.2344 199.434 82.3201 199.99 82.4916C200.547 82.663 201.001 82.9807 201.353 83.4445C201.704 83.9034 201.88 84.4428 201.88 85.063C201.88 85.8193 201.616 86.4446 201.089 86.9387C200.752 87.2512 200.281 87.4857 199.676 87.6421L202.063 91.1135C202.376 91.5622 202.598 91.842 202.73 91.953C202.93 92.1092 203.162 92.1949 203.426 92.2101V92.49H200.298L197.097 87.816H196.446ZM196.446 82.7865V87.279H196.863C197.542 87.279 198.05 87.216 198.386 87.0899C198.723 86.9588 198.987 86.7269 199.177 86.3942C199.373 86.0563 199.47 85.6176 199.47 85.0781C199.47 84.2966 199.292 83.7193 198.936 83.3462C198.584 82.9731 198.015 82.7865 197.229 82.7865H196.446ZM213.438 82.2344V82.5142C213.111 82.5597 212.859 82.658 212.683 82.8093C212.439 83.0211 212.053 83.5983 211.526 84.5412L209.373 88.2546V90.7354C209.373 91.2648 209.4 91.595 209.453 91.726C209.507 91.8521 209.612 91.9656 209.768 92.0664C209.929 92.1622 210.142 92.2101 210.406 92.2101H210.962V92.49H205.388V92.2101H205.908C206.201 92.2101 206.433 92.1572 206.604 92.0513C206.731 91.9807 206.831 91.8597 206.905 91.6882C206.958 91.5672 206.985 91.2496 206.985 90.7354V88.6782L204.649 84.284C204.185 83.4168 203.858 82.9076 203.667 82.7563C203.477 82.6 203.223 82.5193 202.906 82.5142V82.2344H207.666V82.5142H207.454C207.166 82.5142 206.963 82.5571 206.846 82.6428C206.734 82.7286 206.677 82.8193 206.677 82.9151C206.677 83.0966 206.873 83.5529 207.263 84.284L209.058 87.6799L210.845 84.5866C211.289 83.8302 211.511 83.3286 211.511 83.0816C211.511 82.9454 211.448 82.832 211.321 82.7412C211.155 82.6151 210.85 82.5394 210.406 82.5142V82.2344H213.438Z" fill="white"/>
<path d="M14.8906 59.5847C15.2422 59.5847 15.5742 59.3428 15.6523 58.9797L22.0781 34.2737C22.1953 34.2737 22.3125 34.2536 22.4297 34.2132C23.6797 33.6485 24.9297 33.0838 26.1797 32.4787C26.3164 32.4385 26.4336 32.378 26.5703 32.3174C27.9766 31.7326 29.4219 31.2082 30.8672 30.7241C33.7578 29.7762 36.7266 28.9897 39.7148 28.4653C42.0391 28.0821 44.3633 27.84 46.707 27.84C47.4102 27.84 48.0938 27.8603 48.7969 27.9006C50.3008 28.0216 51.8047 28.2636 53.2695 28.6871C54.7148 29.1107 56.1016 29.7157 57.3516 30.5225C57.7422 30.7846 58.0938 31.0468 58.4258 31.3291C56.4727 31.6721 54.5391 32.0754 52.625 32.5191C46.668 33.951 40.8086 35.9477 35.3203 38.8318C32.6055 40.2838 29.9688 41.9578 27.5664 43.9746C26.375 44.983 25.2422 46.0922 24.2656 47.3427C23.7773 47.9881 23.3086 48.6536 22.9375 49.3797C22.5859 50.1057 22.293 50.9125 22.1953 51.7796L22.1758 52.1226C22.1758 52.4453 22.2148 52.7881 22.293 53.1108C22.4102 53.5545 22.6055 53.978 22.8789 54.341C23.4062 55.0873 24.1875 55.5511 24.9492 55.8536C25.7109 56.136 26.5117 56.2973 27.293 56.3982C27.8984 56.4587 28.5234 56.4788 29.1094 56.4788H29.6562C32.7812 56.3982 35.8672 55.7931 38.8359 54.8855C40.3398 54.4419 41.7852 53.8973 43.2305 53.3124C44.6758 52.7074 46.082 52.0418 47.4492 51.2957C50.2031 49.8234 52.8398 48.0889 55.2617 46.0317C56.4531 44.983 57.6055 43.8738 58.6406 42.6233C59.6562 41.3729 60.5742 40.0015 61.1797 38.388C61.4727 37.6015 61.668 36.7545 61.707 35.867V35.5645C61.707 34.7779 61.5703 33.9914 61.2578 33.2653C60.9648 32.5594 60.5547 31.9544 60.0664 31.43L61.707 31.188C64.7344 30.7846 67.7617 30.5023 70.8086 30.3409C70.9258 30.3409 70.9844 30.2401 70.9844 30.1393C70.9844 30.0384 70.9062 29.9577 70.7891 29.9577C67.0977 30.1594 63.4062 30.5426 59.7539 31.1275C59.1484 30.5628 58.4844 30.0989 57.8008 29.7359C56.4141 28.9695 54.9297 28.4452 53.4062 28.0821C51.9023 27.7393 50.3594 27.5376 48.8359 27.4568C48.1328 27.4166 47.4297 27.3963 46.7266 27.3963C44.3438 27.3963 41.9805 27.6182 39.6367 27.9611C37.1953 28.3241 34.7734 28.8485 32.3906 29.4535C34.0117 28.6267 35.6133 27.7795 37.2148 26.9124C39.6367 25.6015 42.0195 24.2299 44.3828 22.7578C45.5547 22.0316 46.707 21.2653 47.8594 20.4585C48.9922 19.6518 50.1055 18.8047 51.1797 17.877C51.707 17.393 52.2344 16.909 52.7422 16.3645C53.2305 15.8199 53.6992 15.2149 54.0703 14.4887C54.2656 14.1056 54.4219 13.6821 54.4805 13.1778V12.9762C54.4805 12.7946 54.4609 12.6131 54.4414 12.4114C54.3828 12.1493 54.2852 11.8871 54.1484 11.6653C53.875 11.2216 53.5234 10.8989 53.1523 10.677C52.8008 10.4552 52.4492 10.2938 52.0781 10.1526C51.3555 9.91062 50.6523 9.76944 49.9492 9.66859C49.2461 9.56775 48.543 9.50725 47.8594 9.46691C46.9219 9.40641 46.0039 9.40641 45.1055 9.40641H43.7188C38.5039 9.48708 33.3086 9.95095 28.1719 10.7778L28.8555 8.11565C28.875 8.05514 28.875 7.97448 28.875 7.91396C28.875 7.55094 28.6602 7.22825 28.3086 7.12741C28.2305 7.10724 28.1719 7.10724 28.0938 7.10724C27.7422 7.10724 27.4297 7.34926 27.332 7.71229L26.4531 11.0804C24.0703 11.4837 21.707 11.988 19.3633 12.593C16.707 13.2787 14.0703 14.0854 11.5312 15.1341C10.8867 15.3964 10.2617 15.6787 9.63672 16.0014C9.03125 16.3241 8.42578 16.6669 7.85938 17.1308C7.58594 17.3728 7.3125 17.6148 7.11719 17.998C7.03906 18.1392 7 18.3006 7 18.482L7.01953 18.6838C7.07813 18.9257 7.23438 19.1073 7.39062 19.2283C7.72266 19.4905 8.05469 19.5914 8.40625 19.6921C9.03125 19.8737 9.28516 19.8938 9.94922 19.9746C10.1055 19.9947 10.2617 20.035 10.418 20.0753C10.7305 20.1359 11.043 20.2569 11.3164 20.4182C11.9023 20.7207 12.4102 21.1644 12.8203 21.6888C13.6797 22.7375 14.2266 24.0283 14.6367 25.3393C15.0664 26.6502 15.3398 28.0216 15.5352 29.4132C15.75 30.7846 15.8867 32.1763 15.9648 33.5678C16.043 34.9796 16.082 36.3713 16.082 37.7829V38.5091C16.082 39.6586 16.043 40.8082 15.9844 41.9779C15.8672 44.7813 15.6328 47.5645 15.3398 50.3477C15.0078 53.1309 14.6367 55.9141 14.1094 58.657V58.778C14.1094 59.141 14.3437 59.4637 14.6953 59.5646C14.7539 59.5847 14.832 59.5847 14.8906 59.5847ZM16.3555 50.025C16.5117 47.3427 16.6094 44.6805 16.6484 41.9982V40.4452C16.6484 38.146 16.6094 35.8468 16.4336 33.5477C16.2187 30.7241 15.8867 27.9006 15.0469 25.198C14.6172 23.8468 14.0508 22.5157 13.1719 21.3862C12.7227 20.8216 12.1758 20.3375 11.5312 19.9947C11.2188 19.8333 10.8672 19.6921 10.5352 19.6115C10.0078 19.4905 9.98828 19.5106 9.5 19.4501C9.16797 19.3896 8.83594 19.3292 8.52344 19.2283C8.21094 19.1477 7.91797 19.0266 7.68359 18.8451C7.54688 18.7241 7.48828 18.6233 7.48828 18.482C7.48828 18.4014 7.50781 18.3207 7.54688 18.2199C7.68359 17.9779 7.91797 17.7359 8.17188 17.5342C8.67969 17.1308 9.28516 16.8081 9.87109 16.5056C10.4766 16.2031 11.1016 15.9208 11.7266 15.6787C12.9961 15.1745 14.2852 14.751 15.5938 14.3678C16.8828 13.9846 18.2109 13.6417 19.5195 13.3392C21.7266 12.835 23.9727 12.4114 26.1992 12.0686L16.3555 50.025ZM22.5859 32.3376L27.8984 11.8064C32.7422 11.1409 37.6055 10.8182 42.4688 10.8182H43.7188C45.0664 10.8384 46.4336 10.8787 47.7617 10.9594C48.4258 11.0199 49.0898 11.0804 49.7148 11.2014C50.3594 11.3022 50.9844 11.4434 51.5508 11.6653C51.8438 11.766 52.0977 11.9072 52.332 12.0485C52.5469 12.1896 52.7031 12.3509 52.7812 12.5123C52.8398 12.593 52.8594 12.6535 52.8789 12.7341V13.0165C52.8594 13.2182 52.7617 13.4603 52.6445 13.7022C52.3906 14.2064 51.9805 14.7106 51.5312 15.1946C51.1016 15.6586 50.6133 16.1023 50.1055 16.5459C48.0547 18.2602 45.7695 19.7728 43.4648 21.2048C41.1406 22.6165 38.7773 23.9678 36.375 25.2788C33.9922 26.5897 31.5703 27.8603 29.1289 29.0905C26.9609 30.1998 24.7734 31.2686 22.5859 32.3376ZM28.4062 55.3292C28.0742 55.3292 27.7422 55.3091 27.4102 55.289C26.668 55.2284 25.9648 55.1074 25.2812 54.8654C24.6367 54.6233 24.0117 54.2604 23.6211 53.7562C23.25 53.2721 23.0742 52.6872 23.0742 52.0418V51.8604C23.1328 51.1545 23.3672 50.4486 23.6797 49.7629C24.0117 49.0973 24.4219 48.452 24.8711 47.8468C25.7695 46.6166 26.8633 45.5275 28.0156 44.5192C30.3203 42.5024 32.8984 40.8082 35.5938 39.3561C38.2695 37.8838 41.082 36.6536 43.9531 35.5846C46.8047 34.5158 49.7539 33.6283 52.7031 32.9224C54.7148 32.4182 56.7266 32.0149 58.7578 31.6518C58.8555 31.7527 58.9531 31.8334 59.0312 31.9342C59.5195 32.4586 59.8906 33.0636 60.1055 33.7292C60.2617 34.2132 60.3594 34.7174 60.3594 35.2418L60.3203 35.7661C60.2422 36.4519 60.0469 37.1376 59.7734 37.8032C59.207 39.1342 58.3281 40.3645 57.3711 41.5141C56.4141 42.6637 55.3398 43.7124 54.1875 44.7007C53.0547 45.6889 51.8438 46.5965 50.5742 47.4636C49.3242 48.3108 48.0352 49.1175 46.707 49.8435C44.0703 51.2957 41.2969 52.546 38.4258 53.5141C35.5742 54.462 32.6055 55.1276 29.6172 55.289C29.207 55.3091 28.7969 55.3292 28.4062 55.3292ZM71.8438 25.783L72.0195 25.7628C72.1367 25.7426 72.2344 25.7022 72.3516 25.662L72.6055 25.4804C72.8984 25.2183 73.0547 24.9358 73.1328 24.593L73.1523 24.4922C73.1523 24.4317 73.1328 24.3913 73.0938 24.3308C73.0352 24.2502 72.957 24.1897 72.8594 24.1897C72.7617 24.1897 72.7227 24.2299 72.625 24.2905C72.4297 24.4115 72.2148 24.5526 72.0781 24.593H71.9805L71.9219 24.5729L71.9023 24.5325H71.8828L71.6875 24.2299L71.6289 24.0888C71.5898 23.988 71.5312 23.9073 71.4922 23.7863L71.3555 23.4031C71.3359 23.4031 71.3359 23.3829 71.3359 23.3628C71.1992 23.0804 70.9258 22.919 70.6328 22.919C70.5156 22.919 70.3789 22.9594 70.2617 23.0199C69.9883 23.1611 69.832 23.4636 69.832 23.7661C69.832 23.8871 69.8516 24.0081 69.9102 24.1292L70.1445 24.5325C70.2227 24.6737 70.3203 24.8148 70.418 24.9358C70.457 25.0166 70.5352 25.0771 70.5938 25.1376L70.7695 25.3393C70.9453 25.4602 71.082 25.5812 71.3164 25.6821L71.4727 25.7426L71.8438 25.783ZM71.4141 43.7931C72.1953 43.7931 72.918 43.5712 73.543 43.2687C74.207 42.9662 74.793 42.5426 75.3594 42.0989C75.9062 41.6552 76.4141 41.1712 76.9023 40.667C77.8789 39.6384 78.7383 38.5696 79.5586 37.4401C81.1797 35.1813 82.6055 32.8217 83.8945 30.3409C83.9336 30.2804 83.9531 30.1998 83.9531 30.1393C83.9531 29.9981 83.875 29.8569 83.7383 29.7762C83.6797 29.7359 83.6211 29.7157 83.543 29.7157C83.4062 29.7157 83.2695 29.7964 83.1914 29.9376H83.1719C81.8633 32.3174 80.3789 34.6368 78.7578 36.7947C77.9375 37.8838 77.0586 38.9124 76.1211 39.8401C75.6523 40.3242 75.1641 40.7477 74.6562 41.1511C74.1484 41.5544 73.6016 41.8973 73.0547 42.1393C72.5664 42.3814 72.0586 42.5024 71.5703 42.5024H71.375C70.8281 42.462 70.3984 42.2401 70.1055 41.8368C69.793 41.4334 69.6367 40.8284 69.5391 40.2233C69.5 39.8603 69.4805 39.4771 69.4805 39.0939L69.5 38.2872C69.5781 36.9763 69.8125 35.625 70.125 34.3141C70.418 33.0031 70.8086 31.6721 71.2383 30.4216V30.3813C71.2773 30.3007 71.2773 30.1998 71.2773 30.1191C71.2773 29.7762 71.082 29.4737 70.7305 29.3527C70.6523 29.3325 70.5742 29.3123 70.4766 29.3123C70.1641 29.3123 69.8516 29.514 69.7344 29.8771C69.3047 31.2283 68.9531 32.5796 68.6602 33.9712C68.3672 35.3628 68.1523 36.7746 68.0938 38.2266V38.6906C68.0938 39.2755 68.1328 39.8401 68.2109 40.4452C68.3281 41.1712 68.5625 41.9779 69.0898 42.6637C69.3438 43.0065 69.6953 43.309 70.0859 43.4906C70.4961 43.6721 70.9062 43.7729 71.2969 43.7931H71.4141ZM111.922 59.5847C112.273 59.5847 112.605 59.3428 112.684 58.9797L120.672 28.2435C121.746 28.3241 122.801 28.3846 123.875 28.4452C125.164 28.5258 126.453 28.5863 127.762 28.6468C130.34 28.7476 132.938 28.788 135.535 28.788C138.113 28.7476 140.711 28.6267 143.309 28.4452C145.906 28.183 148.484 27.84 151.062 27.3157H151.102C151.453 27.2149 151.688 26.8922 151.688 26.5292C151.688 26.4485 151.688 26.388 151.668 26.3073C151.59 25.9443 151.258 25.7022 150.887 25.7022L150.691 25.7225C148.25 26.388 145.73 26.8317 143.191 27.1342C141.902 27.2552 140.633 27.3963 139.363 27.4568C137.469 27.5779 137.508 27.5577 135.516 27.5981L133.973 27.6182C131.922 27.6182 129.871 27.5376 127.82 27.4166C125.555 27.2552 123.289 27.0334 121.062 26.7107L124.676 12.835C128.973 13.0165 133.27 13.1173 137.586 13.1376C139.852 13.1376 142.098 13.1376 144.363 13.077C146.629 13.0165 148.895 12.9358 151.141 12.8149C155.672 12.5526 160.184 12.109 164.695 11.3828L164.715 11.3627C165.086 11.2821 165.359 10.9392 165.359 10.556L165.34 10.4148C165.262 10.0316 164.93 9.74927 164.559 9.74927L164.402 9.76944C160.027 10.6972 155.555 11.2618 151.062 11.6653C148.836 11.8669 146.59 12.0282 144.324 12.1291C142.078 12.2501 139.832 12.3106 137.586 12.3509C136.023 12.3712 134.461 12.3913 132.898 12.3913C130.203 12.3913 127.508 12.3509 124.812 12.2904L125.887 8.11565C125.906 8.05514 125.906 7.97448 125.906 7.91396C125.906 7.55094 125.691 7.22825 125.34 7.12741C125.262 7.10724 125.203 7.10724 125.125 7.10724C124.773 7.10724 124.461 7.34926 124.363 7.71229L123.191 12.2501C118.953 12.1291 114.734 11.9274 110.516 11.8266C109.812 11.8064 109.109 11.7863 108.406 11.7863L107.117 11.8064C106.844 11.8064 106.551 11.8266 106.258 11.8468C105.984 11.8871 105.691 11.9072 105.398 12.0081C105.32 12.0485 105.242 12.0686 105.145 12.1493C105.106 12.1896 105.066 12.2703 105.047 12.3712C105.047 12.4518 105.086 12.5123 105.105 12.5728C105.223 12.7544 105.359 12.8149 105.496 12.8955C105.75 13.0568 106.004 13.1778 106.277 13.2787C106.531 13.3997 106.805 13.5005 107.059 13.6014C107.332 13.7022 107.605 13.7829 107.84 13.9039C108.348 14.1459 108.816 14.4485 109.246 14.8115C110.105 15.5375 110.77 16.4652 111.316 17.4737C111.863 18.482 112.273 19.551 112.605 20.6602C112.938 21.7694 113.191 22.8989 113.387 24.0485C113.797 26.3275 113.973 28.6468 114.051 30.9662C114.07 31.8132 114.09 32.6804 114.09 33.5276C114.09 37.3393 113.816 41.1309 113.426 44.9024C113.289 46.052 113.152 47.2015 112.996 48.3511C112.84 49.5007 112.664 50.6503 112.469 51.7999C112.098 54.0788 111.668 56.3781 111.16 58.6166L111.141 58.7982C111.141 59.141 111.375 59.4637 111.727 59.5646C111.785 59.5847 111.863 59.5847 111.922 59.5847ZM113.836 48.2503C113.934 47.1612 114.012 46.052 114.09 44.9629C114.305 41.6552 114.461 38.3275 114.461 35.02C114.461 33.6485 114.441 32.2972 114.383 30.946C114.285 28.6267 114.07 26.2871 113.68 23.988C113.465 22.8384 113.211 21.6888 112.879 20.5796C112.547 19.4501 112.137 18.3409 111.59 17.3123C111.023 16.2837 110.34 15.3156 109.441 14.5492C108.992 14.1863 108.504 13.8636 107.977 13.6014C107.723 13.4804 107.43 13.3795 107.176 13.2787L106.395 12.9762L105.652 12.6131C105.555 12.5325 105.437 12.4518 105.398 12.3913L105.496 12.3308C105.731 12.2501 106.023 12.23 106.297 12.2098C106.57 12.1695 106.844 12.1695 107.137 12.1695L108.113 12.1493C108.914 12.1493 109.715 12.1896 110.496 12.2098C116.414 12.4114 116.57 12.4719 123.055 12.7745L119.383 26.9325C119.305 27.0334 119.266 27.1745 119.246 27.2956V27.3963L113.836 48.2503ZM158.465 37.5208L159.031 37.5006C159.461 37.4602 159.91 37.3796 160.32 37.2788C161.18 37.077 161.98 36.7947 162.781 36.472C163.562 36.1695 164.344 35.8065 165.105 35.4435C166.629 34.7174 168.113 33.8704 169.559 33.0031C171.004 32.1158 172.43 31.188 173.836 30.2199L173.875 30.1998C173.973 30.1191 174.031 29.9981 174.031 29.8569C174.031 29.7561 174.012 29.6553 173.934 29.5745C173.855 29.4737 173.738 29.4132 173.602 29.4132C173.523 29.4132 173.426 29.4535 173.328 29.514C170.75 31.6518 167.801 33.3258 164.773 34.6973C163.27 35.3628 161.707 35.9477 160.125 36.2704C159.656 36.3713 159.148 36.4317 158.68 36.4317C158.387 36.4317 158.113 36.4115 157.84 36.351C157.176 36.1897 156.902 35.8267 156.902 35.1611V35.0805C156.922 34.7376 157 34.3544 157.117 33.9712C157.293 33.4468 157.293 33.4468 157.547 32.8418C157.801 32.2166 158.094 31.6115 158.426 31.0267H158.738C159.207 31.0064 159.676 30.9258 160.125 30.8048C161.004 30.5628 161.805 30.1191 162.488 29.5544C162.664 29.393 162.84 29.2721 162.996 29.1107C163.484 28.6267 163.504 28.6468 163.875 28.062C163.992 27.8603 164.129 27.6384 164.188 27.3359C164.207 27.2754 164.207 27.1947 164.207 27.114C164.207 27.0334 164.188 26.9527 164.168 26.8518C164.148 26.7712 164.09 26.6906 164.051 26.6098C164.012 26.509 163.934 26.4686 163.855 26.4081C163.582 26.1863 163.289 26.1661 163.035 26.1661C162.547 26.1661 162.098 26.3073 161.688 26.4888C160.848 26.8518 160.125 27.3762 159.461 27.9813C158.953 28.4452 158.504 28.9695 158.094 29.5343L158.055 29.514C157.996 29.4737 157.898 29.4334 157.879 29.393C157.762 29.151 157.547 28.9695 157.293 28.8889L157.059 28.8485C156.629 28.8485 156.238 29.151 156.141 29.5745L156.121 29.8367C156.121 30.5225 156.551 30.6838 157.215 30.8855C156.746 31.7326 156.609 32.0754 156.238 32.983C156.16 33.1846 156.082 33.4065 156.023 33.6283C155.887 34.072 155.77 34.5359 155.77 35.0603V35.2014C155.77 35.4032 155.809 35.625 155.848 35.8468C155.926 36.1292 156.043 36.4115 156.219 36.6536C156.414 36.8754 156.648 37.077 156.883 37.1981C157.137 37.3191 157.391 37.3998 157.625 37.4602C157.918 37.5006 158.191 37.5208 158.465 37.5208ZM159.559 29.8771C159.441 29.8771 159.305 29.8771 159.188 29.8569C159.461 29.4535 159.773 29.0502 160.125 28.6871C160.691 28.1225 161.316 27.5981 162 27.2552C162.352 27.0738 162.723 26.9527 163.055 26.9325C163.211 26.9325 163.367 26.9527 163.426 27.0132C163.445 27.0334 163.465 27.0334 163.465 27.0738C163.484 27.0939 163.484 27.0939 163.484 27.1342L163.465 27.2149C163.465 27.3561 163.367 27.5174 163.289 27.6788L162.938 28.1426L162.508 28.5662C162.371 28.7275 162.215 28.8284 162.059 28.9695C161.434 29.4535 160.691 29.7964 159.949 29.8569C159.832 29.8771 159.695 29.8771 159.559 29.8771ZM173.23 38.8519C173.797 38.8519 174.324 38.6906 174.793 38.4888C175.301 38.267 175.75 37.9645 176.18 37.6418C177.02 36.9964 177.762 36.2704 178.465 35.4838C179.148 34.6973 179.812 33.9107 180.438 33.0838C181.121 32.1964 181.766 31.309 182.43 30.4014C182.449 30.9662 182.527 31.5309 182.723 32.0955C182.84 32.499 183.035 32.8822 183.309 33.2451C183.582 33.6082 183.934 33.9107 184.344 34.0922C184.734 34.2939 185.164 34.3746 185.555 34.4149L185.887 34.4351C186.18 34.4351 186.453 34.3947 186.727 34.3544C187.469 34.2333 188.172 33.9914 188.836 33.709C189.5 33.4267 190.145 33.104 190.77 32.7612C192 32.0553 193.172 31.2485 194.305 30.4014C194.402 30.3409 194.441 30.2401 194.441 30.1393C194.441 30.0787 194.422 30.0182 194.402 29.9779C194.344 29.8771 194.227 29.8367 194.129 29.8367C194.07 29.8367 194.012 29.8367 193.973 29.8771C192.801 30.6435 191.609 31.3494 190.359 31.9544C189.754 32.2569 189.129 32.5392 188.484 32.7612C187.859 32.983 187.215 33.1645 186.59 33.225L186.16 33.2451C185.691 33.2451 185.242 33.1645 184.891 32.9628C184.441 32.7208 184.168 32.2569 184.012 31.6721C183.895 31.2686 183.855 30.8048 183.855 30.3409L183.875 29.7964C183.895 29.4535 183.934 29.1308 183.992 28.788C184.051 28.4653 184.129 28.1225 184.207 27.84L184.246 27.6182C184.246 27.3359 184.109 27.0738 183.855 26.9124C183.719 26.8317 183.582 26.7913 183.445 26.7913C183.172 26.7913 182.879 26.9325 182.742 27.2149C182.371 28.1426 181.883 29.0703 181.395 29.9577C181.141 30.4014 180.867 30.8451 180.594 31.2686C180.32 31.6922 180.047 32.1158 179.754 32.5392C179.168 33.3662 178.543 34.1729 177.859 34.899C177.176 35.6451 176.473 36.351 175.672 36.9359C175.281 37.2183 174.871 37.4602 174.441 37.6418C174.07 37.8032 173.66 37.904 173.27 37.904H173.172C172.977 37.8838 172.82 37.8233 172.684 37.7427C172.566 37.662 172.469 37.541 172.41 37.3796C172.312 37.1376 172.273 36.8351 172.273 36.5124L172.293 36.1091C172.41 35.1611 172.684 34.1931 173.035 33.2451C173.387 32.2972 173.816 31.3695 174.266 30.5023L174.324 30.4014C174.363 30.3007 174.383 30.1998 174.383 30.0989C174.383 29.7762 174.188 29.4535 173.875 29.3325C173.777 29.2922 173.68 29.2721 173.582 29.2721C173.25 29.2721 172.957 29.4737 172.84 29.7964C172.449 30.8048 172.117 31.7931 171.824 32.8217C171.531 33.8501 171.277 34.899 171.219 36.0283C171.219 36.5931 171.219 37.1981 171.492 37.8032C171.57 37.9645 171.668 38.1056 171.785 38.2469C171.902 38.388 172.039 38.5091 172.195 38.6098C172.488 38.7914 172.84 38.8519 173.133 38.8519H173.23ZM191.355 43.9746C191.551 43.9746 191.727 43.9544 191.902 43.9343C192.215 43.8738 192.527 43.7931 192.84 43.6922L193.289 43.4906C193.445 43.4099 193.582 43.3292 193.719 43.2284C194.285 42.8452 194.734 42.2805 195.047 41.6755C195.34 41.0704 195.516 40.4452 195.633 39.7998C195.789 38.993 195.848 38.1864 195.848 37.3998C195.848 36.9359 195.828 36.472 195.789 36.0283C195.75 35.1006 195.652 34.1729 195.535 33.2653C196.121 32.8014 196.707 32.3981 197.352 32.0553C198.367 31.4704 199.441 31.0267 200.555 30.7443C201.512 30.5023 202.527 30.4014 203.504 30.4014H203.992V30.4216C204.129 30.4216 204.246 30.3007 204.246 30.1594L204.266 30.1191C204.266 29.9981 204.148 29.8771 204.012 29.8771L203.406 29.8569C202.41 29.8569 201.414 29.9779 200.438 30.2401C199.285 30.5426 198.152 30.9863 197.098 31.5914C196.531 31.8939 195.984 32.2569 195.457 32.6401C195.457 32.5392 195.438 32.4586 195.418 32.3577L194.988 29.2317C195.496 28.5057 196.004 27.7998 196.473 27.0738C196.805 26.5695 197.137 26.0452 197.43 25.5006C197.723 24.9561 197.996 24.4115 198.133 23.7661C198.191 23.5846 198.211 23.4031 198.211 23.2015C198.211 23.0401 198.191 22.8787 198.133 22.6972C198.074 22.4956 197.977 22.314 197.82 22.1526C197.684 22.0115 197.508 21.9107 197.332 21.83C197 21.6687 196.648 21.6283 196.336 21.6283H196.18C195.926 21.6283 195.887 21.6283 195.594 21.6484L195.32 21.7089C194.969 21.8098 194.617 22.0115 194.344 22.2938C194.07 22.5762 193.875 22.8989 193.738 23.2417C193.465 23.9073 193.367 24.5729 193.328 25.2183L193.309 25.9847C193.309 26.993 193.426 27.9813 193.543 28.9494C193.699 30.1796 193.895 31.3695 194.07 32.5594L194.227 33.6283C193.289 34.4351 192.449 35.3628 191.688 36.351C190.965 37.3393 190.32 38.4082 189.852 39.5578C189.617 40.1427 189.441 40.7477 189.363 41.4133C189.344 41.5544 189.344 41.7157 189.344 41.857C189.344 42.0384 189.363 42.2401 189.383 42.4216C189.441 42.7847 189.598 43.1478 189.891 43.4502C190.164 43.7326 190.535 43.8738 190.887 43.9343C191.062 43.9544 191.199 43.9746 191.355 43.9746ZM191.238 43.1074C190.906 43.1074 190.633 43.0267 190.438 42.8452C190.203 42.6233 190.086 42.1998 190.086 41.7561V41.4738C190.125 40.9292 190.281 40.3645 190.477 39.82C190.887 38.7309 191.492 37.7023 192.176 36.7342C192.82 35.867 193.523 35.0401 194.324 34.2939V34.3544C194.402 34.9392 194.48 35.5443 194.52 36.1292C194.578 36.7746 194.617 37.4401 194.617 38.0855C194.617 38.6099 194.598 39.1141 194.52 39.6183C194.383 40.7275 193.992 41.7965 193.172 42.4216C192.781 42.7443 192.273 42.9258 191.746 43.0469C191.57 43.0872 191.395 43.1074 191.238 43.1074ZM194.91 28.5662C194.773 27.4367 194.656 26.3275 194.637 25.2585C194.637 23.7258 194.871 22.8183 195.945 22.5762L196.355 22.5157L196.609 22.4956C196.785 22.4956 196.941 22.5157 197.078 22.5762C197.293 22.6367 197.43 22.7375 197.508 22.919C197.566 23.0602 197.586 23.2216 197.586 23.3829L197.566 23.6451C197.488 24.1897 197.273 24.7544 197.02 25.2788C196.766 25.8233 196.473 26.3476 196.16 26.8518C195.77 27.4367 195.34 28.0014 194.91 28.5662ZM205.262 37.5208L205.828 37.5006C206.258 37.4602 206.707 37.3796 207.117 37.2788C207.977 37.077 208.777 36.7947 209.578 36.472C210.359 36.1695 211.141 35.8065 211.902 35.4435C213.426 34.7174 214.91 33.8704 216.355 33.0031C217.801 32.1158 219.227 31.188 220.633 30.2199L220.672 30.1998C220.77 30.1191 220.828 29.9981 220.828 29.8569C220.828 29.7561 220.809 29.6553 220.73 29.5745C220.652 29.4737 220.535 29.4132 220.398 29.4132C220.32 29.4132 220.223 29.4535 220.125 29.514C217.547 31.6518 214.598 33.3258 211.57 34.6973C210.066 35.3628 208.504 35.9477 206.922 36.2704C206.453 36.3713 205.945 36.4317 205.477 36.4317C205.184 36.4317 204.91 36.4115 204.637 36.351C203.973 36.1897 203.699 35.8267 203.699 35.1611V35.0805C203.719 34.7376 203.797 34.3544 203.914 33.9712C204.09 33.4468 204.09 33.4468 204.344 32.8418C204.598 32.2166 204.891 31.6115 205.223 31.0267H205.535C206.004 31.0064 206.473 30.9258 206.922 30.8048C207.801 30.5628 208.602 30.1191 209.285 29.5544C209.461 29.393 209.637 29.2721 209.793 29.1107C210.281 28.6267 210.301 28.6468 210.672 28.062C210.789 27.8603 210.926 27.6384 210.984 27.3359C211.004 27.2754 211.004 27.1947 211.004 27.114C211.004 27.0334 210.984 26.9527 210.965 26.8518C210.945 26.7712 210.887 26.6906 210.848 26.6098C210.809 26.509 210.73 26.4686 210.652 26.4081C210.379 26.1863 210.086 26.1661 209.832 26.1661C209.344 26.1661 208.895 26.3073 208.484 26.4888C207.645 26.8518 206.922 27.3762 206.258 27.9813C205.75 28.4452 205.301 28.9695 204.891 29.5343L204.852 29.514C204.793 29.4737 204.695 29.4334 204.676 29.393C204.559 29.151 204.344 28.9695 204.09 28.8889L203.855 28.8485C203.426 28.8485 203.035 29.151 202.938 29.5745L202.918 29.8367C202.918 30.5225 203.348 30.6838 204.012 30.8855C203.543 31.7326 203.406 32.0754 203.035 32.983C202.957 33.1846 202.879 33.4065 202.82 33.6283C202.684 34.072 202.566 34.5359 202.566 35.0603V35.2014C202.566 35.4032 202.605 35.625 202.645 35.8468C202.723 36.1292 202.84 36.4115 203.016 36.6536C203.211 36.8754 203.445 37.077 203.68 37.1981C203.934 37.3191 204.188 37.3998 204.422 37.4602C204.715 37.5006 204.988 37.5208 205.262 37.5208ZM206.355 29.8771C206.238 29.8771 206.102 29.8771 205.984 29.8569C206.258 29.4535 206.57 29.0502 206.922 28.6871C207.488 28.1225 208.113 27.5981 208.797 27.2552C209.148 27.0738 209.52 26.9527 209.852 26.9325C210.008 26.9325 210.164 26.9527 210.223 27.0132C210.242 27.0334 210.262 27.0334 210.262 27.0738C210.281 27.0939 210.281 27.0939 210.281 27.1342L210.262 27.2149C210.262 27.3561 210.164 27.5174 210.086 27.6788L209.734 28.1426L209.305 28.5662C209.168 28.7275 209.012 28.8284 208.855 28.9695C208.23 29.4535 207.488 29.7964 206.746 29.8569C206.629 29.8771 206.492 29.8771 206.355 29.8771ZM222.645 42.0587C222.703 42.0587 222.762 42.0587 222.82 42.0384C222.996 42.0183 223.133 41.9578 223.25 41.9175L223.562 41.736C223.758 41.6149 223.934 41.4939 224.09 41.3729C225.34 40.3443 226.473 39.215 227.527 38.025C229.637 35.6451 231.492 33.0435 233.074 30.2804C233.094 30.2401 233.113 30.1998 233.113 30.1594C233.113 30.0787 233.074 29.9981 232.996 29.9376C232.957 29.9175 232.918 29.8972 232.879 29.8972C232.801 29.8972 232.723 29.9376 232.664 30.0182C232.234 30.6636 231.785 31.309 231.316 31.9544C230.867 32.5796 230.398 33.2048 229.91 33.83C228.953 35.0603 227.938 36.2502 226.863 37.3796C225.809 38.5091 224.656 39.5578 223.465 40.4653C223.309 40.5864 223.152 40.6871 223.016 40.7679C223.016 40.7679 222.996 40.7679 222.996 40.788C222.996 40.7275 222.996 40.6871 223.016 40.6267C223.094 40.2838 223.191 39.9006 223.309 39.5376L223.68 38.4283C223.953 37.662 224.188 36.8956 224.422 36.1091C224.52 35.7056 224.617 35.3023 224.695 34.899C224.773 34.4754 224.852 34.0519 224.852 33.5678C224.852 33.346 224.832 33.104 224.793 32.8418C224.734 32.5796 224.656 32.3174 224.5 32.035C224.344 31.7728 224.09 31.5309 223.797 31.3896C223.523 31.2485 223.25 31.188 222.996 31.1678L222.684 31.1477C222.332 31.1477 222.312 31.2082 221.98 31.2082L221.785 31.2283C221.668 31.2283 221.59 31.188 221.512 31.1678L221.355 31.0267C221.277 30.9057 221.219 30.704 221.199 30.4619C221.277 30.5225 221.375 30.5628 221.473 30.5628C221.57 30.5628 221.688 30.5023 221.766 30.4216C222.059 30.1191 222.312 29.7964 222.547 29.4535C222.801 29.1107 223.016 28.7275 223.172 28.2838C223.27 28.062 223.328 27.8199 223.348 27.5174L223.367 27.3963C223.367 27.2956 223.348 27.1745 223.309 27.0334C223.27 26.872 223.191 26.6703 223.074 26.5292C222.977 26.3476 222.82 26.2266 222.684 26.146C222.664 26.1056 222.586 26.0854 222.527 26.0653C222.469 26.0249 222.41 26.0048 222.352 26.0048C222.234 25.9644 222.078 25.9644 221.98 25.9644C221.727 26.0048 221.551 26.1056 221.414 26.1863C221.238 26.3073 221.238 26.3275 221.062 26.4888C220.691 26.872 220.477 27.2754 220.301 27.6989C220.125 28.1022 219.988 28.5258 219.891 28.9695C219.812 29.3325 219.754 29.7359 219.754 30.1594V30.3409C219.773 30.8048 219.852 31.3494 220.203 31.8737C220.379 32.1359 220.633 32.3577 220.906 32.499C221.199 32.6199 221.492 32.6804 221.766 32.6804C222.078 32.6804 222.059 32.6804 222.449 32.6199C222.605 32.5998 222.742 32.5998 222.879 32.5998C222.996 32.6199 223.094 32.6401 223.172 32.6804C223.23 32.7006 223.27 32.7409 223.328 32.8217C223.426 32.9628 223.484 33.2451 223.484 33.588V33.709C223.484 34.3342 223.348 35.0603 223.152 35.7661C222.977 36.5124 222.742 37.2586 222.508 38.025C222.41 38.4082 222.293 38.7914 222.176 39.1746C222.059 39.5779 221.961 39.9611 221.883 40.4048C221.863 40.5662 221.824 40.7275 221.824 40.9091L221.844 41.1511C221.844 41.3124 221.883 41.5343 222.078 41.7762C222.117 41.8368 222.176 41.8771 222.254 41.9175C222.293 41.9578 222.332 41.9779 222.352 41.9779C222.391 41.9982 222.43 42.0183 222.469 42.0183L222.645 42.0587ZM222.039 27.3762L221.98 27.3561H222.02L222.039 27.3762ZM221.238 29.6149L221.297 29.2922C221.453 28.5863 221.746 27.9208 222.059 27.5174C222.059 27.6182 222.039 27.7393 222.02 27.8804C221.863 28.4452 221.57 29.0502 221.238 29.6149Z" fill="white"/>
<path d="M15.3906 59.5847C15.7422 59.5847 16.0742 59.3428 16.1523 58.9797L22.5781 34.2737C22.6953 34.2737 22.8125 34.2536 22.9297 34.2132C24.1797 33.6485 25.4297 33.0838 26.6797 32.4787C26.8164 32.4385 26.9336 32.378 27.0703 32.3174C28.4766 31.7326 29.9219 31.2082 31.3672 30.7241C34.2578 29.7762 37.2266 28.9897 40.2148 28.4653C42.5391 28.0821 44.8633 27.84 47.207 27.84C47.9102 27.84 48.5938 27.8603 49.2969 27.9006C50.8008 28.0216 52.3047 28.2636 53.7695 28.6871C55.2148 29.1107 56.6016 29.7157 57.8516 30.5225C58.2422 30.7846 58.5938 31.0468 58.9258 31.3291C56.9727 31.6721 55.0391 32.0754 53.125 32.5191C47.168 33.951 41.3086 35.9477 35.8203 38.8318C33.1055 40.2838 30.4688 41.9578 28.0664 43.9746C26.875 44.983 25.7422 46.0922 24.7656 47.3427C24.2773 47.9881 23.8086 48.6536 23.4375 49.3797C23.0859 50.1057 22.793 50.9125 22.6953 51.7796L22.6758 52.1226C22.6758 52.4453 22.7148 52.7881 22.793 53.1108C22.9102 53.5545 23.1055 53.978 23.3789 54.341C23.9062 55.0873 24.6875 55.5511 25.4492 55.8536C26.2109 56.136 27.0117 56.2973 27.793 56.3982C28.3984 56.4587 29.0234 56.4788 29.6094 56.4788H30.1562C33.2812 56.3982 36.3672 55.7931 39.3359 54.8855C40.8398 54.4419 42.2852 53.8973 43.7305 53.3124C45.1758 52.7074 46.582 52.0418 47.9492 51.2957C50.7031 49.8234 53.3398 48.0889 55.7617 46.0317C56.9531 44.983 58.1055 43.8738 59.1406 42.6233C60.1562 41.3729 61.0742 40.0015 61.6797 38.388C61.9727 37.6015 62.168 36.7545 62.207 35.867V35.5645C62.207 34.7779 62.0703 33.9914 61.7578 33.2653C61.4648 32.5594 61.0547 31.9544 60.5664 31.43L62.207 31.188C65.2344 30.7846 68.2617 30.5023 71.3086 30.3409C71.4258 30.3409 71.4844 30.2401 71.4844 30.1393C71.4844 30.0384 71.4062 29.9577 71.2891 29.9577C67.5977 30.1594 63.9062 30.5426 60.2539 31.1275C59.6484 30.5628 58.9844 30.0989 58.3008 29.7359C56.9141 28.9695 55.4297 28.4452 53.9062 28.0821C52.4023 27.7393 50.8594 27.5376 49.3359 27.4568C48.6328 27.4166 47.9297 27.3963 47.2266 27.3963C44.8438 27.3963 42.4805 27.6182 40.1367 27.9611C37.6953 28.3241 35.2734 28.8485 32.8906 29.4535C34.5117 28.6267 36.1133 27.7795 37.7148 26.9124C40.1367 25.6015 42.5195 24.2299 44.8828 22.7578C46.0547 22.0316 47.207 21.2653 48.3594 20.4585C49.4922 19.6518 50.6055 18.8047 51.6797 17.877C52.207 17.393 52.7344 16.909 53.2422 16.3645C53.7305 15.8199 54.1992 15.2149 54.5703 14.4887C54.7656 14.1056 54.9219 13.6821 54.9805 13.1778V12.9762C54.9805 12.7946 54.9609 12.6131 54.9414 12.4114C54.8828 12.1493 54.7852 11.8871 54.6484 11.6653C54.375 11.2216 54.0234 10.8989 53.6523 10.677C53.3008 10.4552 52.9492 10.2938 52.5781 10.1526C51.8555 9.91062 51.1523 9.76944 50.4492 9.66859C49.7461 9.56775 49.043 9.50725 48.3594 9.46691C47.4219 9.40641 46.5039 9.40641 45.6055 9.40641H44.2188C39.0039 9.48708 33.8086 9.95095 28.6719 10.7778L29.3555 8.11565C29.375 8.05514 29.375 7.97448 29.375 7.91396C29.375 7.55094 29.1602 7.22825 28.8086 7.12741C28.7305 7.10724 28.6719 7.10724 28.5938 7.10724C28.2422 7.10724 27.9297 7.34926 27.832 7.71229L26.9531 11.0804C24.5703 11.4837 22.207 11.988 19.8633 12.593C17.207 13.2787 14.5703 14.0854 12.0312 15.1341C11.3867 15.3964 10.7617 15.6787 10.1367 16.0014C9.53125 16.3241 8.92578 16.6669 8.35938 17.1308C8.08594 17.3728 7.8125 17.6148 7.61719 17.998C7.53906 18.1392 7.5 18.3006 7.5 18.482L7.51953 18.6838C7.57812 18.9257 7.73438 19.1073 7.89062 19.2283C8.22266 19.4905 8.55469 19.5914 8.90625 19.6921C9.53125 19.8737 9.78516 19.8938 10.4492 19.9746C10.6055 19.9947 10.7617 20.035 10.918 20.0753C11.2305 20.1359 11.543 20.2569 11.8164 20.4182C12.4023 20.7207 12.9102 21.1644 13.3203 21.6888C14.1797 22.7375 14.7266 24.0283 15.1367 25.3393C15.5664 26.6502 15.8398 28.0216 16.0352 29.4132C16.25 30.7846 16.3867 32.1763 16.4648 33.5678C16.543 34.9796 16.582 36.3713 16.582 37.7829V38.5091C16.582 39.6586 16.543 40.8082 16.4844 41.9779C16.3672 44.7813 16.1328 47.5645 15.8398 50.3477C15.5078 53.1309 15.1367 55.9141 14.6094 58.657V58.778C14.6094 59.141 14.8437 59.4637 15.1953 59.5646C15.2539 59.5847 15.332 59.5847 15.3906 59.5847ZM16.8555 50.025C17.0117 47.3427 17.1094 44.6805 17.1484 41.9982V40.4452C17.1484 38.146 17.1094 35.8468 16.9336 33.5477C16.7188 30.7241 16.3867 27.9006 15.5469 25.198C15.1172 23.8468 14.5508 22.5157 13.6719 21.3862C13.2227 20.8216 12.6758 20.3375 12.0312 19.9947C11.7188 19.8333 11.3672 19.6921 11.0352 19.6115C10.5078 19.4905 10.4883 19.5106 10 19.4501C9.66797 19.3896 9.33594 19.3292 9.02344 19.2283C8.71094 19.1477 8.41797 19.0266 8.18359 18.8451C8.04688 18.7241 7.98828 18.6233 7.98828 18.482C7.98828 18.4014 8.00781 18.3207 8.04688 18.2199C8.18359 17.9779 8.41797 17.7359 8.67188 17.5342C9.17969 17.1308 9.78516 16.8081 10.3711 16.5056C10.9766 16.2031 11.6016 15.9208 12.2266 15.6787C13.4961 15.1745 14.7852 14.751 16.0938 14.3678C17.3828 13.9846 18.7109 13.6417 20.0195 13.3392C22.2266 12.835 24.4727 12.4114 26.6992 12.0686L16.8555 50.025ZM23.0859 32.3376L28.3984 11.8064C33.2422 11.1409 38.1055 10.8182 42.9688 10.8182H44.2188C45.5664 10.8384 46.9336 10.8787 48.2617 10.9594C48.9258 11.0199 49.5898 11.0804 50.2148 11.2014C50.8594 11.3022 51.4844 11.4434 52.0508 11.6653C52.3438 11.766 52.5977 11.9072 52.832 12.0485C53.0469 12.1896 53.2031 12.3509 53.2812 12.5123C53.3398 12.593 53.3594 12.6535 53.3789 12.7341V13.0165C53.3594 13.2182 53.2617 13.4603 53.1445 13.7022C52.8906 14.2064 52.4805 14.7106 52.0312 15.1946C51.6016 15.6586 51.1133 16.1023 50.6055 16.5459C48.5547 18.2602 46.2695 19.7728 43.9648 21.2048C41.6406 22.6165 39.2773 23.9678 36.875 25.2788C34.4922 26.5897 32.0703 27.8603 29.6289 29.0905C27.4609 30.1998 25.2734 31.2686 23.0859 32.3376ZM28.9062 55.3292C28.5742 55.3292 28.2422 55.3091 27.9102 55.289C27.168 55.2284 26.4648 55.1074 25.7812 54.8654C25.1367 54.6233 24.5117 54.2604 24.1211 53.7562C23.75 53.2721 23.5742 52.6872 23.5742 52.0418V51.8604C23.6328 51.1545 23.8672 50.4486 24.1797 49.7629C24.5117 49.0973 24.9219 48.452 25.3711 47.8468C26.2695 46.6166 27.3633 45.5275 28.5156 44.5192C30.8203 42.5024 33.3984 40.8082 36.0938 39.3561C38.7695 37.8838 41.582 36.6536 44.4531 35.5846C47.3047 34.5158 50.2539 33.6283 53.2031 32.9224C55.2148 32.4182 57.2266 32.0149 59.2578 31.6518C59.3555 31.7527 59.4531 31.8334 59.5312 31.9342C60.0195 32.4586 60.3906 33.0636 60.6055 33.7292C60.7617 34.2132 60.8594 34.7174 60.8594 35.2418L60.8203 35.7661C60.7422 36.4519 60.5469 37.1376 60.2734 37.8032C59.707 39.1342 58.8281 40.3645 57.8711 41.5141C56.9141 42.6637 55.8398 43.7124 54.6875 44.7007C53.5547 45.6889 52.3438 46.5965 51.0742 47.4636C49.8242 48.3108 48.5352 49.1175 47.207 49.8435C44.5703 51.2957 41.7969 52.546 38.9258 53.5141C36.0742 54.462 33.1055 55.1276 30.1172 55.289C29.707 55.3091 29.2969 55.3292 28.9062 55.3292ZM72.3438 25.783L72.5195 25.7628C72.6367 25.7426 72.7344 25.7022 72.8516 25.662L73.1055 25.4804C73.3984 25.2183 73.5547 24.9358 73.6328 24.593L73.6523 24.4922C73.6523 24.4317 73.6328 24.3913 73.5938 24.3308C73.5352 24.2502 73.457 24.1897 73.3594 24.1897C73.2617 24.1897 73.2227 24.2299 73.125 24.2905C72.9297 24.4115 72.7148 24.5526 72.5781 24.593H72.4805L72.4219 24.5729L72.4023 24.5325H72.3828L72.1875 24.2299L72.1289 24.0888C72.0898 23.988 72.0312 23.9073 71.9922 23.7863L71.8555 23.4031C71.8359 23.4031 71.8359 23.3829 71.8359 23.3628C71.6992 23.0804 71.4258 22.919 71.1328 22.919C71.0156 22.919 70.8789 22.9594 70.7617 23.0199C70.4883 23.1611 70.332 23.4636 70.332 23.7661C70.332 23.8871 70.3516 24.0081 70.4102 24.1292L70.6445 24.5325C70.7227 24.6737 70.8203 24.8148 70.918 24.9358C70.957 25.0166 71.0352 25.0771 71.0938 25.1376L71.2695 25.3393C71.4453 25.4602 71.582 25.5812 71.8164 25.6821L71.9727 25.7426L72.3438 25.783ZM71.9141 43.7931C72.6953 43.7931 73.418 43.5712 74.043 43.2687C74.707 42.9662 75.293 42.5426 75.8594 42.0989C76.4062 41.6552 76.9141 41.1712 77.4023 40.667C78.3789 39.6384 79.2383 38.5696 80.0586 37.4401C81.6797 35.1813 83.1055 32.8217 84.3945 30.3409C84.4336 30.2804 84.4531 30.1998 84.4531 30.1393C84.4531 29.9981 84.375 29.8569 84.2383 29.7762C84.1797 29.7359 84.1211 29.7157 84.043 29.7157C83.9062 29.7157 83.7695 29.7964 83.6914 29.9376H83.6719C82.3633 32.3174 80.8789 34.6368 79.2578 36.7947C78.4375 37.8838 77.5586 38.9124 76.6211 39.8401C76.1523 40.3242 75.6641 40.7477 75.1562 41.1511C74.6484 41.5544 74.1016 41.8973 73.5547 42.1393C73.0664 42.3814 72.5586 42.5024 72.0703 42.5024H71.875C71.3281 42.462 70.8984 42.2401 70.6055 41.8368C70.293 41.4334 70.1367 40.8284 70.0391 40.2233C70 39.8603 69.9805 39.4771 69.9805 39.0939L70 38.2872C70.0781 36.9763 70.3125 35.625 70.625 34.3141C70.918 33.0031 71.3086 31.6721 71.7383 30.4216V30.3813C71.7773 30.3007 71.7773 30.1998 71.7773 30.1191C71.7773 29.7762 71.582 29.4737 71.2305 29.3527C71.1523 29.3325 71.0742 29.3123 70.9766 29.3123C70.6641 29.3123 70.3516 29.514 70.2344 29.8771C69.8047 31.2283 69.4531 32.5796 69.1602 33.9712C68.8672 35.3628 68.6523 36.7746 68.5938 38.2266V38.6906C68.5938 39.2755 68.6328 39.8401 68.7109 40.4452C68.8281 41.1712 69.0625 41.9779 69.5898 42.6637C69.8438 43.0065 70.1953 43.309 70.5859 43.4906C70.9961 43.6721 71.4062 43.7729 71.7969 43.7931H71.9141ZM112.422 59.5847C112.773 59.5847 113.105 59.3428 113.184 58.9797L121.172 28.2435C122.246 28.3241 123.301 28.3846 124.375 28.4452C125.664 28.5258 126.953 28.5863 128.262 28.6468C130.84 28.7476 133.438 28.788 136.035 28.788C138.613 28.7476 141.211 28.6267 143.809 28.4452C146.406 28.183 148.984 27.84 151.562 27.3157H151.602C151.953 27.2149 152.188 26.8922 152.188 26.5292C152.188 26.4485 152.188 26.388 152.168 26.3073C152.09 25.9443 151.758 25.7022 151.387 25.7022L151.191 25.7225C148.75 26.388 146.23 26.8317 143.691 27.1342C142.402 27.2552 141.133 27.3963 139.863 27.4568C137.969 27.5779 138.008 27.5577 136.016 27.5981L134.473 27.6182C132.422 27.6182 130.371 27.5376 128.32 27.4166C126.055 27.2552 123.789 27.0334 121.562 26.7107L125.176 12.835C129.473 13.0165 133.77 13.1173 138.086 13.1376C140.352 13.1376 142.598 13.1376 144.863 13.077C147.129 13.0165 149.395 12.9358 151.641 12.8149C156.172 12.5526 160.684 12.109 165.195 11.3828L165.215 11.3627C165.586 11.2821 165.859 10.9392 165.859 10.556L165.84 10.4148C165.762 10.0316 165.43 9.74927 165.059 9.74927L164.902 9.76944C160.527 10.6972 156.055 11.2618 151.562 11.6653C149.336 11.8669 147.09 12.0282 144.824 12.1291C142.578 12.2501 140.332 12.3106 138.086 12.3509C136.523 12.3712 134.961 12.3913 133.398 12.3913C130.703 12.3913 128.008 12.3509 125.312 12.2904L126.387 8.11565C126.406 8.05514 126.406 7.97448 126.406 7.91396C126.406 7.55094 126.191 7.22825 125.84 7.12741C125.762 7.10724 125.703 7.10724 125.625 7.10724C125.273 7.10724 124.961 7.34926 124.863 7.71229L123.691 12.2501C119.453 12.1291 115.234 11.9274 111.016 11.8266C110.312 11.8064 109.609 11.7863 108.906 11.7863L107.617 11.8064C107.344 11.8064 107.051 11.8266 106.758 11.8468C106.484 11.8871 106.191 11.9072 105.898 12.0081C105.82 12.0485 105.742 12.0686 105.645 12.1493C105.606 12.1896 105.566 12.2703 105.547 12.3712C105.547 12.4518 105.586 12.5123 105.605 12.5728C105.723 12.7544 105.859 12.8149 105.996 12.8955C106.25 13.0568 106.504 13.1778 106.777 13.2787C107.031 13.3997 107.305 13.5005 107.559 13.6014C107.832 13.7022 108.105 13.7829 108.34 13.9039C108.848 14.1459 109.316 14.4485 109.746 14.8115C110.605 15.5375 111.27 16.4652 111.816 17.4737C112.363 18.482 112.773 19.551 113.105 20.6602C113.438 21.7694 113.691 22.8989 113.887 24.0485C114.297 26.3275 114.473 28.6468 114.551 30.9662C114.57 31.8132 114.59 32.6804 114.59 33.5276C114.59 37.3393 114.316 41.1309 113.926 44.9024C113.789 46.052 113.652 47.2015 113.496 48.3511C113.34 49.5007 113.164 50.6503 112.969 51.7999C112.598 54.0788 112.168 56.3781 111.66 58.6166L111.641 58.7982C111.641 59.141 111.875 59.4637 112.227 59.5646C112.285 59.5847 112.363 59.5847 112.422 59.5847ZM114.336 48.2503C114.434 47.1612 114.512 46.052 114.59 44.9629C114.805 41.6552 114.961 38.3275 114.961 35.02C114.961 33.6485 114.941 32.2972 114.883 30.946C114.785 28.6267 114.57 26.2871 114.18 23.988C113.965 22.8384 113.711 21.6888 113.379 20.5796C113.047 19.4501 112.637 18.3409 112.09 17.3123C111.523 16.2837 110.84 15.3156 109.941 14.5492C109.492 14.1863 109.004 13.8636 108.477 13.6014C108.223 13.4804 107.93 13.3795 107.676 13.2787L106.895 12.9762L106.152 12.6131C106.055 12.5325 105.937 12.4518 105.898 12.3913L105.996 12.3308C106.23 12.2501 106.523 12.23 106.797 12.2098C107.07 12.1695 107.344 12.1695 107.637 12.1695L108.613 12.1493C109.414 12.1493 110.215 12.1896 110.996 12.2098C116.914 12.4114 117.07 12.4719 123.555 12.7745L119.883 26.9325C119.805 27.0334 119.766 27.1745 119.746 27.2956V27.3963L114.336 48.2503ZM158.965 37.5208L159.531 37.5006C159.961 37.4602 160.41 37.3796 160.82 37.2788C161.68 37.077 162.48 36.7947 163.281 36.472C164.062 36.1695 164.844 35.8065 165.605 35.4435C167.129 34.7174 168.613 33.8704 170.059 33.0031C171.504 32.1158 172.93 31.188 174.336 30.2199L174.375 30.1998C174.473 30.1191 174.531 29.9981 174.531 29.8569C174.531 29.7561 174.512 29.6553 174.434 29.5745C174.355 29.4737 174.238 29.4132 174.102 29.4132C174.023 29.4132 173.926 29.4535 173.828 29.514C171.25 31.6518 168.301 33.3258 165.273 34.6973C163.77 35.3628 162.207 35.9477 160.625 36.2704C160.156 36.3713 159.648 36.4317 159.18 36.4317C158.887 36.4317 158.613 36.4115 158.34 36.351C157.676 36.1897 157.402 35.8267 157.402 35.1611V35.0805C157.422 34.7376 157.5 34.3544 157.617 33.9712C157.793 33.4468 157.793 33.4468 158.047 32.8418C158.301 32.2166 158.594 31.6115 158.926 31.0267H159.238C159.707 31.0064 160.176 30.9258 160.625 30.8048C161.504 30.5628 162.305 30.1191 162.988 29.5544C163.164 29.393 163.34 29.2721 163.496 29.1107C163.984 28.6267 164.004 28.6468 164.375 28.062C164.492 27.8603 164.629 27.6384 164.688 27.3359C164.707 27.2754 164.707 27.1947 164.707 27.114C164.707 27.0334 164.688 26.9527 164.668 26.8518C164.648 26.7712 164.59 26.6906 164.551 26.6098C164.512 26.509 164.434 26.4686 164.355 26.4081C164.082 26.1863 163.789 26.1661 163.535 26.1661C163.047 26.1661 162.598 26.3073 162.188 26.4888C161.348 26.8518 160.625 27.3762 159.961 27.9813C159.453 28.4452 159.004 28.9695 158.594 29.5343L158.555 29.514C158.496 29.4737 158.398 29.4334 158.379 29.393C158.262 29.151 158.047 28.9695 157.793 28.8889L157.559 28.8485C157.129 28.8485 156.738 29.151 156.641 29.5745L156.621 29.8367C156.621 30.5225 157.051 30.6838 157.715 30.8855C157.246 31.7326 157.109 32.0754 156.738 32.983C156.66 33.1846 156.582 33.4065 156.523 33.6283C156.387 34.072 156.27 34.5359 156.27 35.0603V35.2014C156.27 35.4032 156.309 35.625 156.348 35.8468C156.426 36.1292 156.543 36.4115 156.719 36.6536C156.914 36.8754 157.148 37.077 157.383 37.1981C157.637 37.3191 157.891 37.3998 158.125 37.4602C158.418 37.5006 158.691 37.5208 158.965 37.5208ZM160.059 29.8771C159.941 29.8771 159.805 29.8771 159.688 29.8569C159.961 29.4535 160.273 29.0502 160.625 28.6871C161.191 28.1225 161.816 27.5981 162.5 27.2552C162.852 27.0738 163.223 26.9527 163.555 26.9325C163.711 26.9325 163.867 26.9527 163.926 27.0132C163.945 27.0334 163.965 27.0334 163.965 27.0738C163.984 27.0939 163.984 27.0939 163.984 27.1342L163.965 27.2149C163.965 27.3561 163.867 27.5174 163.789 27.6788L163.438 28.1426L163.008 28.5662C162.871 28.7275 162.715 28.8284 162.559 28.9695C161.934 29.4535 161.191 29.7964 160.449 29.8569C160.332 29.8771 160.195 29.8771 160.059 29.8771ZM173.73 38.8519C174.297 38.8519 174.824 38.6906 175.293 38.4888C175.801 38.267 176.25 37.9645 176.68 37.6418C177.52 36.9964 178.262 36.2704 178.965 35.4838C179.648 34.6973 180.312 33.9107 180.938 33.0838C181.621 32.1964 182.266 31.309 182.93 30.4014C182.949 30.9662 183.027 31.5309 183.223 32.0955C183.34 32.499 183.535 32.8822 183.809 33.2451C184.082 33.6082 184.434 33.9107 184.844 34.0922C185.234 34.2939 185.664 34.3746 186.055 34.4149L186.387 34.4351C186.68 34.4351 186.953 34.3947 187.227 34.3544C187.969 34.2333 188.672 33.9914 189.336 33.709C190 33.4267 190.645 33.104 191.27 32.7612C192.5 32.0553 193.672 31.2485 194.805 30.4014C194.902 30.3409 194.941 30.2401 194.941 30.1393C194.941 30.0787 194.922 30.0182 194.902 29.9779C194.844 29.8771 194.727 29.8367 194.629 29.8367C194.57 29.8367 194.512 29.8367 194.473 29.8771C193.301 30.6435 192.109 31.3494 190.859 31.9544C190.254 32.2569 189.629 32.5392 188.984 32.7612C188.359 32.983 187.715 33.1645 187.09 33.225L186.66 33.2451C186.191 33.2451 185.742 33.1645 185.391 32.9628C184.941 32.7208 184.668 32.2569 184.512 31.6721C184.395 31.2686 184.355 30.8048 184.355 30.3409L184.375 29.7964C184.395 29.4535 184.434 29.1308 184.492 28.788C184.551 28.4653 184.629 28.1225 184.707 27.84L184.746 27.6182C184.746 27.3359 184.609 27.0738 184.355 26.9124C184.219 26.8317 184.082 26.7913 183.945 26.7913C183.672 26.7913 183.379 26.9325 183.242 27.2149C182.871 28.1426 182.383 29.0703 181.895 29.9577C181.641 30.4014 181.367 30.8451 181.094 31.2686C180.82 31.6922 180.547 32.1158 180.254 32.5392C179.668 33.3662 179.043 34.1729 178.359 34.899C177.676 35.6451 176.973 36.351 176.172 36.9359C175.781 37.2183 175.371 37.4602 174.941 37.6418C174.57 37.8032 174.16 37.904 173.77 37.904H173.672C173.477 37.8838 173.32 37.8233 173.184 37.7427C173.066 37.662 172.969 37.541 172.91 37.3796C172.812 37.1376 172.773 36.8351 172.773 36.5124L172.793 36.1091C172.91 35.1611 173.184 34.1931 173.535 33.2451C173.887 32.2972 174.316 31.3695 174.766 30.5023L174.824 30.4014C174.863 30.3007 174.883 30.1998 174.883 30.0989C174.883 29.7762 174.688 29.4535 174.375 29.3325C174.277 29.2922 174.18 29.2721 174.082 29.2721C173.75 29.2721 173.457 29.4737 173.34 29.7964C172.949 30.8048 172.617 31.7931 172.324 32.8217C172.031 33.8501 171.777 34.899 171.719 36.0283C171.719 36.5931 171.719 37.1981 171.992 37.8032C172.07 37.9645 172.168 38.1056 172.285 38.2469C172.402 38.388 172.539 38.5091 172.695 38.6098C172.988 38.7914 173.34 38.8519 173.633 38.8519H173.73ZM191.855 43.9746C192.051 43.9746 192.227 43.9544 192.402 43.9343C192.715 43.8738 193.027 43.7931 193.34 43.6922L193.789 43.4906C193.945 43.4099 194.082 43.3292 194.219 43.2284C194.785 42.8452 195.234 42.2805 195.547 41.6755C195.84 41.0704 196.016 40.4452 196.133 39.7998C196.289 38.993 196.348 38.1864 196.348 37.3998C196.348 36.9359 196.328 36.472 196.289 36.0283C196.25 35.1006 196.152 34.1729 196.035 33.2653C196.621 32.8014 197.207 32.3981 197.852 32.0553C198.867 31.4704 199.941 31.0267 201.055 30.7443C202.012 30.5023 203.027 30.4014 204.004 30.4014H204.492V30.4216C204.629 30.4216 204.746 30.3007 204.746 30.1594L204.766 30.1191C204.766 29.9981 204.648 29.8771 204.512 29.8771L203.906 29.8569C202.91 29.8569 201.914 29.9779 200.938 30.2401C199.785 30.5426 198.652 30.9863 197.598 31.5914C197.031 31.8939 196.484 32.2569 195.957 32.6401C195.957 32.5392 195.938 32.4586 195.918 32.3577L195.488 29.2317C195.996 28.5057 196.504 27.7998 196.973 27.0738C197.305 26.5695 197.637 26.0452 197.93 25.5006C198.223 24.9561 198.496 24.4115 198.633 23.7661C198.691 23.5846 198.711 23.4031 198.711 23.2015C198.711 23.0401 198.691 22.8787 198.633 22.6972C198.574 22.4956 198.477 22.314 198.32 22.1526C198.184 22.0115 198.008 21.9107 197.832 21.83C197.5 21.6687 197.148 21.6283 196.836 21.6283H196.68C196.426 21.6283 196.387 21.6283 196.094 21.6484L195.82 21.7089C195.469 21.8098 195.117 22.0115 194.844 22.2938C194.57 22.5762 194.375 22.8989 194.238 23.2417C193.965 23.9073 193.867 24.5729 193.828 25.2183L193.809 25.9847C193.809 26.993 193.926 27.9813 194.043 28.9494C194.199 30.1796 194.395 31.3695 194.57 32.5594L194.727 33.6283C193.789 34.4351 192.949 35.3628 192.188 36.351C191.465 37.3393 190.82 38.4082 190.352 39.5578C190.117 40.1427 189.941 40.7477 189.863 41.4133C189.844 41.5544 189.844 41.7157 189.844 41.857C189.844 42.0384 189.863 42.2401 189.883 42.4216C189.941 42.7847 190.098 43.1478 190.391 43.4502C190.664 43.7326 191.035 43.8738 191.387 43.9343C191.562 43.9544 191.699 43.9746 191.855 43.9746ZM191.738 43.1074C191.406 43.1074 191.133 43.0267 190.938 42.8452C190.703 42.6233 190.586 42.1998 190.586 41.7561V41.4738C190.625 40.9292 190.781 40.3645 190.977 39.82C191.387 38.7309 191.992 37.7023 192.676 36.7342C193.32 35.867 194.023 35.0401 194.824 34.2939V34.3544C194.902 34.9392 194.98 35.5443 195.02 36.1292C195.078 36.7746 195.117 37.4401 195.117 38.0855C195.117 38.6099 195.098 39.1141 195.02 39.6183C194.883 40.7275 194.492 41.7965 193.672 42.4216C193.281 42.7443 192.773 42.9258 192.246 43.0469C192.07 43.0872 191.895 43.1074 191.738 43.1074ZM195.41 28.5662C195.273 27.4367 195.156 26.3275 195.137 25.2585C195.137 23.7258 195.371 22.8183 196.445 22.5762L196.855 22.5157L197.109 22.4956C197.285 22.4956 197.441 22.5157 197.578 22.5762C197.793 22.6367 197.93 22.7375 198.008 22.919C198.066 23.0602 198.086 23.2216 198.086 23.3829L198.066 23.6451C197.988 24.1897 197.773 24.7544 197.52 25.2788C197.266 25.8233 196.973 26.3476 196.66 26.8518C196.27 27.4367 195.84 28.0014 195.41 28.5662ZM205.762 37.5208L206.328 37.5006C206.758 37.4602 207.207 37.3796 207.617 37.2788C208.477 37.077 209.277 36.7947 210.078 36.472C210.859 36.1695 211.641 35.8065 212.402 35.4435C213.926 34.7174 215.41 33.8704 216.855 33.0031C218.301 32.1158 219.727 31.188 221.133 30.2199L221.172 30.1998C221.27 30.1191 221.328 29.9981 221.328 29.8569C221.328 29.7561 221.309 29.6553 221.23 29.5745C221.152 29.4737 221.035 29.4132 220.898 29.4132C220.82 29.4132 220.723 29.4535 220.625 29.514C218.047 31.6518 215.098 33.3258 212.07 34.6973C210.566 35.3628 209.004 35.9477 207.422 36.2704C206.953 36.3713 206.445 36.4317 205.977 36.4317C205.684 36.4317 205.41 36.4115 205.137 36.351C204.473 36.1897 204.199 35.8267 204.199 35.1611V35.0805C204.219 34.7376 204.297 34.3544 204.414 33.9712C204.59 33.4468 204.59 33.4468 204.844 32.8418C205.098 32.2166 205.391 31.6115 205.723 31.0267H206.035C206.504 31.0064 206.973 30.9258 207.422 30.8048C208.301 30.5628 209.102 30.1191 209.785 29.5544C209.961 29.393 210.137 29.2721 210.293 29.1107C210.781 28.6267 210.801 28.6468 211.172 28.062C211.289 27.8603 211.426 27.6384 211.484 27.3359C211.504 27.2754 211.504 27.1947 211.504 27.114C211.504 27.0334 211.484 26.9527 211.465 26.8518C211.445 26.7712 211.387 26.6906 211.348 26.6098C211.309 26.509 211.23 26.4686 211.152 26.4081C210.879 26.1863 210.586 26.1661 210.332 26.1661C209.844 26.1661 209.395 26.3073 208.984 26.4888C208.145 26.8518 207.422 27.3762 206.758 27.9813C206.25 28.4452 205.801 28.9695 205.391 29.5343L205.352 29.514C205.293 29.4737 205.195 29.4334 205.176 29.393C205.059 29.151 204.844 28.9695 204.59 28.8889L204.355 28.8485C203.926 28.8485 203.535 29.151 203.438 29.5745L203.418 29.8367C203.418 30.5225 203.848 30.6838 204.512 30.8855C204.043 31.7326 203.906 32.0754 203.535 32.983C203.457 33.1846 203.379 33.4065 203.32 33.6283C203.184 34.072 203.066 34.5359 203.066 35.0603V35.2014C203.066 35.4032 203.105 35.625 203.145 35.8468C203.223 36.1292 203.34 36.4115 203.516 36.6536C203.711 36.8754 203.945 37.077 204.18 37.1981C204.434 37.3191 204.688 37.3998 204.922 37.4602C205.215 37.5006 205.488 37.5208 205.762 37.5208ZM206.855 29.8771C206.738 29.8771 206.602 29.8771 206.484 29.8569C206.758 29.4535 207.07 29.0502 207.422 28.6871C207.988 28.1225 208.613 27.5981 209.297 27.2552C209.648 27.0738 210.02 26.9527 210.352 26.9325C210.508 26.9325 210.664 26.9527 210.723 27.0132C210.742 27.0334 210.762 27.0334 210.762 27.0738C210.781 27.0939 210.781 27.0939 210.781 27.1342L210.762 27.2149C210.762 27.3561 210.664 27.5174 210.586 27.6788L210.234 28.1426L209.805 28.5662C209.668 28.7275 209.512 28.8284 209.355 28.9695C208.73 29.4535 207.988 29.7964 207.246 29.8569C207.129 29.8771 206.992 29.8771 206.855 29.8771ZM223.145 42.0587C223.203 42.0587 223.262 42.0587 223.32 42.0384C223.496 42.0183 223.633 41.9578 223.75 41.9175L224.062 41.736C224.258 41.6149 224.434 41.4939 224.59 41.3729C225.84 40.3443 226.973 39.215 228.027 38.025C230.137 35.6451 231.992 33.0435 233.574 30.2804C233.594 30.2401 233.613 30.1998 233.613 30.1594C233.613 30.0787 233.574 29.9981 233.496 29.9376C233.457 29.9175 233.418 29.8972 233.379 29.8972C233.301 29.8972 233.223 29.9376 233.164 30.0182C232.734 30.6636 232.285 31.309 231.816 31.9544C231.367 32.5796 230.898 33.2048 230.41 33.83C229.453 35.0603 228.438 36.2502 227.363 37.3796C226.309 38.5091 225.156 39.5578 223.965 40.4653C223.809 40.5864 223.652 40.6871 223.516 40.7679C223.516 40.7679 223.496 40.7679 223.496 40.788C223.496 40.7275 223.496 40.6871 223.516 40.6267C223.594 40.2838 223.691 39.9006 223.809 39.5376L224.18 38.4283C224.453 37.662 224.688 36.8956 224.922 36.1091C225.02 35.7056 225.117 35.3023 225.195 34.899C225.273 34.4754 225.352 34.0519 225.352 33.5678C225.352 33.346 225.332 33.104 225.293 32.8418C225.234 32.5796 225.156 32.3174 225 32.035C224.844 31.7728 224.59 31.5309 224.297 31.3896C224.023 31.2485 223.75 31.188 223.496 31.1678L223.184 31.1477C222.832 31.1477 222.812 31.2082 222.48 31.2082L222.285 31.2283C222.168 31.2283 222.09 31.188 222.012 31.1678L221.855 31.0267C221.777 30.9057 221.719 30.704 221.699 30.4619C221.777 30.5225 221.875 30.5628 221.973 30.5628C222.07 30.5628 222.188 30.5023 222.266 30.4216C222.559 30.1191 222.812 29.7964 223.047 29.4535C223.301 29.1107 223.516 28.7275 223.672 28.2838C223.77 28.062 223.828 27.8199 223.848 27.5174L223.867 27.3963C223.867 27.2956 223.848 27.1745 223.809 27.0334C223.77 26.872 223.691 26.6703 223.574 26.5292C223.477 26.3476 223.32 26.2266 223.184 26.146C223.164 26.1056 223.086 26.0854 223.027 26.0653C222.969 26.0249 222.91 26.0048 222.852 26.0048C222.734 25.9644 222.578 25.9644 222.48 25.9644C222.227 26.0048 222.051 26.1056 221.914 26.1863C221.738 26.3073 221.738 26.3275 221.562 26.4888C221.191 26.872 220.977 27.2754 220.801 27.6989C220.625 28.1022 220.488 28.5258 220.391 28.9695C220.312 29.3325 220.254 29.7359 220.254 30.1594V30.3409C220.273 30.8048 220.352 31.3494 220.703 31.8737C220.879 32.1359 221.133 32.3577 221.406 32.499C221.699 32.6199 221.992 32.6804 222.266 32.6804C222.578 32.6804 222.559 32.6804 222.949 32.6199C223.105 32.5998 223.242 32.5998 223.379 32.5998C223.496 32.6199 223.594 32.6401 223.672 32.6804C223.73 32.7006 223.77 32.7409 223.828 32.8217C223.926 32.9628 223.984 33.2451 223.984 33.588V33.709C223.984 34.3342 223.848 35.0603 223.652 35.7661C223.477 36.5124 223.242 37.2586 223.008 38.025C222.91 38.4082 222.793 38.7914 222.676 39.1746C222.559 39.5779 222.461 39.9611 222.383 40.4048C222.363 40.5662 222.324 40.7275 222.324 40.9091L222.344 41.1511C222.344 41.3124 222.383 41.5343 222.578 41.7762C222.617 41.8368 222.676 41.8771 222.754 41.9175C222.793 41.9578 222.832 41.9779 222.852 41.9779C222.891 41.9982 222.93 42.0183 222.969 42.0183L223.145 42.0587ZM222.539 27.3762L222.48 27.3561H222.52L222.539 27.3762ZM221.738 29.6149L221.797 29.2922C221.953 28.5863 222.246 27.9208 222.559 27.5174C222.559 27.6182 222.539 27.7393 222.52 27.8804C222.363 28.4452 222.07 29.0502 221.738 29.6149Z" fill="white"/>
</g>
<defs>
<clipPath id="clip0_101_34">
<rect width="240" height="95" fill="white"/>
</clipPath>
</defs>
</svg>
