<svg width="229" height="92" viewBox="0 0 229 92" fill="none" xmlns="http://www.w3.org/2000/svg">
<path d="M30.9087 78.2234V81.6658H30.623C30.4082 80.7673 30.0078 80.0789 29.4219 79.6003C28.8359 79.1218 28.1719 78.8826 27.4297 78.8826C26.8096 78.8826 26.2407 79.0608 25.7231 79.4172C25.2056 79.7737 24.8271 80.24 24.5879 80.8162C24.2803 81.5535 24.1265 82.3738 24.1265 83.2771C24.1265 84.1658 24.2388 84.9763 24.4634 85.7087C24.688 86.4363 25.0396 86.988 25.5181 87.364C25.9966 87.7351 26.6167 87.9207 27.3784 87.9207C28.0034 87.9207 28.5747 87.7839 29.0923 87.5105C29.6147 87.2371 30.1641 86.7659 30.7402 86.0969V86.9539C30.1836 87.5349 29.6025 87.9573 28.9971 88.2209C28.3965 88.4797 27.6934 88.6091 26.8877 88.6091C25.8281 88.6091 24.8857 88.3967 24.0605 87.9719C23.2402 87.5471 22.6055 86.9368 22.1562 86.1409C21.7119 85.345 21.4897 84.4978 21.4897 83.5994C21.4897 82.6521 21.7363 81.7537 22.2295 80.9041C22.7275 80.0544 23.3965 79.3953 24.2363 78.9265C25.0811 78.4578 25.9771 78.2234 26.9243 78.2234C27.6226 78.2234 28.3599 78.3748 29.1362 78.6775C29.5854 78.8533 29.8711 78.9412 29.9932 78.9412C30.1494 78.9412 30.2837 78.885 30.396 78.7727C30.5132 78.6555 30.5889 78.4724 30.623 78.2234H30.9087ZM35.8232 79.0217V83.0647H36.021C36.6509 83.0647 37.1074 82.8669 37.3906 82.4714C37.6738 82.0759 37.8545 81.4924 37.9326 80.7209H38.2109V85.9211H37.9326C37.874 85.3547 37.7495 84.8909 37.5591 84.5295C37.3735 84.1682 37.1562 83.9265 36.9072 83.8044C36.6582 83.6775 36.2969 83.614 35.8232 83.614V86.4119C35.8232 86.9587 35.8452 87.2932 35.8892 87.4153C35.938 87.5374 36.0259 87.6375 36.1528 87.7156C36.2798 87.7937 36.4849 87.8328 36.7681 87.8328H37.3613C38.2891 87.8328 39.0312 87.6179 39.5879 87.1882C40.1494 86.7585 40.5522 86.1042 40.7964 85.2253H41.0674L40.6206 88.3821H32.0366V88.1111H32.3662C32.6543 88.1111 32.8862 88.0598 33.062 87.9573C33.189 87.8889 33.2866 87.7717 33.355 87.6057C33.4087 87.4885 33.4355 87.1809 33.4355 86.6829V80.1497C33.4355 79.7004 33.4233 79.4246 33.3989 79.322C33.3501 79.1511 33.2598 79.0193 33.1279 78.9265C32.9424 78.7898 32.6885 78.7214 32.3662 78.7214H32.0366V78.4504H40.3496V81.3875H40.0713C39.9297 80.6697 39.7295 80.1545 39.4707 79.842C39.2168 79.5295 38.8555 79.3 38.3867 79.1536C38.1133 79.0657 37.6006 79.0217 36.8486 79.0217H35.8232ZM47.5347 78.3113C49.1167 78.2527 50.4009 78.7141 51.3872 79.6956C52.3784 80.677 52.874 81.905 52.874 83.3796C52.874 84.6394 52.5054 85.7478 51.7681 86.7048C50.7915 87.9744 49.4121 88.6091 47.6299 88.6091C45.8428 88.6091 44.4609 88.0037 43.4844 86.7927C42.7129 85.8357 42.3271 84.7004 42.3271 83.387C42.3271 81.9124 42.8276 80.6843 43.8286 79.7029C44.8345 78.7166 46.0698 78.2527 47.5347 78.3113ZM47.6226 78.78C46.7144 78.78 46.0234 79.2439 45.5498 80.1716C45.1641 80.9333 44.9712 82.0271 44.9712 83.4529C44.9712 85.1472 45.269 86.3997 45.8647 87.2102C46.2798 87.7766 46.8608 88.0598 47.6079 88.0598C48.1108 88.0598 48.5308 87.9377 48.8677 87.6936C49.2974 87.3811 49.6318 86.8831 49.8711 86.1995C50.1104 85.511 50.23 84.615 50.23 83.5115C50.23 82.198 50.1079 81.2166 49.8638 80.5671C49.6196 79.9128 49.3071 79.4514 48.9263 79.1829C48.5503 78.9143 48.1157 78.78 47.6226 78.78ZM54.1631 91.0115V90.6892C54.7295 90.4451 55.1396 90.1277 55.3936 89.7371C55.6523 89.3513 55.7817 88.9558 55.7817 88.5505C55.7817 88.4675 55.7646 88.4041 55.7305 88.3601C55.6963 88.321 55.6621 88.3015 55.6279 88.3015C55.5986 88.3015 55.5547 88.3186 55.4961 88.3528C55.3545 88.4358 55.1787 88.4773 54.9688 88.4773C54.6807 88.4773 54.4292 88.365 54.2144 88.1404C54.0044 87.9158 53.8994 87.6521 53.8994 87.3494C53.8994 87.0271 54.0215 86.7439 54.2656 86.4998C54.5098 86.2556 54.8052 86.1335 55.1519 86.1335C55.5718 86.1335 55.9307 86.2971 56.2285 86.6243C56.5264 86.9465 56.6753 87.3909 56.6753 87.9573C56.6753 88.6555 56.4629 89.2756 56.0381 89.8176C55.6182 90.3596 54.9932 90.7576 54.1631 91.0115ZM64.6514 78.4504L69.5513 84.6101V80.3401C69.5513 79.7444 69.4658 79.3416 69.2949 79.1316C69.0605 78.8484 68.6675 78.7117 68.1157 78.7214V78.4504H71.397V78.7214C70.9771 78.7751 70.6938 78.8459 70.5474 78.9338C70.4058 79.0168 70.2935 79.156 70.2104 79.3513C70.1323 79.5417 70.0933 79.8713 70.0933 80.3401V88.6091H69.8442L63.1279 80.3401V86.6536C63.1279 87.2249 63.2573 87.6106 63.5161 87.8108C63.7798 88.011 64.0801 88.1111 64.417 88.1111H64.6514V88.3821H61.1284V88.1111C61.6753 88.1062 62.0562 87.9939 62.271 87.7742C62.4858 87.5544 62.5933 87.1809 62.5933 86.6536V79.6443L62.3809 79.3806C62.1709 79.1169 61.9854 78.9436 61.8242 78.8606C61.6631 78.7776 61.4312 78.7312 61.1284 78.7214V78.4504H64.6514ZM75.8428 79.0217V83.0647H76.0405C76.6704 83.0647 77.127 82.8669 77.4102 82.4714C77.6934 82.0759 77.874 81.4924 77.9521 80.7209H78.2305V85.9211H77.9521C77.8936 85.3547 77.769 84.8909 77.5786 84.5295C77.3931 84.1682 77.1758 83.9265 76.9268 83.8044C76.6777 83.6775 76.3164 83.614 75.8428 83.614V86.4119C75.8428 86.9587 75.8647 87.2932 75.9087 87.4153C75.9575 87.5374 76.0454 87.6375 76.1724 87.7156C76.2993 87.7937 76.5044 87.8328 76.7876 87.8328H77.3809C78.3086 87.8328 79.0508 87.6179 79.6074 87.1882C80.1689 86.7585 80.5718 86.1042 80.8159 85.2253H81.0869L80.6401 88.3821H72.0562V88.1111H72.3857C72.6738 88.1111 72.9058 88.0598 73.0815 87.9573C73.2085 87.8889 73.3062 87.7717 73.3745 87.6057C73.4282 87.4885 73.4551 87.1809 73.4551 86.6829V80.1497C73.4551 79.7004 73.4429 79.4246 73.4185 79.322C73.3696 79.1511 73.2793 79.0193 73.1475 78.9265C72.9619 78.7898 72.708 78.7214 72.3857 78.7214H72.0562V78.4504H80.3691V81.3875H80.0908C79.9492 80.6697 79.749 80.1545 79.4902 79.842C79.2363 79.5295 78.875 79.3 78.4062 79.1536C78.1328 79.0657 77.6201 79.0217 76.8682 79.0217H75.8428ZM91.2236 78.4504V81.1384H90.96C90.8037 80.5183 90.6304 80.074 90.4399 79.8054C90.2495 79.532 89.9883 79.3147 89.6562 79.1536C89.4707 79.0657 89.146 79.0217 88.6821 79.0217H87.9424V86.6829C87.9424 87.1907 87.9692 87.5081 88.0229 87.635C88.0815 87.762 88.1914 87.8743 88.3525 87.9719C88.5186 88.0647 88.7432 88.1111 89.0264 88.1111H89.356V88.3821H84.1558V88.1111H84.4854C84.7734 88.1111 85.0054 88.0598 85.1812 87.9573C85.3081 87.8889 85.4082 87.7717 85.4814 87.6057C85.5352 87.4885 85.562 87.1809 85.562 86.6829V79.0217H84.8442C84.1753 79.0217 83.6895 79.1633 83.3867 79.4465C82.9619 79.842 82.6934 80.406 82.5811 81.1384H82.3027V78.4504H91.2236ZM101.229 78.4504V81.1384H100.965C100.809 80.5183 100.635 80.074 100.445 79.8054C100.254 79.532 99.9932 79.3147 99.6611 79.1536C99.4756 79.0657 99.1509 79.0217 98.687 79.0217H97.9473V86.6829C97.9473 87.1907 97.9741 87.5081 98.0278 87.635C98.0864 87.762 98.1963 87.8743 98.3574 87.9719C98.5234 88.0647 98.748 88.1111 99.0312 88.1111H99.3608V88.3821H94.1606V88.1111H94.4902C94.7783 88.1111 95.0103 88.0598 95.186 87.9573C95.313 87.8889 95.4131 87.7717 95.4863 87.6057C95.54 87.4885 95.5669 87.1809 95.5669 86.6829V79.0217H94.8491C94.1802 79.0217 93.6943 79.1633 93.3916 79.4465C92.9668 79.842 92.6982 80.406 92.5859 81.1384H92.3076V78.4504H101.229ZM105.857 79.0217V83.0647H106.055C106.685 83.0647 107.142 82.8669 107.425 82.4714C107.708 82.0759 107.889 81.4924 107.967 80.7209H108.245V85.9211H107.967C107.908 85.3547 107.784 84.8909 107.593 84.5295C107.408 84.1682 107.19 83.9265 106.941 83.8044C106.692 83.6775 106.331 83.614 105.857 83.614V86.4119C105.857 86.9587 105.879 87.2932 105.923 87.4153C105.972 87.5374 106.06 87.6375 106.187 87.7156C106.314 87.7937 106.519 87.8328 106.802 87.8328H107.396C108.323 87.8328 109.065 87.6179 109.622 87.1882C110.184 86.7585 110.586 86.1042 110.831 85.2253H111.102L110.655 88.3821H102.071V88.1111H102.4C102.688 88.1111 102.92 88.0598 103.096 87.9573C103.223 87.8889 103.321 87.7717 103.389 87.6057C103.443 87.4885 103.47 87.1809 103.47 86.6829V80.1497C103.47 79.7004 103.458 79.4246 103.433 79.322C103.384 79.1511 103.294 79.0193 103.162 78.9265C102.977 78.7898 102.723 78.7214 102.4 78.7214H102.071V78.4504H110.384V81.3875H110.105C109.964 80.6697 109.764 80.1545 109.505 79.842C109.251 79.5295 108.89 79.3 108.421 79.1536C108.147 79.0657 107.635 79.0217 106.883 79.0217H105.857ZM121.238 78.4504V81.1384H120.975C120.818 80.5183 120.645 80.074 120.455 79.8054C120.264 79.532 120.003 79.3147 119.671 79.1536C119.485 79.0657 119.161 79.0217 118.697 79.0217H117.957V86.6829C117.957 87.1907 117.984 87.5081 118.038 87.635C118.096 87.762 118.206 87.8743 118.367 87.9719C118.533 88.0647 118.758 88.1111 119.041 88.1111H119.371V88.3821H114.17V88.1111H114.5C114.788 88.1111 115.02 88.0598 115.196 87.9573C115.323 87.8889 115.423 87.7717 115.496 87.6057C115.55 87.4885 115.577 87.1809 115.577 86.6829V79.0217H114.859C114.19 79.0217 113.704 79.1633 113.401 79.4465C112.977 79.842 112.708 80.406 112.596 81.1384H112.317V78.4504H121.238ZM126.907 85.5549H123.399L122.981 86.5217C122.845 86.844 122.776 87.1101 122.776 87.3201C122.776 87.5984 122.889 87.8035 123.113 87.9353C123.245 88.0134 123.57 88.072 124.087 88.1111V88.3821H120.784V88.1111C121.141 88.0574 121.434 87.9109 121.663 87.6716C121.893 87.4275 122.176 86.927 122.513 86.1702L126.065 78.2454H126.204L129.786 86.3899C130.127 87.1614 130.408 87.6472 130.628 87.8474C130.794 87.9988 131.028 88.0867 131.331 88.1111V88.3821H126.526V88.1111H126.724C127.11 88.1111 127.381 88.0574 127.537 87.95C127.645 87.8718 127.698 87.7595 127.698 87.613C127.698 87.5251 127.684 87.4348 127.654 87.342C127.645 87.2981 127.571 87.115 127.435 86.7927L126.907 85.5549ZM126.658 85.0129L125.179 81.5925L123.655 85.0129H126.658ZM140.977 84.8958L140.604 88.3821H131.785V88.1111H132.115C132.403 88.1111 132.635 88.0598 132.811 87.9573C132.938 87.8889 133.035 87.7717 133.104 87.6057C133.157 87.4885 133.184 87.1809 133.184 86.6829V80.1497C133.184 79.6418 133.157 79.3245 133.104 79.1975C133.05 79.0706 132.94 78.9607 132.774 78.8679C132.613 78.7703 132.393 78.7214 132.115 78.7214H131.785V78.4504H137.081V78.7214H136.648C136.36 78.7214 136.128 78.7727 135.953 78.8752C135.826 78.9436 135.726 79.0608 135.652 79.2268C135.599 79.344 135.572 79.6516 135.572 80.1497V86.4778C135.572 86.9856 135.601 87.3103 135.66 87.4519C135.718 87.5886 135.833 87.6912 136.004 87.7595C136.126 87.8035 136.421 87.8254 136.89 87.8254H137.718C138.245 87.8254 138.685 87.7327 139.036 87.5471C139.388 87.3616 139.69 87.0686 139.944 86.6682C140.203 86.2678 140.447 85.677 140.677 84.8958H140.977ZM153.897 84.8958L153.523 88.3821H144.705V88.1111H145.035C145.323 88.1111 145.555 88.0598 145.73 87.9573C145.857 87.8889 145.955 87.7717 146.023 87.6057C146.077 87.4885 146.104 87.1809 146.104 86.6829V80.1497C146.104 79.6418 146.077 79.3245 146.023 79.1975C145.97 79.0706 145.86 78.9607 145.694 78.8679C145.533 78.7703 145.313 78.7214 145.035 78.7214H144.705V78.4504H150V78.7214H149.568C149.28 78.7214 149.048 78.7727 148.873 78.8752C148.746 78.9436 148.646 79.0608 148.572 79.2268C148.519 79.344 148.492 79.6516 148.492 80.1497V86.4778C148.492 86.9856 148.521 87.3103 148.58 87.4519C148.638 87.5886 148.753 87.6912 148.924 87.7595C149.046 87.8035 149.341 87.8254 149.81 87.8254H150.638C151.165 87.8254 151.604 87.7327 151.956 87.5471C152.308 87.3616 152.61 87.0686 152.864 86.6682C153.123 86.2678 153.367 85.677 153.597 84.8958H153.897ZM154.783 78.4504H159.91V78.7214H159.654C159.268 78.7214 159.002 78.7629 158.855 78.8459C158.714 78.9241 158.611 79.0339 158.548 79.1755C158.489 79.3171 158.46 79.6711 158.46 80.2375V85.1008C158.46 85.9895 158.526 86.5779 158.658 86.866C158.794 87.1541 159.017 87.3933 159.324 87.5837C159.632 87.7742 160.02 87.8694 160.489 87.8694C161.026 87.8694 161.482 87.7498 161.858 87.5105C162.239 87.2664 162.522 86.9319 162.708 86.5071C162.898 86.0823 162.994 85.3425 162.994 84.2878V80.2375C162.994 79.7932 162.947 79.4758 162.854 79.2854C162.762 79.095 162.645 78.9631 162.503 78.8899C162.283 78.7776 161.973 78.7214 161.573 78.7214V78.4504H165.008V78.7214H164.803C164.524 78.7214 164.292 78.7776 164.107 78.8899C163.921 79.0022 163.787 79.1707 163.704 79.3953C163.641 79.5515 163.609 79.8323 163.609 80.2375V84.0095C163.609 85.1765 163.531 86.0188 163.375 86.5364C163.223 87.054 162.85 87.53 162.254 87.9646C161.658 88.3992 160.845 88.6165 159.815 88.6165C158.956 88.6165 158.292 88.5017 157.823 88.2722C157.183 87.9597 156.731 87.5593 156.468 87.071C156.204 86.5828 156.072 85.926 156.072 85.1008V80.2375C156.072 79.6663 156.041 79.3123 155.977 79.1755C155.914 79.0339 155.804 78.9216 155.647 78.8386C155.491 78.7556 155.203 78.7166 154.783 78.7214V78.4504ZM171.607 82.5593L174.346 86.6243C174.8 87.2981 175.123 87.7083 175.313 87.8547C175.508 87.9963 175.738 88.0818 176.001 88.1111V88.3821H171.16V88.1111C171.546 88.0818 171.795 88.0232 171.907 87.9353C172.02 87.8474 172.076 87.74 172.076 87.613C172.076 87.5251 172.059 87.447 172.024 87.3787C171.956 87.2322 171.785 86.9587 171.512 86.5583L170.062 84.4124L168.545 86.2654C168.091 86.8269 167.864 87.2078 167.864 87.408C167.864 87.5496 167.923 87.6814 168.04 87.8035C168.157 87.9255 168.331 88.0134 168.56 88.0671C168.663 88.0964 168.873 88.1111 169.19 88.1111V88.3821H165.374V88.1111C165.809 88.0476 166.15 87.9304 166.399 87.7595C166.727 87.5349 167.183 87.0662 167.769 86.3533L169.739 83.9509L167.212 80.2375C166.797 79.6272 166.561 79.2878 166.502 79.2195C166.37 79.0583 166.241 78.9436 166.114 78.8752C165.987 78.8069 165.811 78.7556 165.586 78.7214V78.4504H170.516V78.7214H170.267C169.983 78.7214 169.786 78.7678 169.673 78.8606C169.561 78.9485 169.505 79.0608 169.505 79.1975C169.505 79.3049 169.522 79.3977 169.556 79.4758L170.062 80.2375L171.292 82.1125L172.339 80.8308C172.876 80.1716 173.145 79.7102 173.145 79.4465C173.145 79.3147 173.106 79.1926 173.028 79.0803C172.955 78.968 172.847 78.8801 172.706 78.8167C172.564 78.7532 172.344 78.7214 172.046 78.7214V78.4504H175.701V78.7214C175.413 78.7263 175.181 78.7629 175.005 78.8313C174.83 78.8948 174.642 79.0168 174.441 79.1975C174.314 79.3147 173.997 79.6785 173.489 80.2888L171.607 82.5593ZM176.463 78.4504H181.59V78.7214H181.333C180.948 78.7214 180.682 78.7629 180.535 78.8459C180.394 78.9241 180.291 79.0339 180.228 79.1755C180.169 79.3171 180.14 79.6711 180.14 80.2375V85.1008C180.14 85.9895 180.206 86.5779 180.337 86.866C180.474 87.1541 180.696 87.3933 181.004 87.5837C181.312 87.7742 181.7 87.8694 182.168 87.8694C182.706 87.8694 183.162 87.7498 183.538 87.5105C183.919 87.2664 184.202 86.9319 184.388 86.5071C184.578 86.0823 184.673 85.3425 184.673 84.2878V80.2375C184.673 79.7932 184.627 79.4758 184.534 79.2854C184.441 79.095 184.324 78.9631 184.183 78.8899C183.963 78.7776 183.653 78.7214 183.252 78.7214V78.4504H186.688V78.7214H186.482C186.204 78.7214 185.972 78.7776 185.787 78.8899C185.601 79.0022 185.467 79.1707 185.384 79.3953C185.32 79.5515 185.289 79.8323 185.289 80.2375V84.0095C185.289 85.1765 185.21 86.0188 185.054 86.5364C184.903 87.054 184.529 87.53 183.934 87.9646C183.338 88.3992 182.525 88.6165 181.495 88.6165C180.635 88.6165 179.971 88.5017 179.502 88.2722C178.863 87.9597 178.411 87.5593 178.147 87.071C177.884 86.5828 177.752 85.926 177.752 85.1008V80.2375C177.752 79.6663 177.72 79.3123 177.657 79.1755C177.593 79.0339 177.483 78.9216 177.327 78.8386C177.171 78.7556 176.883 78.7166 176.463 78.7214V78.4504ZM190.936 83.8557V86.6389C190.936 87.176 190.967 87.5154 191.031 87.657C191.099 87.7937 191.216 87.9036 191.382 87.9866C191.548 88.0696 191.858 88.1111 192.312 88.1111V88.3821H187.229V88.1111C187.688 88.1111 187.999 88.0696 188.16 87.9866C188.326 87.8987 188.44 87.7864 188.504 87.6497C188.572 87.5129 188.606 87.176 188.606 86.6389V80.1936C188.606 79.6565 188.572 79.3196 188.504 79.1829C188.44 79.0413 188.326 78.929 188.16 78.8459C187.994 78.7629 187.684 78.7214 187.229 78.7214V78.4504H191.844C193.045 78.4504 193.924 78.5334 194.48 78.6995C195.037 78.8655 195.491 79.1731 195.843 79.6223C196.194 80.0667 196.37 80.5891 196.37 81.1897C196.37 81.9221 196.106 82.5276 195.579 83.0061C195.242 83.3088 194.771 83.5359 194.166 83.6873L196.553 87.0491C196.866 87.4836 197.088 87.7546 197.22 87.8621C197.42 88.0134 197.652 88.0964 197.916 88.1111V88.3821H194.788L191.587 83.8557H190.936ZM190.936 78.9851V83.3357H191.353C192.032 83.3357 192.54 83.2747 192.876 83.1526C193.213 83.0256 193.477 82.801 193.667 82.4788C193.863 82.1516 193.96 81.7268 193.96 81.2043C193.96 80.4475 193.782 79.8884 193.426 79.5271C193.074 79.1658 192.505 78.9851 191.719 78.9851H190.936ZM207.928 78.4504V78.7214C207.601 78.7654 207.349 78.8606 207.173 79.0071C206.929 79.2122 206.543 79.7712 206.016 80.6843L203.863 84.2805V86.6829C203.863 87.1956 203.89 87.5154 203.943 87.6423C203.997 87.7644 204.102 87.8743 204.258 87.9719C204.419 88.0647 204.632 88.1111 204.896 88.1111H205.452V88.3821H199.878V88.1111H200.398C200.691 88.1111 200.923 88.0598 201.094 87.9573C201.221 87.8889 201.321 87.7717 201.395 87.6057C201.448 87.4885 201.475 87.1809 201.475 86.6829V84.6907L199.139 80.4353C198.675 79.5955 198.348 79.1023 198.157 78.9558C197.967 78.8044 197.713 78.7263 197.396 78.7214V78.4504H202.156V78.7214H201.944C201.656 78.7214 201.453 78.7629 201.336 78.8459C201.224 78.929 201.167 79.0168 201.167 79.1096C201.167 79.2854 201.363 79.7273 201.753 80.4353L203.548 83.7239L205.335 80.7283C205.779 79.9958 206.001 79.51 206.001 79.2708C206.001 79.1389 205.938 79.0291 205.811 78.9412C205.645 78.8191 205.34 78.7458 204.896 78.7214V78.4504H207.928Z" fill="white"/>
<path d="M8.39062 57.7031C8.74219 57.7031 9.07422 57.4688 9.15234 57.1172L15.5781 33.1914C15.6953 33.1914 15.8125 33.1719 15.9297 33.1328C17.1797 32.5859 18.4297 32.0391 19.6797 31.4531C19.8164 31.4141 19.9336 31.3555 20.0703 31.2969C21.4766 30.7305 22.9219 30.2227 24.3672 29.7539C27.2578 28.8359 30.2266 28.0742 33.2148 27.5664C35.5391 27.1953 37.8633 26.9609 40.207 26.9609C40.9102 26.9609 41.5938 26.9805 42.2969 27.0195C43.8008 27.1367 45.3047 27.3711 46.7695 27.7812C48.2148 28.1914 49.6016 28.7773 50.8516 29.5586C51.2422 29.8125 51.5938 30.0664 51.9258 30.3398C49.9727 30.6719 48.0391 31.0625 46.125 31.4922C40.168 32.8789 34.3086 34.8125 28.8203 37.6055C26.1055 39.0117 23.4688 40.6328 21.0664 42.5859C19.875 43.5625 18.7422 44.6367 17.7656 45.8477C17.2773 46.4727 16.8086 47.1172 16.4375 47.8203C16.0859 48.5234 15.793 49.3047 15.6953 50.1445L15.6758 50.4766C15.6758 50.7891 15.7148 51.1211 15.793 51.4336C15.9102 51.8633 16.1055 52.2734 16.3789 52.625C16.9062 53.3477 17.6875 53.7969 18.4492 54.0898C19.2109 54.3633 20.0117 54.5195 20.793 54.6172C21.3984 54.6758 22.0234 54.6953 22.6094 54.6953H23.1562C26.2812 54.6172 29.3672 54.0312 32.3359 53.1523C33.8398 52.7227 35.2852 52.1953 36.7305 51.6289C38.1758 51.043 39.582 50.3984 40.9492 49.6758C43.7031 48.25 46.3398 46.5703 48.7617 44.5781C49.9531 43.5625 51.1055 42.4883 52.1406 41.2773C53.1562 40.0664 54.0742 38.7383 54.6797 37.1758C54.9727 36.4141 55.168 35.5938 55.207 34.7344V34.4414C55.207 33.6797 55.0703 32.918 54.7578 32.2148C54.4648 31.5312 54.0547 30.9453 53.5664 30.4375L55.207 30.2031C58.2344 29.8125 61.2617 29.5391 64.3086 29.3828C64.4258 29.3828 64.4844 29.2852 64.4844 29.1875C64.4844 29.0898 64.4062 29.0117 64.2891 29.0117C60.5977 29.207 56.9062 29.5781 53.2539 30.1445C52.6484 29.5977 51.9844 29.1484 51.3008 28.7969C49.9141 28.0547 48.4297 27.5469 46.9062 27.1953C45.4023 26.8633 43.8594 26.668 42.3359 26.5898C41.6328 26.5508 40.9297 26.5312 40.2266 26.5312C37.8438 26.5312 35.4805 26.7461 33.1367 27.0781C30.6953 27.4297 28.2734 27.9375 25.8906 28.5234C27.5117 27.7227 29.1133 26.9023 30.7148 26.0625C33.1367 24.793 35.5195 23.4648 37.8828 22.0391C39.0547 21.3359 40.207 20.5938 41.3594 19.8125C42.4922 19.0312 43.6055 18.2109 44.6797 17.3125C45.207 16.8438 45.7344 16.375 46.2422 15.8477C46.7305 15.3203 47.1992 14.7344 47.5703 14.0312C47.7656 13.6602 47.9219 13.25 47.9805 12.7617V12.5664C47.9805 12.3906 47.9609 12.2148 47.9414 12.0195C47.8828 11.7656 47.7852 11.5117 47.6484 11.2969C47.375 10.8672 47.0234 10.5547 46.6523 10.3398C46.3008 10.125 45.9492 9.96875 45.5781 9.83203C44.8555 9.59766 44.1523 9.46094 43.4492 9.36328C42.7461 9.26562 42.043 9.20703 41.3594 9.16797C40.4219 9.10938 39.5039 9.10938 38.6055 9.10938H37.2188C32.0039 9.1875 26.8086 9.63672 21.6719 10.4375L22.3555 7.85938C22.375 7.80078 22.375 7.72266 22.375 7.66406C22.375 7.3125 22.1602 7 21.8086 6.90234C21.7305 6.88281 21.6719 6.88281 21.5938 6.88281C21.2422 6.88281 20.9297 7.11719 20.832 7.46875L19.9531 10.7305C17.5703 11.1211 15.207 11.6094 12.8633 12.1953C10.207 12.8594 7.57031 13.6406 5.03125 14.6562C4.38672 14.9102 3.76172 15.1836 3.13672 15.4961C2.53125 15.8086 1.92578 16.1406 1.35938 16.5898C1.08594 16.8242 0.8125 17.0586 0.617188 17.4297C0.539062 17.5664 0.5 17.7227 0.5 17.8984L0.519531 18.0938C0.578125 18.3281 0.734375 18.5039 0.890625 18.6211C1.22266 18.875 1.55469 18.9727 1.90625 19.0703C2.53125 19.2461 2.78516 19.2656 3.44922 19.3438C3.60547 19.3633 3.76172 19.4023 3.91797 19.4414C4.23047 19.5 4.54297 19.6172 4.81641 19.7734C5.40234 20.0664 5.91016 20.4961 6.32031 21.0039C7.17969 22.0195 7.72656 23.2695 8.13672 24.5391C8.56641 25.8086 8.83984 27.1367 9.03516 28.4844C9.25 29.8125 9.38672 31.1602 9.46484 32.5078C9.54297 33.875 9.58203 35.2227 9.58203 36.5898V37.293C9.58203 38.4062 9.54297 39.5195 9.48438 40.6523C9.36719 43.3672 9.13281 46.0625 8.83984 48.7578C8.50781 51.4531 8.13672 54.1484 7.60938 56.8047V56.9219C7.60938 57.2734 7.84375 57.5859 8.19531 57.6836C8.25391 57.7031 8.33203 57.7031 8.39062 57.7031ZM9.85547 48.4453C10.0117 45.8477 10.1094 43.2695 10.1484 40.6719V39.168C10.1484 36.9414 10.1094 34.7148 9.93359 32.4883C9.71875 29.7539 9.38672 27.0195 8.54688 24.4023C8.11719 23.0938 7.55078 21.8047 6.67188 20.7109C6.22266 20.1641 5.67578 19.6953 5.03125 19.3633C4.71875 19.207 4.36719 19.0703 4.03516 18.9922C3.50781 18.875 3.48828 18.8945 3 18.8359C2.66797 18.7773 2.33594 18.7188 2.02344 18.6211C1.71094 18.543 1.41797 18.4258 1.18359 18.25C1.04688 18.1328 0.988281 18.0352 0.988281 17.8984C0.988281 17.8203 1.00781 17.7422 1.04688 17.6445C1.18359 17.4102 1.41797 17.1758 1.67188 16.9805C2.17969 16.5898 2.78516 16.2773 3.37109 15.9844C3.97656 15.6914 4.60156 15.418 5.22656 15.1836C6.49609 14.6953 7.78516 14.2852 9.09375 13.9141C10.3828 13.543 11.7109 13.2109 13.0195 12.918C15.2266 12.4297 17.4727 12.0195 19.6992 11.6875L9.85547 48.4453ZM16.0859 31.3164L21.3984 11.4336C26.2422 10.7891 31.1055 10.4766 35.9688 10.4766H37.2188C38.5664 10.4961 39.9336 10.5352 41.2617 10.6133C41.9258 10.6719 42.5898 10.7305 43.2148 10.8477C43.8594 10.9453 44.4844 11.082 45.0508 11.2969C45.3438 11.3945 45.5977 11.5312 45.832 11.668C46.0469 11.8047 46.2031 11.9609 46.2812 12.1172C46.3398 12.1953 46.3594 12.2539 46.3789 12.332V12.6055C46.3594 12.8008 46.2617 13.0352 46.1445 13.2695C45.8906 13.7578 45.4805 14.2461 45.0312 14.7148C44.6016 15.1641 44.1133 15.5938 43.6055 16.0234C41.5547 17.6836 39.2695 19.1484 36.9648 20.5352C34.6406 21.9023 32.2773 23.2109 29.875 24.4805C27.4922 25.75 25.0703 26.9805 22.6289 28.1719C20.4609 29.2461 18.2734 30.2812 16.0859 31.3164ZM21.9062 53.582C21.5742 53.582 21.2422 53.5625 20.9102 53.543C20.168 53.4844 19.4648 53.3672 18.7812 53.1328C18.1367 52.8984 17.5117 52.5469 17.1211 52.0586C16.75 51.5898 16.5742 51.0234 16.5742 50.3984V50.2227C16.6328 49.5391 16.8672 48.8555 17.1797 48.1914C17.5117 47.5469 17.9219 46.9219 18.3711 46.3359C19.2695 45.1445 20.3633 44.0898 21.5156 43.1133C23.8203 41.1602 26.3984 39.5195 29.0938 38.1133C31.7695 36.6875 34.582 35.4961 37.4531 34.4609C40.3047 33.4258 43.2539 32.5664 46.2031 31.8828C48.2148 31.3945 50.2266 31.0039 52.2578 30.6523C52.3555 30.75 52.4531 30.8281 52.5312 30.9258C53.0195 31.4336 53.3906 32.0195 53.6055 32.6641C53.7617 33.1328 53.8594 33.6211 53.8594 34.1289L53.8203 34.6367C53.7422 35.3008 53.5469 35.9648 53.2734 36.6094C52.707 37.8984 51.8281 39.0898 50.8711 40.2031C49.9141 41.3164 48.8398 42.332 47.6875 43.2891C46.5547 44.2461 45.3438 45.125 44.0742 45.9648C42.8242 46.7852 41.5352 47.5664 40.207 48.2695C37.5703 49.6758 34.7969 50.8867 31.9258 51.8242C29.0742 52.7422 26.1055 53.3867 23.1172 53.543C22.707 53.5625 22.2969 53.582 21.9062 53.582ZM65.3438 24.9688L65.5195 24.9492C65.6367 24.9297 65.7344 24.8906 65.8516 24.8516L66.1055 24.6758C66.3984 24.4219 66.5547 24.1484 66.6328 23.8164L66.6523 23.7188C66.6523 23.6602 66.6328 23.6211 66.5938 23.5625C66.5352 23.4844 66.457 23.4258 66.3594 23.4258C66.2617 23.4258 66.2227 23.4648 66.125 23.5234C65.9297 23.6406 65.7148 23.7773 65.5781 23.8164H65.4805L65.4219 23.7969L65.4023 23.7578H65.3828L65.1875 23.4648L65.1289 23.3281C65.0898 23.2305 65.0312 23.1523 64.9922 23.0352L64.8555 22.6641C64.8359 22.6641 64.8359 22.6445 64.8359 22.625C64.6992 22.3516 64.4258 22.1953 64.1328 22.1953C64.0156 22.1953 63.8789 22.2344 63.7617 22.293C63.4883 22.4297 63.332 22.7227 63.332 23.0156C63.332 23.1328 63.3516 23.25 63.4102 23.3672L63.6445 23.7578C63.7227 23.8945 63.8203 24.0312 63.918 24.1484C63.957 24.2266 64.0352 24.2852 64.0938 24.3438L64.2695 24.5391C64.4453 24.6562 64.582 24.7734 64.8164 24.8711L64.9727 24.9297L65.3438 24.9688ZM64.9141 42.4102C65.6953 42.4102 66.418 42.1953 67.043 41.9023C67.707 41.6094 68.293 41.1992 68.8594 40.7695C69.4062 40.3398 69.9141 39.8711 70.4023 39.3828C71.3789 38.3867 72.2383 37.3516 73.0586 36.2578C74.6797 34.0703 76.1055 31.7852 77.3945 29.3828C77.4336 29.3242 77.4531 29.2461 77.4531 29.1875C77.4531 29.0508 77.375 28.9141 77.2383 28.8359C77.1797 28.7969 77.1211 28.7773 77.043 28.7773C76.9062 28.7773 76.7695 28.8555 76.6914 28.9922H76.6719C75.3633 31.2969 73.8789 33.543 72.2578 35.6328C71.4375 36.6875 70.5586 37.6836 69.6211 38.582C69.1523 39.0508 68.6641 39.4609 68.1562 39.8516C67.6484 40.2422 67.1016 40.5742 66.5547 40.8086C66.0664 41.043 65.5586 41.1602 65.0703 41.1602H64.875C64.3281 41.1211 63.8984 40.9062 63.6055 40.5156C63.293 40.125 63.1367 39.5391 63.0391 38.9531C63 38.6016 62.9805 38.2305 62.9805 37.8594L63 37.0781C63.0781 35.8086 63.3125 34.5 63.625 33.2305C63.918 31.9609 64.3086 30.6719 64.7383 29.4609V29.4219C64.7773 29.3438 64.7773 29.2461 64.7773 29.168C64.7773 28.8359 64.582 28.543 64.2305 28.4258C64.1523 28.4062 64.0742 28.3867 63.9766 28.3867C63.6641 28.3867 63.3516 28.582 63.2344 28.9336C62.8047 30.2422 62.4531 31.5508 62.1602 32.8984C61.8672 34.2461 61.6523 35.6133 61.5938 37.0195V37.4688C61.5938 38.0352 61.6328 38.582 61.7109 39.168C61.8281 39.8711 62.0625 40.6523 62.5898 41.3164C62.8438 41.6484 63.1953 41.9414 63.5859 42.1172C63.9961 42.293 64.4062 42.3906 64.7969 42.4102H64.9141ZM105.422 57.7031C105.773 57.7031 106.105 57.4688 106.184 57.1172L114.172 27.3516C115.246 27.4297 116.301 27.4883 117.375 27.5469C118.664 27.625 119.953 27.6836 121.262 27.7422C123.84 27.8398 126.438 27.8789 129.035 27.8789C131.613 27.8398 134.211 27.7227 136.809 27.5469C139.406 27.293 141.984 26.9609 144.562 26.4531H144.602C144.953 26.3555 145.188 26.043 145.188 25.6914C145.188 25.6133 145.188 25.5547 145.168 25.4766C145.09 25.125 144.758 24.8906 144.387 24.8906L144.191 24.9102C141.75 25.5547 139.23 25.9844 136.691 26.2773C135.402 26.3945 134.133 26.5312 132.863 26.5898C130.969 26.707 131.008 26.6875 129.016 26.7266L127.473 26.7461C125.422 26.7461 123.371 26.668 121.32 26.5508C119.055 26.3945 116.789 26.1797 114.562 25.8672L118.176 12.4297C122.473 12.6055 126.77 12.7031 131.086 12.7227C133.352 12.7227 135.598 12.7227 137.863 12.6641C140.129 12.6055 142.395 12.5273 144.641 12.4102C149.172 12.1562 153.684 11.7266 158.195 11.0234L158.215 11.0039C158.586 10.9258 158.859 10.5938 158.859 10.2227L158.84 10.0859C158.762 9.71484 158.43 9.44141 158.059 9.44141L157.902 9.46094C153.527 10.3594 149.055 10.9062 144.562 11.2969C142.336 11.4922 140.09 11.6484 137.824 11.7461C135.578 11.8633 133.332 11.9219 131.086 11.9609C129.523 11.9805 127.961 12 126.398 12C123.703 12 121.008 11.9609 118.312 11.9023L119.387 7.85938C119.406 7.80078 119.406 7.72266 119.406 7.66406C119.406 7.3125 119.191 7 118.84 6.90234C118.762 6.88281 118.703 6.88281 118.625 6.88281C118.273 6.88281 117.961 7.11719 117.863 7.46875L116.691 11.8633C112.453 11.7461 108.234 11.5508 104.016 11.4531C103.312 11.4336 102.609 11.4141 101.906 11.4141L100.617 11.4336C100.344 11.4336 100.051 11.4531 99.7578 11.4727C99.4844 11.5117 99.1914 11.5312 98.8984 11.6289C98.8203 11.668 98.7422 11.6875 98.6445 11.7656C98.6055 11.8047 98.5664 11.8828 98.5469 11.9805C98.5469 12.0586 98.5859 12.1172 98.6055 12.1758C98.7227 12.3516 98.8594 12.4102 98.9961 12.4883C99.25 12.6445 99.5039 12.7617 99.7773 12.8594C100.031 12.9766 100.305 13.0742 100.559 13.1719C100.832 13.2695 101.105 13.3477 101.34 13.4648C101.848 13.6992 102.316 13.9922 102.746 14.3438C103.605 15.0469 104.27 15.9453 104.816 16.9219C105.363 17.8984 105.773 18.9336 106.105 20.0078C106.438 21.082 106.691 22.1758 106.887 23.2891C107.297 25.4961 107.473 27.7422 107.551 29.9883C107.57 30.8086 107.59 31.6484 107.59 32.4688C107.59 36.1602 107.316 39.832 106.926 43.4844C106.789 44.5977 106.652 45.7109 106.496 46.8242C106.34 47.9375 106.164 49.0508 105.969 50.1641C105.598 52.3711 105.168 54.5977 104.66 56.7656L104.641 56.9414C104.641 57.2734 104.875 57.5859 105.227 57.6836C105.285 57.7031 105.363 57.7031 105.422 57.7031ZM107.336 46.7266C107.434 45.6719 107.512 44.5977 107.59 43.543C107.805 40.3398 107.961 37.1172 107.961 33.9141C107.961 32.5859 107.941 31.2773 107.883 29.9688C107.785 27.7227 107.57 25.457 107.18 23.2305C106.965 22.1172 106.711 21.0039 106.379 19.9297C106.047 18.8359 105.637 17.7617 105.09 16.7656C104.523 15.7695 103.84 14.832 102.941 14.0898C102.492 13.7383 102.004 13.4258 101.477 13.1719C101.223 13.0547 100.93 12.957 100.676 12.8594L99.8945 12.5664L99.1523 12.2148C99.0547 12.1367 98.9375 12.0586 98.8984 12L98.9961 11.9414C99.2305 11.8633 99.5234 11.8438 99.7969 11.8242C100.07 11.7852 100.344 11.7852 100.637 11.7852L101.613 11.7656C102.414 11.7656 103.215 11.8047 103.996 11.8242C109.914 12.0195 110.07 12.0781 116.555 12.3711L112.883 26.082C112.805 26.1797 112.766 26.3164 112.746 26.4336V26.5312L107.336 46.7266ZM151.965 36.3359L152.531 36.3164C152.961 36.2773 153.41 36.1992 153.82 36.1016C154.68 35.9062 155.48 35.6328 156.281 35.3203C157.062 35.0273 157.844 34.6758 158.605 34.3242C160.129 33.6211 161.613 32.8008 163.059 31.9609C164.504 31.1016 165.93 30.2031 167.336 29.2656L167.375 29.2461C167.473 29.168 167.531 29.0508 167.531 28.9141C167.531 28.8164 167.512 28.7188 167.434 28.6406C167.355 28.543 167.238 28.4844 167.102 28.4844C167.023 28.4844 166.926 28.5234 166.828 28.582C164.25 30.6523 161.301 32.2734 158.273 33.6016C156.77 34.2461 155.207 34.8125 153.625 35.125C153.156 35.2227 152.648 35.2812 152.18 35.2812C151.887 35.2812 151.613 35.2617 151.34 35.2031C150.676 35.0469 150.402 34.6953 150.402 34.0508V33.9727C150.422 33.6406 150.5 33.2695 150.617 32.8984C150.793 32.3906 150.793 32.3906 151.047 31.8047C151.301 31.1992 151.594 30.6133 151.926 30.0469H152.238C152.707 30.0273 153.176 29.9492 153.625 29.832C154.504 29.5977 155.305 29.168 155.988 28.6211C156.164 28.4648 156.34 28.3477 156.496 28.1914C156.984 27.7227 157.004 27.7422 157.375 27.1758C157.492 26.9805 157.629 26.7656 157.688 26.4727C157.707 26.4141 157.707 26.3359 157.707 26.2578C157.707 26.1797 157.688 26.1016 157.668 26.0039C157.648 25.9258 157.59 25.8477 157.551 25.7695C157.512 25.6719 157.434 25.6328 157.355 25.5742C157.082 25.3594 156.789 25.3398 156.535 25.3398C156.047 25.3398 155.598 25.4766 155.188 25.6523C154.348 26.0039 153.625 26.5117 152.961 27.0977C152.453 27.5469 152.004 28.0547 151.594 28.6016L151.555 28.582C151.496 28.543 151.398 28.5039 151.379 28.4648C151.262 28.2305 151.047 28.0547 150.793 27.9766L150.559 27.9375C150.129 27.9375 149.738 28.2305 149.641 28.6406L149.621 28.8945C149.621 29.5586 150.051 29.7148 150.715 29.9102C150.246 30.7305 150.109 31.0625 149.738 31.9414C149.66 32.1367 149.582 32.3516 149.523 32.5664C149.387 32.9961 149.27 33.4453 149.27 33.9531V34.0898C149.27 34.2852 149.309 34.5 149.348 34.7148C149.426 34.9883 149.543 35.2617 149.719 35.4961C149.914 35.7109 150.148 35.9062 150.383 36.0234C150.637 36.1406 150.891 36.2188 151.125 36.2773C151.418 36.3164 151.691 36.3359 151.965 36.3359ZM153.059 28.9336C152.941 28.9336 152.805 28.9336 152.688 28.9141C152.961 28.5234 153.273 28.1328 153.625 27.7812C154.191 27.2344 154.816 26.7266 155.5 26.3945C155.852 26.2188 156.223 26.1016 156.555 26.082C156.711 26.082 156.867 26.1016 156.926 26.1602C156.945 26.1797 156.965 26.1797 156.965 26.2188C156.984 26.2383 156.984 26.2383 156.984 26.2773L156.965 26.3555C156.965 26.4922 156.867 26.6484 156.789 26.8047L156.438 27.2539L156.008 27.6641C155.871 27.8203 155.715 27.918 155.559 28.0547C154.934 28.5234 154.191 28.8555 153.449 28.9141C153.332 28.9336 153.195 28.9336 153.059 28.9336ZM166.73 37.625C167.297 37.625 167.824 37.4688 168.293 37.2734C168.801 37.0586 169.25 36.7656 169.68 36.4531C170.52 35.8281 171.262 35.125 171.965 34.3633C172.648 33.6016 173.312 32.8398 173.938 32.0391C174.621 31.1797 175.266 30.3203 175.93 29.4414C175.949 29.9883 176.027 30.5352 176.223 31.082C176.34 31.4727 176.535 31.8438 176.809 32.1953C177.082 32.5469 177.434 32.8398 177.844 33.0156C178.234 33.2109 178.664 33.2891 179.055 33.3281L179.387 33.3477C179.68 33.3477 179.953 33.3086 180.227 33.2695C180.969 33.1523 181.672 32.918 182.336 32.6445C183 32.3711 183.645 32.0586 184.27 31.7266C185.5 31.043 186.672 30.2617 187.805 29.4414C187.902 29.3828 187.941 29.2852 187.941 29.1875C187.941 29.1289 187.922 29.0703 187.902 29.0312C187.844 28.9336 187.727 28.8945 187.629 28.8945C187.57 28.8945 187.512 28.8945 187.473 28.9336C186.301 29.6758 185.109 30.3594 183.859 30.9453C183.254 31.2383 182.629 31.5117 181.984 31.7266C181.359 31.9414 180.715 32.1172 180.09 32.1758L179.66 32.1953C179.191 32.1953 178.742 32.1172 178.391 31.9219C177.941 31.6875 177.668 31.2383 177.512 30.6719C177.395 30.2812 177.355 29.832 177.355 29.3828L177.375 28.8555C177.395 28.5234 177.434 28.2109 177.492 27.8789C177.551 27.5664 177.629 27.2344 177.707 26.9609L177.746 26.7461C177.746 26.4727 177.609 26.2188 177.355 26.0625C177.219 25.9844 177.082 25.9453 176.945 25.9453C176.672 25.9453 176.379 26.082 176.242 26.3555C175.871 27.2539 175.383 28.1523 174.895 29.0117C174.641 29.4414 174.367 29.8711 174.094 30.2812C173.82 30.6914 173.547 31.1016 173.254 31.5117C172.668 32.3125 172.043 33.0938 171.359 33.7969C170.676 34.5195 169.973 35.2031 169.172 35.7695C168.781 36.043 168.371 36.2773 167.941 36.4531C167.57 36.6094 167.16 36.707 166.77 36.707H166.672C166.477 36.6875 166.32 36.6289 166.184 36.5508C166.066 36.4727 165.969 36.3555 165.91 36.1992C165.812 35.9648 165.773 35.6719 165.773 35.3594L165.793 34.9688C165.91 34.0508 166.184 33.1133 166.535 32.1953C166.887 31.2773 167.316 30.3789 167.766 29.5391L167.824 29.4414C167.863 29.3438 167.883 29.2461 167.883 29.1484C167.883 28.8359 167.688 28.5234 167.375 28.4062C167.277 28.3672 167.18 28.3477 167.082 28.3477C166.75 28.3477 166.457 28.543 166.34 28.8555C165.949 29.832 165.617 30.7891 165.324 31.7852C165.031 32.7812 164.777 33.7969 164.719 34.8906C164.719 35.4375 164.719 36.0234 164.992 36.6094C165.07 36.7656 165.168 36.9023 165.285 37.0391C165.402 37.1758 165.539 37.293 165.695 37.3906C165.988 37.5664 166.34 37.625 166.633 37.625H166.73ZM184.855 42.5859C185.051 42.5859 185.227 42.5664 185.402 42.5469C185.715 42.4883 186.027 42.4102 186.34 42.3125L186.789 42.1172C186.945 42.0391 187.082 41.9609 187.219 41.8633C187.785 41.4922 188.234 40.9453 188.547 40.3594C188.84 39.7734 189.016 39.168 189.133 38.543C189.289 37.7617 189.348 36.9805 189.348 36.2188C189.348 35.7695 189.328 35.3203 189.289 34.8906C189.25 33.9922 189.152 33.0938 189.035 32.2148C189.621 31.7656 190.207 31.375 190.852 31.043C191.867 30.4766 192.941 30.0469 194.055 29.7734C195.012 29.5391 196.027 29.4414 197.004 29.4414H197.492V29.4609C197.629 29.4609 197.746 29.3438 197.746 29.207L197.766 29.168C197.766 29.0508 197.648 28.9336 197.512 28.9336L196.906 28.9141C195.91 28.9141 194.914 29.0312 193.938 29.2852C192.785 29.5781 191.652 30.0078 190.598 30.5938C190.031 30.8867 189.484 31.2383 188.957 31.6094C188.957 31.5117 188.938 31.4336 188.918 31.3359L188.488 28.3086C188.996 27.6055 189.504 26.9219 189.973 26.2188C190.305 25.7305 190.637 25.2227 190.93 24.6953C191.223 24.168 191.496 23.6406 191.633 23.0156C191.691 22.8398 191.711 22.6641 191.711 22.4688C191.711 22.3125 191.691 22.1562 191.633 21.9805C191.574 21.7852 191.477 21.6094 191.32 21.4531C191.184 21.3164 191.008 21.2188 190.832 21.1406C190.5 20.9844 190.148 20.9453 189.836 20.9453H189.68C189.426 20.9453 189.387 20.9453 189.094 20.9648L188.82 21.0234C188.469 21.1211 188.117 21.3164 187.844 21.5898C187.57 21.8633 187.375 22.1758 187.238 22.5078C186.965 23.1523 186.867 23.7969 186.828 24.4219L186.809 25.1641C186.809 26.1406 186.926 27.0977 187.043 28.0352C187.199 29.2266 187.395 30.3789 187.57 31.5312L187.727 32.5664C186.789 33.3477 185.949 34.2461 185.188 35.2031C184.465 36.1602 183.82 37.1953 183.352 38.3086C183.117 38.875 182.941 39.4609 182.863 40.1055C182.844 40.2422 182.844 40.3984 182.844 40.5352C182.844 40.7109 182.863 40.9062 182.883 41.082C182.941 41.4336 183.098 41.7852 183.391 42.0781C183.664 42.3516 184.035 42.4883 184.387 42.5469C184.562 42.5664 184.699 42.5859 184.855 42.5859ZM184.738 41.7461C184.406 41.7461 184.133 41.668 183.938 41.4922C183.703 41.2773 183.586 40.8672 183.586 40.4375V40.1641C183.625 39.6367 183.781 39.0898 183.977 38.5625C184.387 37.5078 184.992 36.5117 185.676 35.5742C186.32 34.7344 187.023 33.9336 187.824 33.2109V33.2695C187.902 33.8359 187.98 34.4219 188.02 34.9883C188.078 35.6133 188.117 36.2578 188.117 36.8828C188.117 37.3906 188.098 37.8789 188.02 38.3672C187.883 39.4414 187.492 40.4766 186.672 41.082C186.281 41.3945 185.773 41.5703 185.246 41.6875C185.07 41.7266 184.895 41.7461 184.738 41.7461ZM188.41 27.6641C188.273 26.5703 188.156 25.4961 188.137 24.4609C188.137 22.9766 188.371 22.0977 189.445 21.8633L189.855 21.8047L190.109 21.7852C190.285 21.7852 190.441 21.8047 190.578 21.8633C190.793 21.9219 190.93 22.0195 191.008 22.1953C191.066 22.332 191.086 22.4883 191.086 22.6445L191.066 22.8984C190.988 23.4258 190.773 23.9727 190.52 24.4805C190.266 25.0078 189.973 25.5156 189.66 26.0039C189.27 26.5703 188.84 27.1172 188.41 27.6641ZM198.762 36.3359L199.328 36.3164C199.758 36.2773 200.207 36.1992 200.617 36.1016C201.477 35.9062 202.277 35.6328 203.078 35.3203C203.859 35.0273 204.641 34.6758 205.402 34.3242C206.926 33.6211 208.41 32.8008 209.855 31.9609C211.301 31.1016 212.727 30.2031 214.133 29.2656L214.172 29.2461C214.27 29.168 214.328 29.0508 214.328 28.9141C214.328 28.8164 214.309 28.7188 214.23 28.6406C214.152 28.543 214.035 28.4844 213.898 28.4844C213.82 28.4844 213.723 28.5234 213.625 28.582C211.047 30.6523 208.098 32.2734 205.07 33.6016C203.566 34.2461 202.004 34.8125 200.422 35.125C199.953 35.2227 199.445 35.2812 198.977 35.2812C198.684 35.2812 198.41 35.2617 198.137 35.2031C197.473 35.0469 197.199 34.6953 197.199 34.0508V33.9727C197.219 33.6406 197.297 33.2695 197.414 32.8984C197.59 32.3906 197.59 32.3906 197.844 31.8047C198.098 31.1992 198.391 30.6133 198.723 30.0469H199.035C199.504 30.0273 199.973 29.9492 200.422 29.832C201.301 29.5977 202.102 29.168 202.785 28.6211C202.961 28.4648 203.137 28.3477 203.293 28.1914C203.781 27.7227 203.801 27.7422 204.172 27.1758C204.289 26.9805 204.426 26.7656 204.484 26.4727C204.504 26.4141 204.504 26.3359 204.504 26.2578C204.504 26.1797 204.484 26.1016 204.465 26.0039C204.445 25.9258 204.387 25.8477 204.348 25.7695C204.309 25.6719 204.23 25.6328 204.152 25.5742C203.879 25.3594 203.586 25.3398 203.332 25.3398C202.844 25.3398 202.395 25.4766 201.984 25.6523C201.145 26.0039 200.422 26.5117 199.758 27.0977C199.25 27.5469 198.801 28.0547 198.391 28.6016L198.352 28.582C198.293 28.543 198.195 28.5039 198.176 28.4648C198.059 28.2305 197.844 28.0547 197.59 27.9766L197.355 27.9375C196.926 27.9375 196.535 28.2305 196.438 28.6406L196.418 28.8945C196.418 29.5586 196.848 29.7148 197.512 29.9102C197.043 30.7305 196.906 31.0625 196.535 31.9414C196.457 32.1367 196.379 32.3516 196.32 32.5664C196.184 32.9961 196.066 33.4453 196.066 33.9531V34.0898C196.066 34.2852 196.105 34.5 196.145 34.7148C196.223 34.9883 196.34 35.2617 196.516 35.4961C196.711 35.7109 196.945 35.9062 197.18 36.0234C197.434 36.1406 197.688 36.2188 197.922 36.2773C198.215 36.3164 198.488 36.3359 198.762 36.3359ZM199.855 28.9336C199.738 28.9336 199.602 28.9336 199.484 28.9141C199.758 28.5234 200.07 28.1328 200.422 27.7812C200.988 27.2344 201.613 26.7266 202.297 26.3945C202.648 26.2188 203.02 26.1016 203.352 26.082C203.508 26.082 203.664 26.1016 203.723 26.1602C203.742 26.1797 203.762 26.1797 203.762 26.2188C203.781 26.2383 203.781 26.2383 203.781 26.2773L203.762 26.3555C203.762 26.4922 203.664 26.6484 203.586 26.8047L203.234 27.2539L202.805 27.6641C202.668 27.8203 202.512 27.918 202.355 28.0547C201.73 28.5234 200.988 28.8555 200.246 28.9141C200.129 28.9336 199.992 28.9336 199.855 28.9336ZM216.145 40.7305C216.203 40.7305 216.262 40.7305 216.32 40.7109C216.496 40.6914 216.633 40.6328 216.75 40.5938L217.062 40.418C217.258 40.3008 217.434 40.1836 217.59 40.0664C218.84 39.0703 219.973 37.9766 221.027 36.8242C223.137 34.5195 224.992 32 226.574 29.3242C226.594 29.2852 226.613 29.2461 226.613 29.207C226.613 29.1289 226.574 29.0508 226.496 28.9922C226.457 28.9727 226.418 28.9531 226.379 28.9531C226.301 28.9531 226.223 28.9922 226.164 29.0703C225.734 29.6953 225.285 30.3203 224.816 30.9453C224.367 31.5508 223.898 32.1562 223.41 32.7617C222.453 33.9531 221.438 35.1055 220.363 36.1992C219.309 37.293 218.156 38.3086 216.965 39.1875C216.809 39.3047 216.652 39.4023 216.516 39.4805C216.516 39.4805 216.496 39.4805 216.496 39.5C216.496 39.4414 216.496 39.4023 216.516 39.3438C216.594 39.0117 216.691 38.6406 216.809 38.2891L217.18 37.2148C217.453 36.4727 217.688 35.7305 217.922 34.9688C218.02 34.5781 218.117 34.1875 218.195 33.7969C218.273 33.3867 218.352 32.9766 218.352 32.5078C218.352 32.293 218.332 32.0586 218.293 31.8047C218.234 31.5508 218.156 31.2969 218 31.0234C217.844 30.7695 217.59 30.5352 217.297 30.3984C217.023 30.2617 216.75 30.2031 216.496 30.1836L216.184 30.1641C215.832 30.1641 215.812 30.2227 215.48 30.2227L215.285 30.2422C215.168 30.2422 215.09 30.2031 215.012 30.1836L214.855 30.0469C214.777 29.9297 214.719 29.7344 214.699 29.5C214.777 29.5586 214.875 29.5977 214.973 29.5977C215.07 29.5977 215.188 29.5391 215.266 29.4609C215.559 29.168 215.812 28.8555 216.047 28.5234C216.301 28.1914 216.516 27.8203 216.672 27.3906C216.77 27.1758 216.828 26.9414 216.848 26.6484L216.867 26.5312C216.867 26.4336 216.848 26.3164 216.809 26.1797C216.77 26.0234 216.691 25.8281 216.574 25.6914C216.477 25.5156 216.32 25.3984 216.184 25.3203C216.164 25.2812 216.086 25.2617 216.027 25.2422C215.969 25.2031 215.91 25.1836 215.852 25.1836C215.734 25.1445 215.578 25.1445 215.48 25.1445C215.227 25.1836 215.051 25.2812 214.914 25.3594C214.738 25.4766 214.738 25.4961 214.562 25.6523C214.191 26.0234 213.977 26.4141 213.801 26.8242C213.625 27.2148 213.488 27.625 213.391 28.0547C213.312 28.4062 213.254 28.7969 213.254 29.207V29.3828C213.273 29.832 213.352 30.3594 213.703 30.8672C213.879 31.1211 214.133 31.3359 214.406 31.4727C214.699 31.5898 214.992 31.6484 215.266 31.6484C215.578 31.6484 215.559 31.6484 215.949 31.5898C216.105 31.5703 216.242 31.5703 216.379 31.5703C216.496 31.5898 216.594 31.6094 216.672 31.6484C216.73 31.668 216.77 31.707 216.828 31.7852C216.926 31.9219 216.984 32.1953 216.984 32.5273V32.6445C216.984 33.25 216.848 33.9531 216.652 34.6367C216.477 35.3594 216.242 36.082 216.008 36.8242C215.91 37.1953 215.793 37.5664 215.676 37.9375C215.559 38.3281 215.461 38.6992 215.383 39.1289C215.363 39.2852 215.324 39.4414 215.324 39.6172L215.344 39.8516C215.344 40.0078 215.383 40.2227 215.578 40.457C215.617 40.5156 215.676 40.5547 215.754 40.5938C215.793 40.6328 215.832 40.6523 215.852 40.6523C215.891 40.6719 215.93 40.6914 215.969 40.6914L216.145 40.7305ZM215.539 26.5117L215.48 26.4922H215.52L215.539 26.5117ZM214.738 28.6797L214.797 28.3672C214.953 27.6836 215.246 27.0391 215.559 26.6484C215.559 26.7461 215.539 26.8633 215.52 27C215.363 27.5469 215.07 28.1328 214.738 28.6797Z" fill="white"/>
<path d="M9.39062 57.7031C9.74219 57.7031 10.0742 57.4688 10.1523 57.1172L16.5781 33.1914C16.6953 33.1914 16.8125 33.1719 16.9297 33.1328C18.1797 32.5859 19.4297 32.0391 20.6797 31.4531C20.8164 31.4141 20.9336 31.3555 21.0703 31.2969C22.4766 30.7305 23.9219 30.2227 25.3672 29.7539C28.2578 28.8359 31.2266 28.0742 34.2148 27.5664C36.5391 27.1953 38.8633 26.9609 41.207 26.9609C41.9102 26.9609 42.5938 26.9805 43.2969 27.0195C44.8008 27.1367 46.3047 27.3711 47.7695 27.7812C49.2148 28.1914 50.6016 28.7773 51.8516 29.5586C52.2422 29.8125 52.5938 30.0664 52.9258 30.3398C50.9727 30.6719 49.0391 31.0625 47.125 31.4922C41.168 32.8789 35.3086 34.8125 29.8203 37.6055C27.1055 39.0117 24.4688 40.6328 22.0664 42.5859C20.875 43.5625 19.7422 44.6367 18.7656 45.8477C18.2773 46.4727 17.8086 47.1172 17.4375 47.8203C17.0859 48.5234 16.793 49.3047 16.6953 50.1445L16.6758 50.4766C16.6758 50.7891 16.7148 51.1211 16.793 51.4336C16.9102 51.8633 17.1055 52.2734 17.3789 52.625C17.9062 53.3477 18.6875 53.7969 19.4492 54.0898C20.2109 54.3633 21.0117 54.5195 21.793 54.6172C22.3984 54.6758 23.0234 54.6953 23.6094 54.6953H24.1562C27.2812 54.6172 30.3672 54.0312 33.3359 53.1523C34.8398 52.7227 36.2852 52.1953 37.7305 51.6289C39.1758 51.043 40.582 50.3984 41.9492 49.6758C44.7031 48.25 47.3398 46.5703 49.7617 44.5781C50.9531 43.5625 52.1055 42.4883 53.1406 41.2773C54.1562 40.0664 55.0742 38.7383 55.6797 37.1758C55.9727 36.4141 56.168 35.5938 56.207 34.7344V34.4414C56.207 33.6797 56.0703 32.918 55.7578 32.2148C55.4648 31.5312 55.0547 30.9453 54.5664 30.4375L56.207 30.2031C59.2344 29.8125 62.2617 29.5391 65.3086 29.3828C65.4258 29.3828 65.4844 29.2852 65.4844 29.1875C65.4844 29.0898 65.4062 29.0117 65.2891 29.0117C61.5977 29.207 57.9062 29.5781 54.2539 30.1445C53.6484 29.5977 52.9844 29.1484 52.3008 28.7969C50.9141 28.0547 49.4297 27.5469 47.9062 27.1953C46.4023 26.8633 44.8594 26.668 43.3359 26.5898C42.6328 26.5508 41.9297 26.5312 41.2266 26.5312C38.8438 26.5312 36.4805 26.7461 34.1367 27.0781C31.6953 27.4297 29.2734 27.9375 26.8906 28.5234C28.5117 27.7227 30.1133 26.9023 31.7148 26.0625C34.1367 24.793 36.5195 23.4648 38.8828 22.0391C40.0547 21.3359 41.207 20.5938 42.3594 19.8125C43.4922 19.0312 44.6055 18.2109 45.6797 17.3125C46.207 16.8438 46.7344 16.375 47.2422 15.8477C47.7305 15.3203 48.1992 14.7344 48.5703 14.0312C48.7656 13.6602 48.9219 13.25 48.9805 12.7617V12.5664C48.9805 12.3906 48.9609 12.2148 48.9414 12.0195C48.8828 11.7656 48.7852 11.5117 48.6484 11.2969C48.375 10.8672 48.0234 10.5547 47.6523 10.3398C47.3008 10.125 46.9492 9.96875 46.5781 9.83203C45.8555 9.59766 45.1523 9.46094 44.4492 9.36328C43.7461 9.26562 43.043 9.20703 42.3594 9.16797C41.4219 9.10938 40.5039 9.10938 39.6055 9.10938H38.2188C33.0039 9.1875 27.8086 9.63672 22.6719 10.4375L23.3555 7.85938C23.375 7.80078 23.375 7.72266 23.375 7.66406C23.375 7.3125 23.1602 7 22.8086 6.90234C22.7305 6.88281 22.6719 6.88281 22.5938 6.88281C22.2422 6.88281 21.9297 7.11719 21.832 7.46875L20.9531 10.7305C18.5703 11.1211 16.207 11.6094 13.8633 12.1953C11.207 12.8594 8.57031 13.6406 6.03125 14.6562C5.38672 14.9102 4.76172 15.1836 4.13672 15.4961C3.53125 15.8086 2.92578 16.1406 2.35938 16.5898C2.08594 16.8242 1.8125 17.0586 1.61719 17.4297C1.53906 17.5664 1.5 17.7227 1.5 17.8984L1.51953 18.0938C1.57812 18.3281 1.73438 18.5039 1.89062 18.6211C2.22266 18.875 2.55469 18.9727 2.90625 19.0703C3.53125 19.2461 3.78516 19.2656 4.44922 19.3438C4.60547 19.3633 4.76172 19.4023 4.91797 19.4414C5.23047 19.5 5.54297 19.6172 5.81641 19.7734C6.40234 20.0664 6.91016 20.4961 7.32031 21.0039C8.17969 22.0195 8.72656 23.2695 9.13672 24.5391C9.56641 25.8086 9.83984 27.1367 10.0352 28.4844C10.25 29.8125 10.3867 31.1602 10.4648 32.5078C10.543 33.875 10.582 35.2227 10.582 36.5898V37.293C10.582 38.4062 10.543 39.5195 10.4844 40.6523C10.3672 43.3672 10.1328 46.0625 9.83984 48.7578C9.50781 51.4531 9.13672 54.1484 8.60938 56.8047V56.9219C8.60938 57.2734 8.84375 57.5859 9.19531 57.6836C9.25391 57.7031 9.33203 57.7031 9.39062 57.7031ZM10.8555 48.4453C11.0117 45.8477 11.1094 43.2695 11.1484 40.6719V39.168C11.1484 36.9414 11.1094 34.7148 10.9336 32.4883C10.7188 29.7539 10.3867 27.0195 9.54688 24.4023C9.11719 23.0938 8.55078 21.8047 7.67188 20.7109C7.22266 20.1641 6.67578 19.6953 6.03125 19.3633C5.71875 19.207 5.36719 19.0703 5.03516 18.9922C4.50781 18.875 4.48828 18.8945 4 18.8359C3.66797 18.7773 3.33594 18.7188 3.02344 18.6211C2.71094 18.543 2.41797 18.4258 2.18359 18.25C2.04688 18.1328 1.98828 18.0352 1.98828 17.8984C1.98828 17.8203 2.00781 17.7422 2.04688 17.6445C2.18359 17.4102 2.41797 17.1758 2.67188 16.9805C3.17969 16.5898 3.78516 16.2773 4.37109 15.9844C4.97656 15.6914 5.60156 15.418 6.22656 15.1836C7.49609 14.6953 8.78516 14.2852 10.0938 13.9141C11.3828 13.543 12.7109 13.2109 14.0195 12.918C16.2266 12.4297 18.4727 12.0195 20.6992 11.6875L10.8555 48.4453ZM17.0859 31.3164L22.3984 11.4336C27.2422 10.7891 32.1055 10.4766 36.9688 10.4766H38.2188C39.5664 10.4961 40.9336 10.5352 42.2617 10.6133C42.9258 10.6719 43.5898 10.7305 44.2148 10.8477C44.8594 10.9453 45.4844 11.082 46.0508 11.2969C46.3438 11.3945 46.5977 11.5312 46.832 11.668C47.0469 11.8047 47.2031 11.9609 47.2812 12.1172C47.3398 12.1953 47.3594 12.2539 47.3789 12.332V12.6055C47.3594 12.8008 47.2617 13.0352 47.1445 13.2695C46.8906 13.7578 46.4805 14.2461 46.0312 14.7148C45.6016 15.1641 45.1133 15.5938 44.6055 16.0234C42.5547 17.6836 40.2695 19.1484 37.9648 20.5352C35.6406 21.9023 33.2773 23.2109 30.875 24.4805C28.4922 25.75 26.0703 26.9805 23.6289 28.1719C21.4609 29.2461 19.2734 30.2812 17.0859 31.3164ZM22.9062 53.582C22.5742 53.582 22.2422 53.5625 21.9102 53.543C21.168 53.4844 20.4648 53.3672 19.7812 53.1328C19.1367 52.8984 18.5117 52.5469 18.1211 52.0586C17.75 51.5898 17.5742 51.0234 17.5742 50.3984V50.2227C17.6328 49.5391 17.8672 48.8555 18.1797 48.1914C18.5117 47.5469 18.9219 46.9219 19.3711 46.3359C20.2695 45.1445 21.3633 44.0898 22.5156 43.1133C24.8203 41.1602 27.3984 39.5195 30.0938 38.1133C32.7695 36.6875 35.582 35.4961 38.4531 34.4609C41.3047 33.4258 44.2539 32.5664 47.2031 31.8828C49.2148 31.3945 51.2266 31.0039 53.2578 30.6523C53.3555 30.75 53.4531 30.8281 53.5312 30.9258C54.0195 31.4336 54.3906 32.0195 54.6055 32.6641C54.7617 33.1328 54.8594 33.6211 54.8594 34.1289L54.8203 34.6367C54.7422 35.3008 54.5469 35.9648 54.2734 36.6094C53.707 37.8984 52.8281 39.0898 51.8711 40.2031C50.9141 41.3164 49.8398 42.332 48.6875 43.2891C47.5547 44.2461 46.3438 45.125 45.0742 45.9648C43.8242 46.7852 42.5352 47.5664 41.207 48.2695C38.5703 49.6758 35.7969 50.8867 32.9258 51.8242C30.0742 52.7422 27.1055 53.3867 24.1172 53.543C23.707 53.5625 23.2969 53.582 22.9062 53.582ZM66.3438 24.9688L66.5195 24.9492C66.6367 24.9297 66.7344 24.8906 66.8516 24.8516L67.1055 24.6758C67.3984 24.4219 67.5547 24.1484 67.6328 23.8164L67.6523 23.7188C67.6523 23.6602 67.6328 23.6211 67.5938 23.5625C67.5352 23.4844 67.457 23.4258 67.3594 23.4258C67.2617 23.4258 67.2227 23.4648 67.125 23.5234C66.9297 23.6406 66.7148 23.7773 66.5781 23.8164H66.4805L66.4219 23.7969L66.4023 23.7578H66.3828L66.1875 23.4648L66.1289 23.3281C66.0898 23.2305 66.0312 23.1523 65.9922 23.0352L65.8555 22.6641C65.8359 22.6641 65.8359 22.6445 65.8359 22.625C65.6992 22.3516 65.4258 22.1953 65.1328 22.1953C65.0156 22.1953 64.8789 22.2344 64.7617 22.293C64.4883 22.4297 64.332 22.7227 64.332 23.0156C64.332 23.1328 64.3516 23.25 64.4102 23.3672L64.6445 23.7578C64.7227 23.8945 64.8203 24.0312 64.918 24.1484C64.957 24.2266 65.0352 24.2852 65.0938 24.3438L65.2695 24.5391C65.4453 24.6562 65.582 24.7734 65.8164 24.8711L65.9727 24.9297L66.3438 24.9688ZM65.9141 42.4102C66.6953 42.4102 67.418 42.1953 68.043 41.9023C68.707 41.6094 69.293 41.1992 69.8594 40.7695C70.4062 40.3398 70.9141 39.8711 71.4023 39.3828C72.3789 38.3867 73.2383 37.3516 74.0586 36.2578C75.6797 34.0703 77.1055 31.7852 78.3945 29.3828C78.4336 29.3242 78.4531 29.2461 78.4531 29.1875C78.4531 29.0508 78.375 28.9141 78.2383 28.8359C78.1797 28.7969 78.1211 28.7773 78.043 28.7773C77.9062 28.7773 77.7695 28.8555 77.6914 28.9922H77.6719C76.3633 31.2969 74.8789 33.543 73.2578 35.6328C72.4375 36.6875 71.5586 37.6836 70.6211 38.582C70.1523 39.0508 69.6641 39.4609 69.1562 39.8516C68.6484 40.2422 68.1016 40.5742 67.5547 40.8086C67.0664 41.043 66.5586 41.1602 66.0703 41.1602H65.875C65.3281 41.1211 64.8984 40.9062 64.6055 40.5156C64.293 40.125 64.1367 39.5391 64.0391 38.9531C64 38.6016 63.9805 38.2305 63.9805 37.8594L64 37.0781C64.0781 35.8086 64.3125 34.5 64.625 33.2305C64.918 31.9609 65.3086 30.6719 65.7383 29.4609V29.4219C65.7773 29.3438 65.7773 29.2461 65.7773 29.168C65.7773 28.8359 65.582 28.543 65.2305 28.4258C65.1523 28.4062 65.0742 28.3867 64.9766 28.3867C64.6641 28.3867 64.3516 28.582 64.2344 28.9336C63.8047 30.2422 63.4531 31.5508 63.1602 32.8984C62.8672 34.2461 62.6523 35.6133 62.5938 37.0195V37.4688C62.5938 38.0352 62.6328 38.582 62.7109 39.168C62.8281 39.8711 63.0625 40.6523 63.5898 41.3164C63.8438 41.6484 64.1953 41.9414 64.5859 42.1172C64.9961 42.293 65.4062 42.3906 65.7969 42.4102H65.9141ZM106.422 57.7031C106.773 57.7031 107.105 57.4688 107.184 57.1172L115.172 27.3516C116.246 27.4297 117.301 27.4883 118.375 27.5469C119.664 27.625 120.953 27.6836 122.262 27.7422C124.84 27.8398 127.438 27.8789 130.035 27.8789C132.613 27.8398 135.211 27.7227 137.809 27.5469C140.406 27.293 142.984 26.9609 145.562 26.4531H145.602C145.953 26.3555 146.188 26.043 146.188 25.6914C146.188 25.6133 146.188 25.5547 146.168 25.4766C146.09 25.125 145.758 24.8906 145.387 24.8906L145.191 24.9102C142.75 25.5547 140.23 25.9844 137.691 26.2773C136.402 26.3945 135.133 26.5312 133.863 26.5898C131.969 26.707 132.008 26.6875 130.016 26.7266L128.473 26.7461C126.422 26.7461 124.371 26.668 122.32 26.5508C120.055 26.3945 117.789 26.1797 115.562 25.8672L119.176 12.4297C123.473 12.6055 127.77 12.7031 132.086 12.7227C134.352 12.7227 136.598 12.7227 138.863 12.6641C141.129 12.6055 143.395 12.5273 145.641 12.4102C150.172 12.1562 154.684 11.7266 159.195 11.0234L159.215 11.0039C159.586 10.9258 159.859 10.5938 159.859 10.2227L159.84 10.0859C159.762 9.71484 159.43 9.44141 159.059 9.44141L158.902 9.46094C154.527 10.3594 150.055 10.9062 145.562 11.2969C143.336 11.4922 141.09 11.6484 138.824 11.7461C136.578 11.8633 134.332 11.9219 132.086 11.9609C130.523 11.9805 128.961 12 127.398 12C124.703 12 122.008 11.9609 119.312 11.9023L120.387 7.85938C120.406 7.80078 120.406 7.72266 120.406 7.66406C120.406 7.3125 120.191 7 119.84 6.90234C119.762 6.88281 119.703 6.88281 119.625 6.88281C119.273 6.88281 118.961 7.11719 118.863 7.46875L117.691 11.8633C113.453 11.7461 109.234 11.5508 105.016 11.4531C104.312 11.4336 103.609 11.4141 102.906 11.4141L101.617 11.4336C101.344 11.4336 101.051 11.4531 100.758 11.4727C100.484 11.5117 100.191 11.5312 99.8984 11.6289C99.8203 11.668 99.7422 11.6875 99.6445 11.7656C99.6055 11.8047 99.5664 11.8828 99.5469 11.9805C99.5469 12.0586 99.5859 12.1172 99.6055 12.1758C99.7227 12.3516 99.8594 12.4102 99.9961 12.4883C100.25 12.6445 100.504 12.7617 100.777 12.8594C101.031 12.9766 101.305 13.0742 101.559 13.1719C101.832 13.2695 102.105 13.3477 102.34 13.4648C102.848 13.6992 103.316 13.9922 103.746 14.3438C104.605 15.0469 105.27 15.9453 105.816 16.9219C106.363 17.8984 106.773 18.9336 107.105 20.0078C107.438 21.082 107.691 22.1758 107.887 23.2891C108.297 25.4961 108.473 27.7422 108.551 29.9883C108.57 30.8086 108.59 31.6484 108.59 32.4688C108.59 36.1602 108.316 39.832 107.926 43.4844C107.789 44.5977 107.652 45.7109 107.496 46.8242C107.34 47.9375 107.164 49.0508 106.969 50.1641C106.598 52.3711 106.168 54.5977 105.66 56.7656L105.641 56.9414C105.641 57.2734 105.875 57.5859 106.227 57.6836C106.285 57.7031 106.363 57.7031 106.422 57.7031ZM108.336 46.7266C108.434 45.6719 108.512 44.5977 108.59 43.543C108.805 40.3398 108.961 37.1172 108.961 33.9141C108.961 32.5859 108.941 31.2773 108.883 29.9688C108.785 27.7227 108.57 25.457 108.18 23.2305C107.965 22.1172 107.711 21.0039 107.379 19.9297C107.047 18.8359 106.637 17.7617 106.09 16.7656C105.523 15.7695 104.84 14.832 103.941 14.0898C103.492 13.7383 103.004 13.4258 102.477 13.1719C102.223 13.0547 101.93 12.957 101.676 12.8594L100.895 12.5664L100.152 12.2148C100.055 12.1367 99.9375 12.0586 99.8984 12L99.9961 11.9414C100.23 11.8633 100.523 11.8438 100.797 11.8242C101.07 11.7852 101.344 11.7852 101.637 11.7852L102.613 11.7656C103.414 11.7656 104.215 11.8047 104.996 11.8242C110.914 12.0195 111.07 12.0781 117.555 12.3711L113.883 26.082C113.805 26.1797 113.766 26.3164 113.746 26.4336V26.5312L108.336 46.7266ZM152.965 36.3359L153.531 36.3164C153.961 36.2773 154.41 36.1992 154.82 36.1016C155.68 35.9062 156.48 35.6328 157.281 35.3203C158.062 35.0273 158.844 34.6758 159.605 34.3242C161.129 33.6211 162.613 32.8008 164.059 31.9609C165.504 31.1016 166.93 30.2031 168.336 29.2656L168.375 29.2461C168.473 29.168 168.531 29.0508 168.531 28.9141C168.531 28.8164 168.512 28.7188 168.434 28.6406C168.355 28.543 168.238 28.4844 168.102 28.4844C168.023 28.4844 167.926 28.5234 167.828 28.582C165.25 30.6523 162.301 32.2734 159.273 33.6016C157.77 34.2461 156.207 34.8125 154.625 35.125C154.156 35.2227 153.648 35.2812 153.18 35.2812C152.887 35.2812 152.613 35.2617 152.34 35.2031C151.676 35.0469 151.402 34.6953 151.402 34.0508V33.9727C151.422 33.6406 151.5 33.2695 151.617 32.8984C151.793 32.3906 151.793 32.3906 152.047 31.8047C152.301 31.1992 152.594 30.6133 152.926 30.0469H153.238C153.707 30.0273 154.176 29.9492 154.625 29.832C155.504 29.5977 156.305 29.168 156.988 28.6211C157.164 28.4648 157.34 28.3477 157.496 28.1914C157.984 27.7227 158.004 27.7422 158.375 27.1758C158.492 26.9805 158.629 26.7656 158.688 26.4727C158.707 26.4141 158.707 26.3359 158.707 26.2578C158.707 26.1797 158.688 26.1016 158.668 26.0039C158.648 25.9258 158.59 25.8477 158.551 25.7695C158.512 25.6719 158.434 25.6328 158.355 25.5742C158.082 25.3594 157.789 25.3398 157.535 25.3398C157.047 25.3398 156.598 25.4766 156.188 25.6523C155.348 26.0039 154.625 26.5117 153.961 27.0977C153.453 27.5469 153.004 28.0547 152.594 28.6016L152.555 28.582C152.496 28.543 152.398 28.5039 152.379 28.4648C152.262 28.2305 152.047 28.0547 151.793 27.9766L151.559 27.9375C151.129 27.9375 150.738 28.2305 150.641 28.6406L150.621 28.8945C150.621 29.5586 151.051 29.7148 151.715 29.9102C151.246 30.7305 151.109 31.0625 150.738 31.9414C150.66 32.1367 150.582 32.3516 150.523 32.5664C150.387 32.9961 150.27 33.4453 150.27 33.9531V34.0898C150.27 34.2852 150.309 34.5 150.348 34.7148C150.426 34.9883 150.543 35.2617 150.719 35.4961C150.914 35.7109 151.148 35.9062 151.383 36.0234C151.637 36.1406 151.891 36.2188 152.125 36.2773C152.418 36.3164 152.691 36.3359 152.965 36.3359ZM154.059 28.9336C153.941 28.9336 153.805 28.9336 153.688 28.9141C153.961 28.5234 154.273 28.1328 154.625 27.7812C155.191 27.2344 155.816 26.7266 156.5 26.3945C156.852 26.2188 157.223 26.1016 157.555 26.082C157.711 26.082 157.867 26.1016 157.926 26.1602C157.945 26.1797 157.965 26.1797 157.965 26.2188C157.984 26.2383 157.984 26.2383 157.984 26.2773L157.965 26.3555C157.965 26.4922 157.867 26.6484 157.789 26.8047L157.438 27.2539L157.008 27.6641C156.871 27.8203 156.715 27.918 156.559 28.0547C155.934 28.5234 155.191 28.8555 154.449 28.9141C154.332 28.9336 154.195 28.9336 154.059 28.9336ZM167.73 37.625C168.297 37.625 168.824 37.4688 169.293 37.2734C169.801 37.0586 170.25 36.7656 170.68 36.4531C171.52 35.8281 172.262 35.125 172.965 34.3633C173.648 33.6016 174.312 32.8398 174.938 32.0391C175.621 31.1797 176.266 30.3203 176.93 29.4414C176.949 29.9883 177.027 30.5352 177.223 31.082C177.34 31.4727 177.535 31.8438 177.809 32.1953C178.082 32.5469 178.434 32.8398 178.844 33.0156C179.234 33.2109 179.664 33.2891 180.055 33.3281L180.387 33.3477C180.68 33.3477 180.953 33.3086 181.227 33.2695C181.969 33.1523 182.672 32.918 183.336 32.6445C184 32.3711 184.645 32.0586 185.27 31.7266C186.5 31.043 187.672 30.2617 188.805 29.4414C188.902 29.3828 188.941 29.2852 188.941 29.1875C188.941 29.1289 188.922 29.0703 188.902 29.0312C188.844 28.9336 188.727 28.8945 188.629 28.8945C188.57 28.8945 188.512 28.8945 188.473 28.9336C187.301 29.6758 186.109 30.3594 184.859 30.9453C184.254 31.2383 183.629 31.5117 182.984 31.7266C182.359 31.9414 181.715 32.1172 181.09 32.1758L180.66 32.1953C180.191 32.1953 179.742 32.1172 179.391 31.9219C178.941 31.6875 178.668 31.2383 178.512 30.6719C178.395 30.2812 178.355 29.832 178.355 29.3828L178.375 28.8555C178.395 28.5234 178.434 28.2109 178.492 27.8789C178.551 27.5664 178.629 27.2344 178.707 26.9609L178.746 26.7461C178.746 26.4727 178.609 26.2188 178.355 26.0625C178.219 25.9844 178.082 25.9453 177.945 25.9453C177.672 25.9453 177.379 26.082 177.242 26.3555C176.871 27.2539 176.383 28.1523 175.895 29.0117C175.641 29.4414 175.367 29.8711 175.094 30.2812C174.82 30.6914 174.547 31.1016 174.254 31.5117C173.668 32.3125 173.043 33.0938 172.359 33.7969C171.676 34.5195 170.973 35.2031 170.172 35.7695C169.781 36.043 169.371 36.2773 168.941 36.4531C168.57 36.6094 168.16 36.707 167.77 36.707H167.672C167.477 36.6875 167.32 36.6289 167.184 36.5508C167.066 36.4727 166.969 36.3555 166.91 36.1992C166.812 35.9648 166.773 35.6719 166.773 35.3594L166.793 34.9688C166.91 34.0508 167.184 33.1133 167.535 32.1953C167.887 31.2773 168.316 30.3789 168.766 29.5391L168.824 29.4414C168.863 29.3438 168.883 29.2461 168.883 29.1484C168.883 28.8359 168.688 28.5234 168.375 28.4062C168.277 28.3672 168.18 28.3477 168.082 28.3477C167.75 28.3477 167.457 28.543 167.34 28.8555C166.949 29.832 166.617 30.7891 166.324 31.7852C166.031 32.7812 165.777 33.7969 165.719 34.8906C165.719 35.4375 165.719 36.0234 165.992 36.6094C166.07 36.7656 166.168 36.9023 166.285 37.0391C166.402 37.1758 166.539 37.293 166.695 37.3906C166.988 37.5664 167.34 37.625 167.633 37.625H167.73ZM185.855 42.5859C186.051 42.5859 186.227 42.5664 186.402 42.5469C186.715 42.4883 187.027 42.4102 187.34 42.3125L187.789 42.1172C187.945 42.0391 188.082 41.9609 188.219 41.8633C188.785 41.4922 189.234 40.9453 189.547 40.3594C189.84 39.7734 190.016 39.168 190.133 38.543C190.289 37.7617 190.348 36.9805 190.348 36.2188C190.348 35.7695 190.328 35.3203 190.289 34.8906C190.25 33.9922 190.152 33.0938 190.035 32.2148C190.621 31.7656 191.207 31.375 191.852 31.043C192.867 30.4766 193.941 30.0469 195.055 29.7734C196.012 29.5391 197.027 29.4414 198.004 29.4414H198.492V29.4609C198.629 29.4609 198.746 29.3438 198.746 29.207L198.766 29.168C198.766 29.0508 198.648 28.9336 198.512 28.9336L197.906 28.9141C196.91 28.9141 195.914 29.0312 194.938 29.2852C193.785 29.5781 192.652 30.0078 191.598 30.5938C191.031 30.8867 190.484 31.2383 189.957 31.6094C189.957 31.5117 189.938 31.4336 189.918 31.3359L189.488 28.3086C189.996 27.6055 190.504 26.9219 190.973 26.2188C191.305 25.7305 191.637 25.2227 191.93 24.6953C192.223 24.168 192.496 23.6406 192.633 23.0156C192.691 22.8398 192.711 22.6641 192.711 22.4688C192.711 22.3125 192.691 22.1562 192.633 21.9805C192.574 21.7852 192.477 21.6094 192.32 21.4531C192.184 21.3164 192.008 21.2188 191.832 21.1406C191.5 20.9844 191.148 20.9453 190.836 20.9453H190.68C190.426 20.9453 190.387 20.9453 190.094 20.9648L189.82 21.0234C189.469 21.1211 189.117 21.3164 188.844 21.5898C188.57 21.8633 188.375 22.1758 188.238 22.5078C187.965 23.1523 187.867 23.7969 187.828 24.4219L187.809 25.1641C187.809 26.1406 187.926 27.0977 188.043 28.0352C188.199 29.2266 188.395 30.3789 188.57 31.5312L188.727 32.5664C187.789 33.3477 186.949 34.2461 186.188 35.2031C185.465 36.1602 184.82 37.1953 184.352 38.3086C184.117 38.875 183.941 39.4609 183.863 40.1055C183.844 40.2422 183.844 40.3984 183.844 40.5352C183.844 40.7109 183.863 40.9062 183.883 41.082C183.941 41.4336 184.098 41.7852 184.391 42.0781C184.664 42.3516 185.035 42.4883 185.387 42.5469C185.562 42.5664 185.699 42.5859 185.855 42.5859ZM185.738 41.7461C185.406 41.7461 185.133 41.668 184.938 41.4922C184.703 41.2773 184.586 40.8672 184.586 40.4375V40.1641C184.625 39.6367 184.781 39.0898 184.977 38.5625C185.387 37.5078 185.992 36.5117 186.676 35.5742C187.32 34.7344 188.023 33.9336 188.824 33.2109V33.2695C188.902 33.8359 188.98 34.4219 189.02 34.9883C189.078 35.6133 189.117 36.2578 189.117 36.8828C189.117 37.3906 189.098 37.8789 189.02 38.3672C188.883 39.4414 188.492 40.4766 187.672 41.082C187.281 41.3945 186.773 41.5703 186.246 41.6875C186.07 41.7266 185.895 41.7461 185.738 41.7461ZM189.41 27.6641C189.273 26.5703 189.156 25.4961 189.137 24.4609C189.137 22.9766 189.371 22.0977 190.445 21.8633L190.855 21.8047L191.109 21.7852C191.285 21.7852 191.441 21.8047 191.578 21.8633C191.793 21.9219 191.93 22.0195 192.008 22.1953C192.066 22.332 192.086 22.4883 192.086 22.6445L192.066 22.8984C191.988 23.4258 191.773 23.9727 191.52 24.4805C191.266 25.0078 190.973 25.5156 190.66 26.0039C190.27 26.5703 189.84 27.1172 189.41 27.6641ZM199.762 36.3359L200.328 36.3164C200.758 36.2773 201.207 36.1992 201.617 36.1016C202.477 35.9062 203.277 35.6328 204.078 35.3203C204.859 35.0273 205.641 34.6758 206.402 34.3242C207.926 33.6211 209.41 32.8008 210.855 31.9609C212.301 31.1016 213.727 30.2031 215.133 29.2656L215.172 29.2461C215.27 29.168 215.328 29.0508 215.328 28.9141C215.328 28.8164 215.309 28.7188 215.23 28.6406C215.152 28.543 215.035 28.4844 214.898 28.4844C214.82 28.4844 214.723 28.5234 214.625 28.582C212.047 30.6523 209.098 32.2734 206.07 33.6016C204.566 34.2461 203.004 34.8125 201.422 35.125C200.953 35.2227 200.445 35.2812 199.977 35.2812C199.684 35.2812 199.41 35.2617 199.137 35.2031C198.473 35.0469 198.199 34.6953 198.199 34.0508V33.9727C198.219 33.6406 198.297 33.2695 198.414 32.8984C198.59 32.3906 198.59 32.3906 198.844 31.8047C199.098 31.1992 199.391 30.6133 199.723 30.0469H200.035C200.504 30.0273 200.973 29.9492 201.422 29.832C202.301 29.5977 203.102 29.168 203.785 28.6211C203.961 28.4648 204.137 28.3477 204.293 28.1914C204.781 27.7227 204.801 27.7422 205.172 27.1758C205.289 26.9805 205.426 26.7656 205.484 26.4727C205.504 26.4141 205.504 26.3359 205.504 26.2578C205.504 26.1797 205.484 26.1016 205.465 26.0039C205.445 25.9258 205.387 25.8477 205.348 25.7695C205.309 25.6719 205.23 25.6328 205.152 25.5742C204.879 25.3594 204.586 25.3398 204.332 25.3398C203.844 25.3398 203.395 25.4766 202.984 25.6523C202.145 26.0039 201.422 26.5117 200.758 27.0977C200.25 27.5469 199.801 28.0547 199.391 28.6016L199.352 28.582C199.293 28.543 199.195 28.5039 199.176 28.4648C199.059 28.2305 198.844 28.0547 198.59 27.9766L198.355 27.9375C197.926 27.9375 197.535 28.2305 197.438 28.6406L197.418 28.8945C197.418 29.5586 197.848 29.7148 198.512 29.9102C198.043 30.7305 197.906 31.0625 197.535 31.9414C197.457 32.1367 197.379 32.3516 197.32 32.5664C197.184 32.9961 197.066 33.4453 197.066 33.9531V34.0898C197.066 34.2852 197.105 34.5 197.145 34.7148C197.223 34.9883 197.34 35.2617 197.516 35.4961C197.711 35.7109 197.945 35.9062 198.18 36.0234C198.434 36.1406 198.688 36.2188 198.922 36.2773C199.215 36.3164 199.488 36.3359 199.762 36.3359ZM200.855 28.9336C200.738 28.9336 200.602 28.9336 200.484 28.9141C200.758 28.5234 201.07 28.1328 201.422 27.7812C201.988 27.2344 202.613 26.7266 203.297 26.3945C203.648 26.2188 204.02 26.1016 204.352 26.082C204.508 26.082 204.664 26.1016 204.723 26.1602C204.742 26.1797 204.762 26.1797 204.762 26.2188C204.781 26.2383 204.781 26.2383 204.781 26.2773L204.762 26.3555C204.762 26.4922 204.664 26.6484 204.586 26.8047L204.234 27.2539L203.805 27.6641C203.668 27.8203 203.512 27.918 203.355 28.0547C202.73 28.5234 201.988 28.8555 201.246 28.9141C201.129 28.9336 200.992 28.9336 200.855 28.9336ZM217.145 40.7305C217.203 40.7305 217.262 40.7305 217.32 40.7109C217.496 40.6914 217.633 40.6328 217.75 40.5938L218.062 40.418C218.258 40.3008 218.434 40.1836 218.59 40.0664C219.84 39.0703 220.973 37.9766 222.027 36.8242C224.137 34.5195 225.992 32 227.574 29.3242C227.594 29.2852 227.613 29.2461 227.613 29.207C227.613 29.1289 227.574 29.0508 227.496 28.9922C227.457 28.9727 227.418 28.9531 227.379 28.9531C227.301 28.9531 227.223 28.9922 227.164 29.0703C226.734 29.6953 226.285 30.3203 225.816 30.9453C225.367 31.5508 224.898 32.1562 224.41 32.7617C223.453 33.9531 222.438 35.1055 221.363 36.1992C220.309 37.293 219.156 38.3086 217.965 39.1875C217.809 39.3047 217.652 39.4023 217.516 39.4805C217.516 39.4805 217.496 39.4805 217.496 39.5C217.496 39.4414 217.496 39.4023 217.516 39.3438C217.594 39.0117 217.691 38.6406 217.809 38.2891L218.18 37.2148C218.453 36.4727 218.688 35.7305 218.922 34.9688C219.02 34.5781 219.117 34.1875 219.195 33.7969C219.273 33.3867 219.352 32.9766 219.352 32.5078C219.352 32.293 219.332 32.0586 219.293 31.8047C219.234 31.5508 219.156 31.2969 219 31.0234C218.844 30.7695 218.59 30.5352 218.297 30.3984C218.023 30.2617 217.75 30.2031 217.496 30.1836L217.184 30.1641C216.832 30.1641 216.812 30.2227 216.48 30.2227L216.285 30.2422C216.168 30.2422 216.09 30.2031 216.012 30.1836L215.855 30.0469C215.777 29.9297 215.719 29.7344 215.699 29.5C215.777 29.5586 215.875 29.5977 215.973 29.5977C216.07 29.5977 216.188 29.5391 216.266 29.4609C216.559 29.168 216.812 28.8555 217.047 28.5234C217.301 28.1914 217.516 27.8203 217.672 27.3906C217.77 27.1758 217.828 26.9414 217.848 26.6484L217.867 26.5312C217.867 26.4336 217.848 26.3164 217.809 26.1797C217.77 26.0234 217.691 25.8281 217.574 25.6914C217.477 25.5156 217.32 25.3984 217.184 25.3203C217.164 25.2812 217.086 25.2617 217.027 25.2422C216.969 25.2031 216.91 25.1836 216.852 25.1836C216.734 25.1445 216.578 25.1445 216.48 25.1445C216.227 25.1836 216.051 25.2812 215.914 25.3594C215.738 25.4766 215.738 25.4961 215.562 25.6523C215.191 26.0234 214.977 26.4141 214.801 26.8242C214.625 27.2148 214.488 27.625 214.391 28.0547C214.312 28.4062 214.254 28.7969 214.254 29.207V29.3828C214.273 29.832 214.352 30.3594 214.703 30.8672C214.879 31.1211 215.133 31.3359 215.406 31.4727C215.699 31.5898 215.992 31.6484 216.266 31.6484C216.578 31.6484 216.559 31.6484 216.949 31.5898C217.105 31.5703 217.242 31.5703 217.379 31.5703C217.496 31.5898 217.594 31.6094 217.672 31.6484C217.73 31.668 217.77 31.707 217.828 31.7852C217.926 31.9219 217.984 32.1953 217.984 32.5273V32.6445C217.984 33.25 217.848 33.9531 217.652 34.6367C217.477 35.3594 217.242 36.082 217.008 36.8242C216.91 37.1953 216.793 37.5664 216.676 37.9375C216.559 38.3281 216.461 38.6992 216.383 39.1289C216.363 39.2852 216.324 39.4414 216.324 39.6172L216.344 39.8516C216.344 40.0078 216.383 40.2227 216.578 40.457C216.617 40.5156 216.676 40.5547 216.754 40.5938C216.793 40.6328 216.832 40.6523 216.852 40.6523C216.891 40.6719 216.93 40.6914 216.969 40.6914L217.145 40.7305ZM216.539 26.5117L216.48 26.4922H216.52L216.539 26.5117ZM215.738 28.6797L215.797 28.3672C215.953 27.6836 216.246 27.0391 216.559 26.6484C216.559 26.7461 216.539 26.8633 216.52 27C216.363 27.5469 216.07 28.1328 215.738 28.6797Z" fill="white"/>
</svg>
